<svg width="1440" height="1024" viewBox="0 0 1440 1024" fill="none" xmlns="http://www.w3.org/2000/svg">
    <g clip-path="url(#clip0_203_25)">
        <path
            d="M380 608C433.019 608 476 565.019 476 512C476 458.981 433.019 416 380 416C326.981 416 284 458.981 284 512C284 565.019 326.981 608 380 608Z"
            fill="#38B593" />
        <path opacity="0.2"
            d="M422 512C431.9 512 440 520.1 440 530C440 539.9 431.9 548 422 548C412.1 548 404 539.9 404 530C404 520.1 412.1 512 422 512ZM422 500C405.5 500 392 513.5 392 530C392 546.5 405.5 560 422 560C438.5 560 452 546.5 452 530C452 513.5 438.5 500 422 500Z"
            fill="#231F20" />
        <path opacity="0.2"
            d="M338 509C349.7 509 359 518.3 359 530C359 541.7 349.7 551 338 551C326.3 551 317 541.7 317 530C317 518.3 326.3 509 338 509ZM338 500C321.5 500 308 513.5 308 530C308 546.5 321.5 560 338 560C354.5 560 368 546.5 368 530C368 513.5 354.5 500 338 500Z"
            fill="#231F20" />
        <path
            d="M338 503C349.7 503 359 512.3 359 524C359 535.7 349.7 545 338 545C326.3 545 317 535.7 317 524C317 512.3 326.3 503 338 503ZM338 494C321.5 494 308 507.5 308 524C308 540.5 321.5 554 338 554C354.5 554 368 540.5 368 524C368 507.5 354.5 494 338 494Z"
            fill="#4F5D73" />
        <path
            d="M422 503C433.7 503 443 512.3 443 524C443 535.7 433.7 545 422 545C410.3 545 401 535.7 401 524C401 512.3 410.3 503 422 503ZM422 494C405.5 494 392 507.5 392 524C392 540.5 405.5 554 422 554C438.5 554 452 540.5 452 524C452 507.5 438.5 494 422 494Z"
            fill="#4F5D73" />
        <path opacity="0.2"
            d="M425.9 527.9L398.9 475.4C398.3 473.9 396.8 473 395 473H380C377.6 473 375.5 475.1 375.5 477.5C375.5 479.9 377.6 482 380 482H392.3L401.6 500H375.5L369.2 487.4C368.3 485.9 366.8 485 365 485H350C347.6 485 345.5 487.1 345.5 489.5C345.5 491.9 347.6 494 350 494H362.3L366.5 502.4L335.3 527.9C333.8 529.1 333.2 531.2 333.8 533C334.4 534.8 336.2 536 338 536H380C381.2 536 382.4 535.4 383.3 534.8L407.3 510.8L418.1 532.1C419 533.6 420.5 534.5 422 534.5C422.6 534.5 423.5 534.2 424.1 533.9C426.2 533 427.1 530.3 425.9 527.9ZM350.6 527L370.7 510.8L378.8 526.7L378.2 527H350.6ZM385.1 519.8L379.7 509H396.2L385.1 519.8Z"
            fill="#231F20" />
        <path d="M422 524L395 471.5H380" stroke="white" stroke-width="3" stroke-miterlimit="10" stroke-linecap="round"
            stroke-linejoin="round" />
        <path d="M383 518L365 483.5H350" stroke="white" stroke-width="3" stroke-miterlimit="10" stroke-linecap="round"
            stroke-linejoin="round" />
        <path d="M338 525.5H380L407 498.5H371L338 525.5Z" stroke="white" stroke-width="3" stroke-miterlimit="10"
            stroke-linecap="round" stroke-linejoin="round" />
    </g>
    <path
        d="M541.4 518.712C541.4 521.544 539.936 524.304 537.008 526.992C534.08 529.632 530.288 531.768 525.632 533.4C520.976 534.984 516.224 535.776 511.376 535.776C508.544 535.776 506 534.984 503.744 533.4C501.536 531.816 500.432 530.352 500.432 529.008C500.432 527.616 500.84 526.92 501.656 526.92C501.848 526.92 502.784 527.448 504.464 528.504C506.192 529.512 507.992 530.04 509.864 530.088C509.192 529.752 508.544 529.128 507.92 528.216C507.344 527.304 507.056 526.44 507.056 525.624C507.056 524.808 507.632 522.528 508.784 518.784C512.336 507.504 514.16 498.84 514.256 492.792H513.68C512.816 492.792 511.928 492.264 511.016 491.208C510.104 490.104 509.648 489.216 509.648 488.544C509.648 487.728 510.656 487.032 512.672 486.456C514.736 485.832 517.208 485.52 520.088 485.52C526.808 485.52 531.992 486.432 535.64 488.256C539.288 490.08 541.112 492.72 541.112 496.176C541.112 499.056 539.888 501.672 537.44 504.024C535.04 506.376 531.512 508.272 526.856 509.712L527.504 509.784C531.536 510.024 534.848 511.008 537.44 512.736C540.08 514.464 541.4 516.456 541.4 518.712ZM534.632 496.536C534.632 494.952 533.816 493.728 532.184 492.864C530.6 491.952 528.656 491.496 526.352 491.496C524.096 491.496 521.336 491.784 518.072 492.36C519.416 493.8 520.088 495.192 520.088 496.536C520.088 497.832 519.248 501.792 517.568 508.416C518.72 507.696 520.52 506.88 522.968 505.968C525.416 505.008 527.336 504.168 528.728 503.448C530.168 502.728 531.2 502.104 531.824 501.576C532.496 501 533.12 500.256 533.696 499.344C534.32 498.432 534.632 497.496 534.632 496.536ZM535.136 518.424C535.136 516.984 533.456 515.784 530.096 514.824C526.784 513.816 523.472 513.312 520.16 513.312C518.864 513.312 517.736 512.64 516.776 511.296C513.848 522.864 511.928 529.128 511.016 530.088C514.424 529.992 518 529.392 521.744 528.288C525.488 527.136 528.656 525.648 531.248 523.824C533.84 522 535.136 520.2 535.136 518.424ZM557.292 489.984C557.292 489.024 557.676 488.112 558.444 487.248C559.212 486.384 559.98 485.952 560.748 485.952C561.564 485.952 562.524 486.936 563.628 488.904C564.732 490.824 565.284 492.432 565.284 493.728C565.284 494.208 565.068 494.64 564.636 495.024C564.204 495.408 563.748 495.6 563.268 495.6C562.116 495.6 560.82 494.904 559.38 493.512C557.988 492.12 557.292 490.944 557.292 489.984ZM556.932 500.208C557.844 500.208 558.708 500.76 559.524 501.864C560.34 502.968 560.748 504.048 560.748 505.104C560.748 506.16 560.052 509.328 558.66 514.608C557.268 519.84 555.516 525.72 553.404 532.248C552.588 534.648 551.556 535.848 550.308 535.848C549.636 535.848 549.06 535.584 548.58 535.056C548.1 534.48 547.86 533.856 547.86 533.184C547.86 532.464 548.028 531.36 548.364 529.872C548.748 528.336 549.276 526.32 549.948 523.824C550.668 521.28 551.22 519.216 551.604 517.632C552.036 516.048 552.468 514.272 552.9 512.304C553.332 510.288 553.668 508.68 553.908 507.48C554.196 506.232 554.508 504.984 554.844 503.736C555.516 501.384 556.212 500.208 556.932 500.208ZM597.056 504.096C597.056 504.528 594.92 506.784 590.648 510.864C589.064 512.4 587.6 514.224 586.256 516.336C584.96 518.4 584.312 520.296 584.312 522.024C584.312 523.752 584.816 525.36 585.824 526.848C586.88 528.288 588.008 529.392 589.208 530.16C590.456 530.88 591.584 531.6 592.592 532.32C593.648 533.04 594.176 533.64 594.176 534.12C594.176 535.32 593.216 535.92 591.296 535.92C589.424 535.92 587.168 534.864 584.528 532.752C581.936 530.592 580.328 528.192 579.704 525.552C579.464 525.072 579.272 524.616 579.128 524.184C575.864 528.6 573.488 531.672 572 533.4C570.56 535.08 569.48 535.92 568.76 535.92C568.04 535.92 567.248 535.368 566.384 534.264C565.52 533.112 565.088 532.176 565.088 531.456C565.088 530.688 565.856 527.592 567.392 522.168C568.976 516.696 570.536 510.144 572.072 502.512C573.656 494.88 574.448 488.064 574.448 482.064C574.448 481.296 574.544 480.768 574.736 480.48C574.976 480.192 575.456 480.048 576.176 480.048C576.896 480.048 577.784 480.768 578.84 482.208C579.896 483.6 580.424 484.968 580.424 486.312C580.424 490.584 579.56 496.56 577.832 504.24C576.104 511.92 574.04 519.216 571.64 526.128C577.064 518.4 581.744 512.16 585.68 507.408C589.664 502.608 592.112 500.208 593.024 500.208C593.984 500.208 594.896 500.664 595.76 501.576C596.624 502.488 597.056 503.328 597.056 504.096ZM627.71 512.16C627.71 514.704 626.318 516.792 623.534 518.424C620.798 520.008 617.678 520.8 614.174 520.8C610.718 520.8 607.574 520.416 604.742 519.648C604.07 521.76 603.734 523.656 603.734 525.336C603.734 526.968 604.238 528.24 605.246 529.152C606.302 530.064 608.006 530.52 610.358 530.52C612.758 530.52 615.206 530.112 617.702 529.296C620.246 528.432 621.638 528 621.878 528C623.126 528 623.75 528.48 623.75 529.44C623.75 530.736 622.286 532.152 619.358 533.688C616.43 535.176 613.574 535.92 610.79 535.92C607.046 535.92 603.998 534.816 601.646 532.608C599.294 530.352 598.118 527.52 598.118 524.112C598.118 520.704 599.03 517.152 600.854 513.456C602.678 509.712 605.03 506.568 607.91 504.024C610.79 501.48 613.646 500.208 616.478 500.208C619.31 500.208 621.878 501.552 624.182 504.24C626.534 506.928 627.71 509.568 627.71 512.16ZM616.838 505.896C615.062 505.896 613.214 506.832 611.294 508.704C609.374 510.528 607.742 512.808 606.398 515.544C608.318 515.976 610.502 516.192 612.95 516.192C615.398 516.192 617.534 515.808 619.358 515.04C621.182 514.224 622.094 513.168 622.094 511.872C622.094 510.576 621.494 509.256 620.294 507.912C619.142 506.568 617.99 505.896 616.838 505.896ZM691.759 521.592C691.759 525.528 689.983 528.84 686.431 531.528C682.879 534.168 678.799 535.488 674.191 535.488C669.631 535.488 665.863 534.312 662.887 531.96C659.911 529.56 658.423 527.304 658.423 525.192C658.423 523.752 658.855 523.032 659.719 523.032C660.487 523.032 661.999 524.184 664.255 526.488C665.119 527.304 666.271 528.072 667.711 528.792C669.199 529.512 670.759 529.872 672.391 529.872C675.751 529.872 678.727 529.008 681.319 527.28C683.959 525.552 685.279 523.68 685.279 521.664C685.279 520.368 684.415 518.712 682.687 516.696C680.959 514.68 679.039 512.784 676.927 511.008C674.863 509.184 672.967 507.24 671.239 505.176C669.511 503.112 668.646 501.48 668.646 500.28C668.646 499.08 668.887 497.808 669.367 496.464C669.847 495.12 670.375 494.136 670.951 493.512C672.823 491.448 675.727 489.552 679.663 487.824C683.647 486.096 686.983 485.232 689.671 485.232C691.063 485.232 692.239 485.688 693.199 486.6C694.159 487.512 694.639 488.472 694.639 489.48C694.639 489.96 694.135 490.344 693.127 490.632C692.119 490.92 690.583 491.304 688.519 491.784C686.503 492.216 684.703 492.744 683.119 493.368C677.599 495.48 674.839 497.52 674.839 499.488C674.839 500.544 677.647 503.496 683.263 508.344C685.423 510.216 687.367 512.4 689.095 514.896C690.871 517.344 691.759 519.576 691.759 521.592ZM707.041 482.856C707.041 480.984 707.617 480.048 708.769 480.048C709.681 480.048 710.641 480.768 711.649 482.208C712.705 483.648 713.233 485.04 713.233 486.384C713.233 489.504 712.441 494.832 710.857 502.368C709.321 509.856 707.305 517.344 704.809 524.832C709.609 516.144 713.617 509.88 716.833 506.04C720.097 502.152 722.881 500.208 725.185 500.208C726.433 500.208 727.873 501.288 729.505 503.448C731.185 505.608 732.025 507.768 732.025 509.928C732.025 512.088 731.425 515.328 730.225 519.648C727.249 530.496 724.441 535.92 721.801 535.92C720.745 535.92 720.217 535.2 720.217 533.76C720.217 532.32 720.793 529.896 721.945 526.488C724.489 519.048 725.761 514.032 725.761 511.44C725.761 510.576 725.545 509.856 725.113 509.28C724.681 508.704 724.153 508.416 723.529 508.416C722.905 508.416 722.137 508.752 721.225 509.424C720.313 510.096 719.209 511.272 717.913 512.952C716.281 515.112 714.577 517.536 712.801 520.224C711.073 522.912 710.017 524.544 709.633 525.12C709.297 525.648 708.673 526.632 707.761 528.072C706.897 529.512 706.249 530.592 705.816 531.312C705.385 531.984 704.857 532.728 704.233 533.544C703.129 535.128 702.289 535.92 701.713 535.92C701.137 535.92 700.369 535.392 699.409 534.336C698.449 533.232 697.969 532.32 697.969 531.6C697.969 530.832 698.233 529.416 698.761 527.352C701.161 518.136 702.673 511.824 703.297 508.416C705.793 495.936 707.041 487.416 707.041 482.856ZM756.298 500.208C758.458 500.208 760.45 501.312 762.274 503.52C764.098 505.68 765.01 507.648 765.01 509.424C765.01 511.152 764.41 512.928 763.21 514.752C763.786 515.472 764.074 516.096 764.074 516.624C764.074 517.968 763.762 520.272 763.138 523.536C762.562 526.8 762.202 528.936 762.058 529.944C761.962 530.952 761.866 531.768 761.77 532.392C761.674 532.968 761.554 533.544 761.41 534.12C761.218 535.32 760.786 535.92 760.114 535.92C759.25 535.92 758.53 535.176 757.954 533.688C757.426 532.152 757.114 530.184 757.018 527.784C752.746 533.208 748.786 535.92 745.138 535.92C742.93 535.92 740.746 534.984 738.586 533.112C736.474 531.192 735.418 529.224 735.418 527.208C735.418 524.328 736.474 520.776 738.586 516.552C740.698 512.28 743.434 508.488 746.794 505.176C750.154 501.864 753.322 500.208 756.298 500.208ZM759.61 512.88C759.61 508.416 758.722 506.184 756.946 506.184C755.074 506.184 752.89 507.528 750.394 510.216C747.898 512.856 745.786 515.856 744.058 519.216C742.33 522.576 741.466 525.24 741.466 527.208C741.466 528.024 741.802 528.696 742.474 529.224C743.146 529.704 743.938 529.944 744.85 529.944C747.106 529.944 749.65 528.432 752.482 525.408C755.314 522.336 757.282 518.616 758.386 514.248C758.53 513.528 758.938 513.096 759.61 512.952V512.88ZM775.216 508.992L775 503.592C775 501.336 775.528 500.208 776.584 500.208C777.496 500.208 778.36 500.808 779.176 502.008C780.04 503.16 780.472 504.552 780.472 506.184C780.472 507.768 780.424 508.968 780.328 509.784C784.504 503.448 788.464 500.28 792.208 500.28C794.56 500.28 795.736 500.856 795.736 502.008C795.736 502.584 795.472 503.112 794.944 503.592C794.416 504.072 793.576 504.624 792.424 505.248C789.88 506.352 787.72 508.056 785.944 510.36C784.216 512.616 782.8 515.184 781.696 518.064C780.592 520.944 779.704 523.368 779.032 525.336C778.408 527.304 777.928 528.84 777.592 529.944C777.256 531.048 776.872 532.128 776.44 533.184C775.672 535.104 774.784 536.064 773.776 536.064C772.96 536.064 772.288 535.608 771.76 534.696C771.28 533.736 771.04 532.824 771.04 531.96C771.04 531.048 771.448 529.272 772.264 526.632C774.232 520.584 775.216 514.704 775.216 508.992ZM803.948 489.984C803.948 489.024 804.332 488.112 805.1 487.248C805.868 486.384 806.636 485.952 807.404 485.952C808.22 485.952 809.18 486.936 810.284 488.904C811.388 490.824 811.94 492.432 811.94 493.728C811.94 494.208 811.724 494.64 811.292 495.024C810.86 495.408 810.404 495.6 809.924 495.6C808.772 495.6 807.476 494.904 806.036 493.512C804.644 492.12 803.948 490.944 803.948 489.984ZM803.588 500.208C804.5 500.208 805.364 500.76 806.18 501.864C806.996 502.968 807.404 504.048 807.404 505.104C807.404 506.16 806.708 509.328 805.316 514.608C803.924 519.84 802.172 525.72 800.06 532.248C799.244 534.648 798.212 535.848 796.964 535.848C796.292 535.848 795.716 535.584 795.236 535.056C794.756 534.48 794.516 533.856 794.516 533.184C794.516 532.464 794.684 531.36 795.02 529.872C795.404 528.336 795.932 526.32 796.604 523.824C797.324 521.28 797.876 519.216 798.26 517.632C798.692 516.048 799.124 514.272 799.556 512.304C799.988 510.288 800.324 508.68 800.564 507.48C800.852 506.232 801.164 504.984 801.5 503.736C802.172 501.384 802.868 500.208 803.588 500.208ZM818.944 523.392C823.552 515.568 827.296 509.76 830.176 505.968C833.104 502.128 835.48 500.208 837.304 500.208C839.176 500.208 840.928 501.192 842.56 503.16C844.24 505.128 845.08 507.216 845.08 509.424C845.08 512.88 844.288 517.104 842.704 522.096C839.824 531.312 837.232 535.92 834.928 535.92C833.872 535.92 833.344 535.2 833.344 533.76C833.344 532.752 833.848 530.712 834.856 527.64C835.912 524.52 836.872 521.472 837.736 518.496C838.648 515.472 839.104 513.216 839.104 511.728C839.104 510.192 838.864 509.064 838.384 508.344C837.952 507.624 837.496 507.264 837.016 507.264C836.584 507.264 836.128 507.408 835.648 507.696C835.168 507.984 834.616 508.464 833.992 509.136C833.416 509.808 832.864 510.48 832.336 511.152C831.808 511.776 831.136 512.688 830.32 513.888C829.552 515.088 828.904 516.12 828.376 516.984C827.848 517.8 827.08 519 826.072 520.584C825.064 522.168 824.296 523.368 823.768 524.184C823.24 525 822.544 526.104 821.68 527.496C820.816 528.888 820.12 529.968 819.592 530.736C819.112 531.504 818.56 532.344 817.936 533.256C816.736 535.032 815.776 535.92 815.056 535.92C814.384 535.92 813.592 535.392 812.68 534.336C811.768 533.232 811.312 532.272 811.312 531.456C811.312 531.216 811.48 530.568 811.816 529.512C812.728 526.728 813.736 523.296 814.84 519.216C815.944 515.088 816.544 510.408 816.64 505.176C816.784 501.672 817.288 499.92 818.152 499.92C819.208 499.92 820.264 500.472 821.32 501.576C822.376 502.68 822.904 503.904 822.904 505.248C822.904 506.544 822.496 509.088 821.68 512.88C820.912 516.624 820 520.128 818.944 523.392ZM878.791 516.48C878.791 518.4 877.951 520.584 876.271 523.032C874.975 525.96 873.583 530.184 872.095 535.704C870.607 541.176 869.359 545.088 868.351 547.44C866.335 552.336 863.239 554.784 859.063 554.784C855.655 554.784 852.775 553.848 850.423 551.976C848.119 550.152 846.967 548.328 846.967 546.504C846.967 545.736 847.207 544.968 847.687 544.2C848.119 543.432 848.575 543.048 849.055 543.048C849.583 543.048 850.159 543.408 850.783 544.128C851.407 544.848 851.983 545.616 852.511 546.432C853.087 547.296 853.927 548.088 855.031 548.808C856.183 549.528 857.287 549.888 858.343 549.888C859.399 549.888 860.191 549.72 860.719 549.384C861.247 549.096 861.751 548.592 862.231 547.872C862.711 547.2 863.119 546.504 863.455 545.784C863.791 545.112 864.151 544.128 864.535 542.832C864.967 541.584 865.303 540.504 865.543 539.592C865.783 538.68 866.119 537.408 866.551 535.776C866.983 534.096 867.343 532.752 867.631 531.744C863.887 534.528 860.839 535.92 858.487 535.92C856.135 535.92 854.095 534.984 852.367 533.112C850.639 531.192 849.775 528.984 849.775 526.488C849.775 523.944 850.711 520.584 852.583 516.408C854.503 512.232 857.071 508.488 860.287 505.176C863.503 501.864 866.647 500.208 869.719 500.208C871.687 500.208 873.343 500.952 874.687 502.44C876.895 504.888 877.999 508.368 877.999 512.88C877.999 513.456 877.975 513.864 877.927 514.104C878.503 514.92 878.791 515.712 878.791 516.48ZM855.607 527.208C855.607 528.024 855.871 528.696 856.399 529.224C856.927 529.704 857.599 529.944 858.415 529.944C860.815 529.944 863.647 528.528 866.911 525.696C870.175 522.816 872.479 519.48 873.823 515.688C873.631 515.064 873.463 514.104 873.319 512.808C873.175 511.512 873.031 510.48 872.887 509.712C872.743 508.944 872.431 508.176 871.951 507.408C871.471 506.592 870.847 506.184 870.079 506.184C868.207 506.184 866.095 507.528 863.743 510.216C861.391 512.904 859.447 515.904 857.911 519.216C856.375 522.528 855.607 525.192 855.607 527.208ZM921.989 485.088C926.501 485.088 931.301 486.264 936.389 488.616C941.525 490.968 945.941 494.232 949.637 498.408C953.333 502.536 955.181 506.832 955.181 511.296C955.181 514.224 953.141 517.68 949.061 521.664C945.029 525.6 940.349 528.984 935.021 531.816C929.693 534.6 925.277 535.992 921.773 535.992C920.861 535.992 919.805 535.224 918.605 533.688C917.453 532.104 916.877 530.52 916.877 528.936C916.877 527.304 918.269 521.496 921.053 511.512C923.837 501.528 925.349 494.952 925.589 491.784C924.053 491.16 922.829 490.344 921.917 489.336C921.005 488.328 920.549 487.368 920.549 486.456C920.549 485.544 921.029 485.088 921.989 485.088ZM948.557 510.504C948.557 507.528 946.781 504.312 943.229 500.856C939.677 497.352 935.549 494.832 930.845 493.296C931.085 494.16 931.205 495.192 931.205 496.392C931.205 497.544 930.773 499.728 929.909 502.944C929.093 506.16 927.581 511.536 925.373 519.072C924.461 522.24 923.717 525.72 923.141 529.512C926.453 529.08 930.149 527.64 934.229 525.192C938.357 522.696 941.765 520.032 944.453 517.2C947.189 514.368 948.557 512.136 948.557 510.504ZM988.483 512.16C988.483 514.704 987.091 516.792 984.307 518.424C981.571 520.008 978.451 520.8 974.947 520.8C971.491 520.8 968.347 520.416 965.515 519.648C964.843 521.76 964.507 523.656 964.507 525.336C964.507 526.968 965.011 528.24 966.019 529.152C967.075 530.064 968.779 530.52 971.131 530.52C973.531 530.52 975.979 530.112 978.475 529.296C981.019 528.432 982.411 528 982.651 528C983.899 528 984.523 528.48 984.523 529.44C984.523 530.736 983.059 532.152 980.131 533.688C977.203 535.176 974.347 535.92 971.563 535.92C967.819 535.92 964.771 534.816 962.419 532.608C960.067 530.352 958.891 527.52 958.891 524.112C958.891 520.704 959.803 517.152 961.627 513.456C963.451 509.712 965.803 506.568 968.683 504.024C971.563 501.48 974.419 500.208 977.251 500.208C980.083 500.208 982.651 501.552 984.955 504.24C987.307 506.928 988.483 509.568 988.483 512.16ZM977.611 505.896C975.835 505.896 973.987 506.832 972.067 508.704C970.147 510.528 968.515 512.808 967.171 515.544C969.091 515.976 971.275 516.192 973.723 516.192C976.171 516.192 978.307 515.808 980.131 515.04C981.955 514.224 982.867 513.168 982.867 511.872C982.867 510.576 982.267 509.256 981.067 507.912C979.915 506.568 978.763 505.896 977.611 505.896ZM1038.75 500.208C1040.19 500.208 1041.47 501.216 1042.57 503.232C1043.72 505.2 1044.3 507.456 1044.3 510C1044.3 512.496 1043.84 515.76 1042.93 519.792C1042.07 523.824 1040.89 527.52 1039.4 530.88C1037.91 534.24 1036.45 535.92 1035.01 535.92C1034 535.92 1033.5 535.272 1033.5 533.976C1033.5 532.632 1034.31 529.392 1035.95 524.256C1037.63 519.072 1038.47 514.968 1038.47 511.944C1038.47 508.872 1037.99 507.336 1037.03 507.336C1035.83 507.336 1034.43 508.392 1032.85 510.504C1031.31 512.616 1029.66 515.16 1027.88 518.136C1026.11 521.112 1025.15 522.72 1025 522.96C1024.86 523.152 1024.67 523.44 1024.43 523.824C1024.23 524.208 1023.99 524.616 1023.71 525.048C1023.47 525.48 1022.79 526.776 1021.69 528.936C1020.63 531.096 1019.7 532.8 1018.88 534.048C1018.07 535.248 1017.35 535.848 1016.72 535.848C1016.15 535.848 1015.5 535.464 1014.78 534.696C1014.06 533.928 1013.7 533.208 1013.7 532.536C1013.7 531.864 1014.13 530.472 1014.99 528.36C1017.49 522.12 1018.74 516.312 1018.74 510.936C1018.74 509.928 1018.52 509.088 1018.09 508.416C1017.66 507.696 1017.18 507.336 1016.65 507.336C1016.12 507.336 1015.57 507.576 1014.99 508.056C1014.42 508.488 1013.7 509.304 1012.83 510.504C1011.97 511.656 1011.2 512.76 1010.53 513.816C1009.86 514.872 1008.83 516.528 1007.43 518.784C1006.09 520.992 1005.06 522.648 1004.34 523.752C1003.67 524.808 1002.87 526.056 1001.96 527.496C1001.05 528.888 1000.33 529.968 999.802 530.736C999.322 531.504 998.77 532.344 998.146 533.256C996.85 535.032 995.89 535.92 995.266 535.92C994.69 535.92 993.922 535.392 992.962 534.336C992.002 533.232 991.522 532.416 991.522 531.888C991.522 531.312 991.618 530.616 991.81 529.8C992.002 528.984 992.194 528.192 992.386 527.424C992.626 526.656 992.962 525.528 993.394 524.04C993.874 522.504 994.402 520.728 994.978 518.712C995.602 516.648 996.058 513.84 996.346 510.288C996.682 506.688 996.922 504.072 997.066 502.44C997.21 500.76 997.618 499.92 998.29 499.92C999.346 499.92 1000.38 500.472 1001.39 501.576C1002.44 502.68 1002.97 503.784 1002.97 504.888C1002.97 509.112 1001.39 516.072 998.218 525.768C1003.59 515.688 1006.98 509.712 1008.37 507.84C1009.76 505.968 1010.96 504.456 1011.97 503.304C1013.84 501.24 1015.74 500.208 1017.66 500.208C1018.81 500.208 1020.18 501.216 1021.76 503.232C1023.39 505.2 1024.21 507.192 1024.21 509.208C1024.21 511.224 1023.92 513.72 1023.35 516.696C1029.01 505.704 1034.15 500.208 1038.75 500.208ZM1068.63 500.208C1070.79 500.208 1072.78 501.312 1074.6 503.52C1076.43 505.68 1077.34 507.648 1077.34 509.424C1077.34 511.152 1076.74 512.928 1075.54 514.752C1076.11 515.472 1076.4 516.096 1076.4 516.624C1076.4 517.968 1076.09 520.272 1075.47 523.536C1074.89 526.8 1074.53 528.936 1074.39 529.944C1074.29 530.952 1074.19 531.768 1074.1 532.392C1074 532.968 1073.88 533.544 1073.74 534.12C1073.55 535.32 1073.11 535.92 1072.44 535.92C1071.58 535.92 1070.86 535.176 1070.28 533.688C1069.75 532.152 1069.44 530.184 1069.35 527.784C1065.07 533.208 1061.11 535.92 1057.47 535.92C1055.26 535.92 1053.07 534.984 1050.91 533.112C1048.8 531.192 1047.75 529.224 1047.75 527.208C1047.75 524.328 1048.8 520.776 1050.91 516.552C1053.03 512.28 1055.76 508.488 1059.12 505.176C1062.48 501.864 1065.65 500.208 1068.63 500.208ZM1071.94 512.88C1071.94 508.416 1071.05 506.184 1069.27 506.184C1067.4 506.184 1065.22 507.528 1062.72 510.216C1060.23 512.856 1058.11 515.856 1056.39 519.216C1054.66 522.576 1053.79 525.24 1053.79 527.208C1053.79 528.024 1054.13 528.696 1054.8 529.224C1055.47 529.704 1056.27 529.944 1057.18 529.944C1059.43 529.944 1061.98 528.432 1064.81 525.408C1067.64 522.336 1069.61 518.616 1070.71 514.248C1070.86 513.528 1071.27 513.096 1071.94 512.952V512.88ZM1090.28 523.392C1094.89 515.568 1098.63 509.76 1101.51 505.968C1104.44 502.128 1106.82 500.208 1108.64 500.208C1110.51 500.208 1112.26 501.192 1113.9 503.16C1115.58 505.128 1116.42 507.216 1116.42 509.424C1116.42 512.88 1115.62 517.104 1114.04 522.096C1111.16 531.312 1108.57 535.92 1106.26 535.92C1105.21 535.92 1104.68 535.2 1104.68 533.76C1104.68 532.752 1105.18 530.712 1106.19 527.64C1107.25 524.52 1108.21 521.472 1109.07 518.496C1109.98 515.472 1110.44 513.216 1110.44 511.728C1110.44 510.192 1110.2 509.064 1109.72 508.344C1109.29 507.624 1108.83 507.264 1108.35 507.264C1107.92 507.264 1107.46 507.408 1106.98 507.696C1106.5 507.984 1105.95 508.464 1105.33 509.136C1104.75 509.808 1104.2 510.48 1103.67 511.152C1103.14 511.776 1102.47 512.688 1101.66 513.888C1100.89 515.088 1100.24 516.12 1099.71 516.984C1099.18 517.8 1098.42 519 1097.41 520.584C1096.4 522.168 1095.63 523.368 1095.1 524.184C1094.58 525 1093.88 526.104 1093.02 527.496C1092.15 528.888 1091.46 529.968 1090.93 530.736C1090.45 531.504 1089.9 532.344 1089.27 533.256C1088.07 535.032 1087.11 535.92 1086.39 535.92C1085.72 535.92 1084.93 535.392 1084.02 534.336C1083.1 533.232 1082.65 532.272 1082.65 531.456C1082.65 531.216 1082.82 530.568 1083.15 529.512C1084.06 526.728 1085.07 523.296 1086.18 519.216C1087.28 515.088 1087.88 510.408 1087.98 505.176C1088.12 501.672 1088.62 499.92 1089.49 499.92C1090.54 499.92 1091.6 500.472 1092.66 501.576C1093.71 502.68 1094.24 503.904 1094.24 505.248C1094.24 506.544 1093.83 509.088 1093.02 512.88C1092.25 516.624 1091.34 520.128 1090.28 523.392ZM1152.43 480.048C1153.2 480.048 1154.13 480.768 1155.24 482.208C1156.39 483.6 1156.97 484.92 1156.97 486.168C1156.97 487.416 1156.37 490.968 1155.17 496.824C1153.97 502.632 1152.57 508.656 1150.99 514.896C1147.53 528.912 1145.25 535.92 1144.15 535.92C1143.48 535.92 1142.73 535.512 1141.92 534.696C1141.15 533.832 1140.77 533.088 1140.77 532.464C1140.77 531.84 1140.93 530.592 1141.27 528.72C1136.57 533.52 1132.46 535.92 1128.96 535.92C1126.85 535.92 1124.93 534.96 1123.2 533.04C1121.52 531.12 1120.68 529.128 1120.68 527.064C1120.68 524.088 1121.47 520.56 1123.05 516.48C1124.69 512.352 1127.01 508.608 1130.04 505.248C1133.06 501.888 1136.28 500.208 1139.69 500.208C1143.09 500.208 1145.47 502.248 1146.81 506.328C1149.26 496.152 1150.61 488.112 1150.85 482.208C1150.85 480.768 1151.37 480.048 1152.43 480.048ZM1144.51 515.4C1144.51 512.808 1144.05 510.624 1143.14 508.848C1142.28 507.072 1141.22 506.184 1139.97 506.184C1137.91 506.184 1135.8 507.456 1133.64 510C1131.48 512.544 1129.75 515.472 1128.45 518.784C1127.21 522.048 1126.58 524.88 1126.58 527.28C1126.58 528.144 1126.89 528.84 1127.52 529.368C1128.14 529.896 1128.89 530.16 1129.75 530.16C1131.62 530.16 1134.14 528.816 1137.31 526.128C1140.53 523.44 1142.85 520.272 1144.29 516.624L1144.51 515.76V515.4Z"
        fill="#38B593" />
    <defs>
        <clipPath id="clip0_203_25">
            <rect width="192" height="192" fill="white" transform="translate(284 416)" />
        </clipPath>
    </defs>
</svg>