<svg width="1440" height="1024" viewBox="0 0 1440 1024" fill="none" xmlns="http://www.w3.org/2000/svg">
<path d="M590.08 593.376C574.72 593.376 562.005 590.389 551.936 584.416C541.867 578.443 534.357 570.763 529.408 561.376C524.629 551.989 522.24 542.347 522.24 532.448C522.24 520.16 524.373 508.043 528.64 496.096C532.907 483.979 539.136 473.056 547.328 463.328C555.691 453.429 565.845 445.579 577.792 439.776C589.739 433.803 603.477 430.816 619.008 430.816C630.101 430.816 639.232 432.437 646.4 435.68C653.568 438.923 658.859 443.189 662.272 448.48C665.856 453.6 667.648 459.147 667.648 465.12C667.648 471.605 666.453 476.213 664.064 478.944C661.845 481.675 659.285 483.04 656.384 483.04C654.165 483.04 652.459 482.101 651.264 480.224C650.24 478.176 649.728 476.384 649.728 474.848C649.728 471.605 650.325 469.216 651.52 467.68C652.715 466.144 653.824 464.693 654.848 463.328C656.043 461.792 656.64 459.573 656.64 456.672C656.64 451.04 652.971 446.347 645.632 442.592C638.293 438.667 628.821 436.704 617.216 436.704C606.464 436.704 596.139 438.837 586.24 443.104C576.341 447.371 567.552 453.6 559.872 461.792C552.363 469.813 546.389 479.627 541.952 491.232C537.515 502.837 535.296 515.893 535.296 530.4C535.296 540.299 537.259 549.6 541.184 558.304C545.109 567.008 551.168 574.091 559.36 579.552C567.552 584.843 578.048 587.488 590.848 587.488C606.037 587.488 619.605 583.648 631.552 575.968C643.669 568.288 653.739 558.475 661.76 546.528C663.125 544.651 664.405 543.712 665.6 543.712C666.624 543.712 667.136 544.309 667.136 545.504C667.136 547.04 666.795 548.405 666.112 549.6C657.408 564.96 646.656 576.139 633.856 583.136C621.227 589.963 606.635 593.376 590.08 593.376ZM690.002 594.912C689.661 594.912 689.234 594.741 688.722 594.4C688.21 594.229 688.039 593.888 688.21 593.376C688.551 590.816 688.978 587.744 689.49 584.16C690.002 580.405 691.367 577.589 693.586 575.712C698.194 555.403 703.058 535.179 708.178 515.04C710.055 507.36 712.274 499.168 714.834 490.464C717.565 481.589 720.893 472.971 724.818 464.608C728.743 456.075 733.522 448.48 739.154 441.824C744.957 434.997 751.783 429.792 759.634 426.208C764.754 423.819 770.045 422.624 775.506 422.624C777.554 422.624 779.773 423.051 782.162 423.904C784.722 424.587 786.941 425.696 788.818 427.232C790.695 428.768 791.634 430.731 791.634 433.12C791.634 433.632 791.463 434.4 791.122 435.424C790.61 435.765 789.671 436.533 788.306 437.728C786.941 438.923 785.575 440.032 784.21 441.056C783.015 441.909 782.247 442.421 781.906 442.592C781.565 442.251 781.394 441.995 781.394 441.824C781.394 441.312 781.565 440.8 781.906 440.288C782.418 439.776 782.674 439.179 782.674 438.496C782.674 436.789 781.735 435.253 779.858 433.888C778.151 432.352 776.103 431.157 773.714 430.304C771.325 429.28 769.362 428.768 767.826 428.768C762.194 428.768 756.989 431.157 752.21 435.936C747.431 440.544 743.079 446.603 739.154 454.112C735.399 461.451 732.071 469.301 729.17 477.664C726.269 486.027 723.794 493.877 721.746 501.216C719.698 508.384 718.077 514.187 716.882 518.624C712.786 534.155 708.946 549.771 705.362 565.472C711.335 557.621 717.565 549.515 724.05 541.152C730.535 532.619 735.911 523.915 740.178 515.04C740.178 512.821 740.775 511.285 741.97 510.432C743.335 509.408 744.871 508.896 746.578 508.896C747.431 508.896 748.541 509.067 749.906 509.408C750.247 509.237 750.674 509.152 751.186 509.152C752.893 509.152 753.917 510.261 754.258 512.48C754.77 514.528 755.026 516.149 755.026 517.344C755.026 519.221 754.77 521.867 754.258 525.28C753.917 528.523 752.722 530.656 750.674 531.68C750.503 533.728 750.333 535.776 750.162 537.824C750.162 539.872 750.162 542.005 750.162 544.224C750.162 546.101 750.247 548.832 750.418 552.416C750.759 555.829 751.357 559.413 752.21 563.168C753.234 566.752 754.599 569.824 756.306 572.384C758.013 574.773 760.231 575.968 762.962 575.968C766.034 575.968 768.935 574.773 771.666 572.384C774.397 569.824 776.871 566.923 779.09 563.68C781.309 560.437 783.186 557.621 784.722 555.232C786.258 552.672 787.282 551.392 787.794 551.392C788.306 551.392 788.562 551.904 788.562 552.928C788.562 553.952 788.221 555.147 787.538 556.512C785.831 559.925 783.613 563.851 780.882 568.288C778.322 572.555 775.25 576.309 771.666 579.552C768.082 582.624 764.071 584.16 759.634 584.16C755.197 584.16 751.527 582.624 748.626 579.552C745.895 576.48 743.762 572.725 742.226 568.288C740.69 563.68 739.581 558.987 738.898 554.208C738.386 549.429 738.13 545.419 738.13 542.176C738.13 539.275 738.215 536.373 738.386 533.472C738.557 530.571 738.813 527.755 739.154 525.024C734.375 533.387 728.914 541.579 722.77 549.6C716.797 557.621 710.738 565.387 704.594 572.896V575.456C704.594 579.211 704.338 583.051 703.826 586.976C702.631 588.171 700.498 589.792 697.426 591.84C694.354 593.888 691.879 594.912 690.002 594.912ZM807.048 590.56C800.733 590.56 796.467 588.768 794.248 585.184C792.029 581.429 790.92 576.651 790.92 570.848C790.92 564.704 791.859 558.816 793.736 553.184C795.613 547.552 797.661 541.92 799.88 536.288C798.685 535.435 797.576 534.325 796.552 532.96C795.699 531.595 795.272 529.632 795.272 527.072C795.272 524.171 796.979 520.501 800.392 516.064C803.805 511.456 807.645 507.445 811.912 504.032C813.789 502.496 816.264 500.875 819.336 499.168C822.408 497.291 825.565 495.755 828.808 494.56C832.051 493.195 834.696 492.512 836.744 492.512C843.912 492.512 848.691 495.413 851.08 501.216C853.469 507.019 854.323 513.931 853.64 521.952C854.323 521.611 855.517 521.099 857.224 520.416C859.101 519.733 860.893 519.136 862.6 518.624C864.307 517.941 865.331 517.6 865.672 517.6C866.525 517.6 867.379 518.027 868.232 518.88C869.085 519.733 869.512 520.587 869.512 521.44C869.512 521.952 869.256 522.379 868.744 522.72L852.616 528.864C851.592 534.155 849.885 540.299 847.496 547.296C845.277 554.293 842.205 561.12 838.28 567.776C834.525 574.261 830.003 579.723 824.712 584.16C819.592 588.427 813.704 590.56 807.048 590.56ZM819.336 530.4C823.603 530.4 827.699 529.973 831.624 529.12C835.549 528.096 839.816 526.816 844.424 525.28C844.595 524.427 844.68 523.488 844.68 522.464C844.851 521.44 844.936 520.501 844.936 519.648C844.936 517.6 844.68 515.296 844.168 512.736C843.827 510.176 842.973 507.957 841.608 506.08C840.413 504.032 838.536 503.008 835.976 503.008C833.075 503.008 830.259 504.117 827.528 506.336C824.797 508.555 822.237 511.2 819.848 514.272C817.629 517.344 815.667 520.331 813.96 523.232C812.424 526.133 811.315 528.267 810.632 529.632C813.704 530.144 816.605 530.4 819.336 530.4ZM809.352 583.648C814.131 583.648 818.312 582.112 821.896 579.04C825.651 575.797 828.893 571.616 831.624 566.496C834.355 561.376 836.659 555.829 838.536 549.856C840.584 543.883 842.205 537.995 843.4 532.192C838.28 533.899 832.392 535.605 825.736 537.312C819.251 538.848 813.277 539.275 807.816 538.592C806.109 543.2 804.573 548.405 803.208 554.208C802.013 560.011 801.416 565.387 801.416 570.336C801.416 573.067 801.843 575.968 802.696 579.04C803.72 582.112 805.939 583.648 809.352 583.648ZM870.712 592.608C869.347 592.608 868.493 592.096 868.152 591.072C868.835 589.536 869.517 588 870.2 586.464C870.883 584.928 871.48 583.307 871.992 581.6C875.064 572.555 877.795 563.424 880.184 554.208C882.744 544.992 885.219 535.776 887.608 526.56L889.656 518.624C889.656 518.112 889.059 517.941 887.864 518.112C886.669 518.112 885.987 517.856 885.816 517.344C887.011 514.272 888.035 511.2 888.888 508.128C889.912 504.885 891.021 501.728 892.216 498.656C892.728 497.291 894.349 496.011 897.08 494.816C899.811 493.621 901.859 493.024 903.224 493.024C905.613 493.024 906.808 494.133 906.808 496.352C906.808 497.547 906.211 500.021 905.016 503.776C903.992 507.36 902.627 511.627 900.92 516.576C899.384 521.355 897.677 526.304 895.8 531.424C894.093 536.373 892.472 540.981 890.936 545.248C889.571 549.344 888.547 552.501 887.864 554.72C890.936 548.576 894.605 541.92 898.872 534.752C903.139 527.584 907.832 520.757 912.952 514.272C918.072 507.787 923.533 502.667 929.336 498.912C931.213 497.717 932.92 497.12 934.456 497.12C938.04 497.12 940.685 498.997 942.392 502.752C944.099 506.336 944.952 509.579 944.952 512.48C944.952 513.504 944.696 515.125 944.184 517.344C943.672 519.392 942.904 521.355 941.88 523.232C941.027 524.939 939.917 525.792 938.552 525.792C937.528 525.792 936.845 525.024 936.504 523.488C936.163 521.781 935.821 519.904 935.48 517.856C935.139 515.637 934.541 513.76 933.688 512.224C932.835 510.517 931.469 509.664 929.592 509.664C926.861 509.664 923.789 511.371 920.376 514.784C916.963 518.027 913.464 522.208 909.88 527.328C906.296 532.448 902.797 537.909 899.384 543.712C896.141 549.344 893.24 554.549 890.68 559.328C888.291 564.107 886.584 567.776 885.56 570.336C885.731 570.848 885.816 571.616 885.816 572.64C885.816 574.517 885.389 576.736 884.536 579.296C883.853 581.685 883.085 583.819 882.232 585.696C882.232 586.72 881.464 587.744 879.928 588.768C878.563 589.792 876.941 590.645 875.064 591.328C873.187 592.181 871.736 592.608 870.712 592.608ZM1003.85 590.56C1002.48 590.56 1001.12 590.048 999.752 589.024C998.557 588 997.96 586.72 997.96 585.184C997.96 579.893 998.557 574.005 999.752 567.52C1001.12 561.035 1002.65 554.549 1004.36 548.064C1006.07 541.408 1007.52 535.435 1008.71 530.144C1007.35 532.704 1005.04 536.373 1001.8 541.152C998.557 545.931 994.803 551.136 990.536 556.768C986.269 562.229 981.832 567.52 977.224 572.64C972.787 577.589 968.52 581.685 964.424 584.928C960.499 588.171 957.171 589.792 954.44 589.792C953.075 589.792 952.051 589.28 951.368 588.256C950.856 587.232 950.6 586.123 950.6 584.928C950.6 582.88 951.197 579.979 952.392 576.224C953.587 572.299 954.952 568.117 956.488 563.68C958.195 559.072 959.816 554.72 961.352 550.624C963.059 546.528 964.253 543.115 964.936 540.384L969.032 526.048H968.52C968.008 526.048 967.411 525.877 966.728 525.536C966.216 525.195 965.96 524.683 965.96 524C965.96 523.829 965.96 523.659 965.96 523.488C966.131 523.317 966.216 523.147 966.216 522.976C967.069 519.563 967.667 515.979 968.008 512.224C968.349 508.299 969.373 504.971 971.08 502.24C972.957 499.509 976.2 498.144 980.808 498.144C983.709 498.144 985.16 499.595 985.16 502.496C985.16 504.885 984.477 508.811 983.112 514.272C981.747 519.563 980.04 525.365 977.992 531.68C976.115 537.995 974.237 543.968 972.36 549.6C970.483 555.061 969.117 559.243 968.264 562.144C967.923 563.339 967.24 565.472 966.216 568.544C965.192 571.445 964.68 573.493 964.68 574.688L964.936 575.2C965.107 575.2 965.363 575.029 965.704 574.688C972.531 570.421 978.845 564.533 984.648 557.024C990.621 549.515 995.997 541.579 1000.78 533.216C1005.73 524.853 1009.99 517.259 1013.58 510.432C1013.41 509.579 1013.32 508.811 1013.32 508.128C1013.32 507.445 1013.32 506.763 1013.32 506.08C1013.32 502.325 1014.86 499.765 1017.93 498.4C1021.17 497.035 1024.33 496.352 1027.4 496.352C1028.42 496.352 1029.53 496.523 1030.73 496.864C1031.92 497.205 1032.52 498.059 1032.52 499.424C1032.52 500.107 1032.35 500.789 1032.01 501.472C1031.84 501.984 1031.58 502.581 1031.24 503.264C1028.17 509.237 1025.44 515.296 1023.05 521.44C1020.83 527.584 1018.7 533.899 1016.65 540.384C1015.79 543.285 1014.69 547.04 1013.32 551.648C1011.95 556.085 1010.76 560.608 1009.74 565.216C1008.88 569.653 1008.46 573.408 1008.46 576.48C1008.46 577.675 1008.63 579.04 1008.97 580.576C1009.48 581.941 1010.5 582.624 1012.04 582.624C1013.41 582.624 1015.2 581.856 1017.42 580.32C1019.63 578.613 1021.94 576.651 1024.33 574.432C1026.89 572.213 1029.11 570.336 1030.98 568.8C1033.03 567.093 1034.4 566.24 1035.08 566.24C1035.59 566.24 1035.85 566.667 1035.85 567.52C1035.85 568.032 1035.68 568.885 1035.34 570.08C1034.99 571.104 1034.31 572.043 1033.29 572.896C1031.41 574.603 1028.77 576.907 1025.35 579.808C1021.94 582.539 1018.27 585.013 1014.34 587.232C1010.59 589.451 1007.09 590.56 1003.85 590.56ZM1049.36 589.536C1046.29 589.536 1044.75 588.256 1044.75 585.696C1044.75 583.648 1046.12 581.941 1048.85 580.576C1051.75 579.04 1055.16 577.76 1059.09 576.736C1063.18 575.712 1067.02 574.944 1070.61 574.432C1074.19 573.92 1076.75 573.579 1078.29 573.408C1079.14 572.555 1079.82 571.616 1080.33 570.592C1080.85 569.397 1081.1 568.203 1081.1 567.008C1081.1 565.643 1080.68 564.533 1079.82 563.68C1079.14 562.656 1078.2 561.803 1077.01 561.12C1073.93 559.243 1070.09 556.768 1065.49 553.696C1060.88 550.624 1056.78 547.211 1053.2 543.456C1049.78 539.531 1048.08 535.52 1048.08 531.424C1048.08 529.035 1048.68 527.157 1049.87 525.792C1052.94 521.867 1056.87 517.515 1061.65 512.736C1066.6 507.787 1071.89 503.605 1077.52 500.192C1083.32 496.608 1088.87 494.816 1094.16 494.816C1098.94 494.816 1101.84 495.584 1102.86 497.12C1103.89 498.656 1104.4 501.557 1104.4 505.824C1104.4 508.725 1103.89 511.968 1102.86 515.552C1101.84 518.965 1099.7 521.355 1096.46 522.72H1095.95C1095.44 522.72 1095.1 521.952 1094.93 520.416C1094.93 518.709 1094.93 517.173 1094.93 515.808C1094.93 514.784 1094.93 513.248 1094.93 511.2C1094.93 509.152 1094.5 507.275 1093.65 505.568C1092.79 503.691 1091.17 502.752 1088.78 502.752C1086.39 502.752 1083.58 503.52 1080.33 505.056C1077.09 506.421 1073.85 508.384 1070.61 510.944C1067.53 513.333 1064.97 515.893 1062.93 518.624C1060.88 521.355 1059.85 524 1059.85 526.56C1059.85 530.827 1061.39 534.411 1064.46 537.312C1067.7 540.213 1071.46 542.773 1075.73 544.992C1079.99 547.211 1083.66 549.515 1086.73 551.904C1089.98 554.293 1091.6 557.109 1091.6 560.352C1091.6 562.741 1091 565.045 1089.81 567.264C1088.61 569.312 1087.25 571.189 1085.71 572.896C1087.42 572.725 1089.12 572.64 1090.83 572.64C1092.71 572.469 1094.5 572.384 1096.21 572.384C1097.74 572.384 1098.51 572.811 1098.51 573.664C1098.51 574.517 1098.25 575.115 1097.74 575.456C1097.23 575.627 1096.55 575.797 1095.69 575.968C1093.13 576.309 1090.49 576.651 1087.76 576.992C1085.2 577.333 1082.64 577.76 1080.08 578.272C1075.3 582.539 1070.61 585.525 1066 587.232C1061.39 588.768 1055.84 589.536 1049.36 589.536Z" fill="white"/>
<path d="M419 522.415C424.2 522.415 428.415 518.2 428.415 513C428.415 507.8 424.2 503.585 419 503.585C413.8 503.585 409.585 507.8 409.585 513C409.585 518.2 413.8 522.415 419 522.415Z" fill="white"/>
<path d="M419 441C379.236 441 347 473.236 347 513C347 552.764 379.236 585 419 585C458.764 585 491 552.764 491 513C491 473.236 458.764 441 419 441ZM391.548 458.907C399.789 454.717 409.119 452.354 419 452.354C419.58 452.354 420.155 452.362 420.731 452.378C421.686 452.404 422.342 454.777 422.198 457.647L421.465 472.421C421.321 475.291 420.712 477.589 420.103 477.571C419.737 477.561 419.369 477.556 419 477.556C413.803 477.556 408.866 478.675 404.419 480.684C401.798 481.868 398.662 481.162 397.2 478.688L389.663 465.944C388.201 463.469 388.984 460.211 391.548 458.907ZM388.602 486.008L377.469 476.27C375.304 474.378 375.08 471.081 377.159 469.098C377.208 469.051 377.255 469.007 377.307 468.96C379.394 466.982 382.666 467.385 384.43 469.652L393.523 481.321C395.29 483.588 395.701 486.237 394.54 487.343C393.377 488.454 390.767 487.9 388.602 486.008ZM393.523 513C393.523 498.929 404.929 487.523 419 487.523C433.071 487.523 444.477 498.929 444.477 513C444.477 527.071 433.071 538.477 419 538.477C404.929 538.477 393.523 527.071 393.523 513ZM446.333 567.153C438.12 571.306 428.832 573.646 419 573.646C418.355 573.646 417.712 573.635 417.072 573.617C416.007 573.583 415.271 571.2 415.427 568.329L416.234 553.558C416.392 550.688 417.072 548.403 417.759 548.426C418.17 548.439 418.584 548.447 419 548.447C423.773 548.447 428.322 547.505 432.478 545.798C435.137 544.705 438.398 545.423 439.965 547.833L448.035 560.246C449.601 562.653 448.899 565.854 446.333 567.153ZM460.513 557.212C458.52 559.086 455.295 558.646 453.479 556.418L444.136 544.949C442.32 542.722 441.857 540.14 443.004 539.081C444.155 538.022 446.76 538.615 448.922 540.51L460.06 550.253C462.226 552.145 462.509 555.338 460.513 557.212Z" fill="white"/>
</svg>
