<svg width="1440" height="1024" fill="none" xmlns="http://www.w3.org/2000/svg">
    <path
        d="M590.08 593.376c-15.36 0-28.075-2.987-38.144-8.96-10.069-5.973-17.579-13.653-22.528-23.04-4.779-9.387-7.168-19.029-7.168-28.928 0-12.288 2.133-24.405 6.4-36.352 4.267-12.117 10.496-23.04 18.688-32.768 8.363-9.899 18.517-17.749 30.464-23.552 11.947-5.973 25.685-8.96 41.216-8.96 11.093 0 20.224 1.621 27.392 4.864 7.168 3.243 12.459 7.509 15.872 12.8 3.584 5.12 5.376 10.667 5.376 16.64 0 6.485-1.195 11.093-3.584 13.824-2.219 2.731-4.779 4.096-7.68 4.096-2.219 0-3.925-.939-5.12-2.816-1.024-2.048-1.536-3.84-1.536-5.376 0-3.243.597-5.632 1.792-7.168a312.71 312.71 0 003.328-4.352c1.195-1.536 1.792-3.755 1.792-6.656 0-5.632-3.669-10.325-11.008-14.08-7.339-3.925-16.811-5.888-28.416-5.888-10.752 0-21.077 2.133-30.976 6.4-9.899 4.267-18.688 10.496-26.368 18.688-7.509 8.021-13.483 17.835-17.92 29.44-4.437 11.605-6.656 24.661-6.656 39.168 0 9.899 1.963 19.2 5.888 27.904s9.984 15.787 18.176 21.248c8.192 5.291 18.688 7.936 31.488 7.936 15.189 0 28.757-3.84 40.704-11.52 12.117-7.68 22.187-17.493 30.208-29.44 1.365-1.877 2.645-2.816 3.84-2.816 1.024 0 1.536.597 1.536 1.792 0 1.536-.341 2.901-1.024 4.096-8.704 15.36-19.456 26.539-32.256 33.536-12.629 6.827-27.221 10.24-43.776 10.24zm99.922 1.536c-.341 0-.768-.171-1.28-.512-.512-.171-.683-.512-.512-1.024.341-2.56.768-5.632 1.28-9.216.512-3.755 1.877-6.571 4.096-8.448a2414.736 2414.736 0 0114.592-60.672c1.877-7.68 4.096-15.872 6.656-24.576a197.482 197.482 0 019.984-25.856c3.925-8.533 8.704-16.128 14.336-22.784 5.803-6.827 12.629-12.032 20.48-15.616 5.12-2.389 10.411-3.584 15.872-3.584 2.048 0 4.267.427 6.656 1.28 2.56.683 4.779 1.792 6.656 3.328 1.877 1.536 2.816 3.499 2.816 5.888 0 .512-.171 1.28-.512 2.304-.512.341-1.451 1.109-2.816 2.304a69.965 69.965 0 01-4.096 3.328c-1.195.853-1.963 1.365-2.304 1.536-.341-.341-.512-.597-.512-.768 0-.512.171-1.024.512-1.536.512-.512.768-1.109.768-1.792 0-1.707-.939-3.243-2.816-4.608-1.707-1.536-3.755-2.731-6.144-3.584-2.389-1.024-4.352-1.536-5.888-1.536-5.632 0-10.837 2.389-15.616 7.168-4.779 4.608-9.131 10.667-13.056 18.176-3.755 7.339-7.083 15.189-9.984 23.552s-5.376 16.213-7.424 23.552c-2.048 7.168-3.669 12.971-4.864 17.408a1442.719 1442.719 0 00-11.52 46.848 3334.217 3334.217 0 0118.688-24.32c6.485-8.533 11.861-17.237 16.128-26.112 0-2.219.597-3.755 1.792-4.608a7.487 7.487 0 014.608-1.536c.853 0 1.963.171 3.328.512.341-.171.768-.256 1.28-.256 1.707 0 2.731 1.109 3.072 3.328.512 2.048.768 3.669.768 4.864 0 1.877-.256 4.523-.768 7.936-.341 3.243-1.536 5.376-3.584 6.4l-.512 6.144v6.4c0 1.877.085 4.608.256 8.192.341 3.413.939 6.997 1.792 10.752 1.024 3.584 2.389 6.656 4.096 9.216 1.707 2.389 3.925 3.584 6.656 3.584 3.072 0 5.973-1.195 8.704-3.584 2.731-2.56 5.205-5.461 7.424-8.704a360.998 360.998 0 005.632-8.448c1.536-2.56 2.56-3.84 3.072-3.84s.768.512.768 1.536-.341 2.219-1.024 3.584c-1.707 3.413-3.925 7.339-6.656 11.776-2.56 4.267-5.632 8.021-9.216 11.264-3.584 3.072-7.595 4.608-12.032 4.608s-8.107-1.536-11.008-4.608c-2.731-3.072-4.864-6.827-6.4-11.264a80.413 80.413 0 01-3.328-14.08c-.512-4.779-.768-8.789-.768-12.032 0-2.901.085-5.803.256-8.704.171-2.901.427-5.717.768-8.448-4.779 8.363-10.24 16.555-16.384 24.576a647.095 647.095 0 01-18.176 23.296v2.56c0 3.755-.256 7.595-.768 11.52-1.195 1.195-3.328 2.816-6.4 4.864-3.072 2.048-5.547 3.072-7.424 3.072zm117.046-4.352c-6.315 0-10.581-1.792-12.8-5.376-2.219-3.755-3.328-8.533-3.328-14.336 0-6.144.939-12.032 2.816-17.664a335.267 335.267 0 016.144-16.896c-1.195-.853-2.304-1.963-3.328-3.328-.853-1.365-1.28-3.328-1.28-5.888 0-2.901 1.707-6.571 5.12-11.008 3.413-4.608 7.253-8.619 11.52-12.032 1.877-1.536 4.352-3.157 7.424-4.864a53.873 53.873 0 019.472-4.608c3.243-1.365 5.888-2.048 7.936-2.048 7.168 0 11.947 2.901 14.336 8.704 2.389 5.803 3.243 12.715 2.56 20.736.683-.341 1.877-.853 3.584-1.536a98.627 98.627 0 015.376-1.792c1.707-.683 2.731-1.024 3.072-1.024.853 0 1.707.427 2.56 1.28s1.28 1.707 1.28 2.56c0 .512-.256.939-.768 1.28l-16.128 6.144c-1.024 5.291-2.731 11.435-5.12 18.432-2.219 6.997-5.291 13.824-9.216 20.48-3.755 6.485-8.277 11.947-13.568 16.384-5.12 4.267-11.008 6.4-17.664 6.4zm12.288-60.16c4.267 0 8.363-.427 12.288-1.28 3.925-1.024 8.192-2.304 12.8-3.84.171-.853.256-1.792.256-2.816.171-1.024.256-1.963.256-2.816 0-2.048-.256-4.352-.768-6.912-.341-2.56-1.195-4.779-2.56-6.656-1.195-2.048-3.072-3.072-5.632-3.072-2.901 0-5.717 1.109-8.448 3.328-2.731 2.219-5.291 4.864-7.68 7.936-2.219 3.072-4.181 6.059-5.888 8.96-1.536 2.901-2.645 5.035-3.328 6.4 3.072.512 5.973.768 8.704.768zm-9.984 53.248c4.779 0 8.96-1.536 12.544-4.608 3.755-3.243 6.997-7.424 9.728-12.544s5.035-10.667 6.912-16.64c2.048-5.973 3.669-11.861 4.864-17.664-5.12 1.707-11.008 3.413-17.664 5.12-6.485 1.536-12.459 1.963-17.92 1.28-1.707 4.608-3.243 9.813-4.608 15.616-1.195 5.803-1.792 11.179-1.792 16.128 0 2.731.427 5.632 1.28 8.704 1.024 3.072 3.243 4.608 6.656 4.608zm61.36 8.96c-1.365 0-2.219-.512-2.56-1.536l2.048-4.608a40.823 40.823 0 001.792-4.864 387.525 387.525 0 008.192-27.392c2.56-9.216 5.035-18.432 7.424-27.648l2.048-7.936c0-.512-.597-.683-1.792-.512-1.195 0-1.877-.256-2.048-.768a97.01 97.01 0 003.072-9.216 154.14 154.14 0 013.328-9.472c.512-1.365 2.133-2.645 4.864-3.84 2.731-1.195 4.779-1.792 6.144-1.792 2.389 0 3.584 1.109 3.584 3.328 0 1.195-.597 3.669-1.792 7.424-1.024 3.584-2.389 7.851-4.096 12.8a389.182 389.182 0 01-5.12 14.848 1099.033 1099.033 0 01-4.864 13.824c-1.365 4.096-2.389 7.253-3.072 9.472 3.072-6.144 6.741-12.8 11.008-19.968a189.122 189.122 0 0114.08-20.48c5.12-6.485 10.581-11.605 16.384-15.36 1.877-1.195 3.584-1.792 5.12-1.792 3.584 0 6.229 1.877 7.936 5.632 1.707 3.584 2.56 6.827 2.56 9.728 0 1.024-.256 2.645-.768 4.864a24.819 24.819 0 01-2.304 5.888c-.853 1.707-1.963 2.56-3.328 2.56-1.024 0-1.707-.768-2.048-2.304a178.726 178.726 0 01-1.024-5.632c-.341-2.219-.939-4.096-1.792-5.632-.853-1.707-2.219-2.56-4.096-2.56-2.731 0-5.803 1.707-9.216 5.12-3.413 3.243-6.912 7.424-10.496 12.544-3.584 5.12-7.083 10.581-10.496 16.384a586.485 586.485 0 00-8.704 15.616c-2.389 4.779-4.096 8.448-5.12 11.008.171.512.256 1.28.256 2.304 0 1.877-.427 4.096-1.28 6.656-.683 2.389-1.451 4.523-2.304 6.4 0 1.024-.768 2.048-2.304 3.072-1.365 1.024-2.987 1.877-4.864 2.56-1.877.853-3.328 1.28-4.352 1.28zm133.138-2.048c-1.37 0-2.73-.512-4.098-1.536-1.195-1.024-1.792-2.304-1.792-3.84 0-5.291.597-11.179 1.792-17.664a400.477 400.477 0 014.608-19.456c1.71-6.656 3.16-12.629 4.35-17.92-1.36 2.56-3.67 6.229-6.91 11.008-3.243 4.779-6.997 9.984-11.264 15.616a297.847 297.847 0 01-13.312 15.872c-4.437 4.949-8.704 9.045-12.8 12.288-3.925 3.243-7.253 4.864-9.984 4.864-1.365 0-2.389-.512-3.072-1.536a7.336 7.336 0 01-.768-3.328c0-2.048.597-4.949 1.792-8.704a350.917 350.917 0 014.096-12.544c1.707-4.608 3.328-8.96 4.864-13.056 1.707-4.096 2.901-7.509 3.584-10.24l4.096-14.336h-.512c-.512 0-1.109-.171-1.792-.512-.512-.341-.768-.853-.768-1.536v-.512c.171-.171.256-.341.256-.512.853-3.413 1.451-6.997 1.792-10.752.341-3.925 1.365-7.253 3.072-9.984 1.877-2.731 5.12-4.096 9.728-4.096 2.901 0 4.352 1.451 4.352 4.352 0 2.389-.683 6.315-2.048 11.776-1.365 5.291-3.072 11.093-5.12 17.408a573.995 573.995 0 01-5.632 17.92c-1.877 5.461-3.243 9.643-4.096 12.544-.341 1.195-1.024 3.328-2.048 6.4-1.024 2.901-1.536 4.949-1.536 6.144l.256.512c.171 0 .427-.171.768-.512 6.827-4.267 13.141-10.155 18.944-17.664a188.56 188.56 0 0016.132-23.808c4.95-8.363 9.21-15.957 12.8-22.784-.17-.853-.26-1.621-.26-2.304v-2.048c0-3.755 1.54-6.315 4.61-7.68 3.24-1.365 6.4-2.048 9.47-2.048 1.02 0 2.13.171 3.33.512 1.19.341 1.79 1.195 1.79 2.56 0 .683-.17 1.365-.51 2.048-.17.512-.43 1.109-.77 1.792a192.066 192.066 0 00-8.19 18.176 493.26 493.26 0 00-6.4 18.944c-.86 2.901-1.96 6.656-3.33 11.264a171.87 171.87 0 00-3.58 13.568c-.86 4.437-1.28 8.192-1.28 11.264 0 1.195.17 2.56.51 4.096.51 1.365 1.53 2.048 3.07 2.048 1.37 0 3.16-.768 5.38-2.304 2.21-1.707 4.52-3.669 6.91-5.888 2.56-2.219 4.78-4.096 6.65-5.632 2.05-1.707 3.42-2.56 4.1-2.56.51 0 .77.427.77 1.28 0 .512-.17 1.365-.51 2.56-.35 1.024-1.03 1.963-2.05 2.816-1.88 1.707-4.52 4.011-7.94 6.912a82.31 82.31 0 01-11.01 7.424c-3.75 2.219-7.25 3.328-10.49 3.328zm45.51-1.024c-3.07 0-4.61-1.28-4.61-3.84 0-2.048 1.37-3.755 4.1-5.12 2.9-1.536 6.31-2.816 10.24-3.84 4.09-1.024 7.93-1.792 11.52-2.304 3.58-.512 6.14-.853 7.68-1.024.85-.853 1.53-1.792 2.04-2.816.52-1.195.77-2.389.77-3.584 0-1.365-.42-2.475-1.28-3.328-.68-1.024-1.62-1.877-2.81-2.56-3.08-1.877-6.92-4.352-11.52-7.424-4.61-3.072-8.71-6.485-12.29-10.24-3.42-3.925-5.12-7.936-5.12-12.032 0-2.389.6-4.267 1.79-5.632 3.07-3.925 7-8.277 11.78-13.056 4.95-4.949 10.24-9.131 15.87-12.544 5.8-3.584 11.35-5.376 16.64-5.376 4.78 0 7.68.768 8.7 2.304 1.03 1.536 1.54 4.437 1.54 8.704 0 2.901-.51 6.144-1.54 9.728-1.02 3.413-3.16 5.803-6.4 7.168h-.51c-.51 0-.85-.768-1.02-2.304v-4.608-4.608c0-2.048-.43-3.925-1.28-5.632-.86-1.877-2.48-2.816-4.87-2.816s-5.2.768-8.45 2.304c-3.24 1.365-6.48 3.328-9.72 5.888-3.08 2.389-5.64 4.949-7.68 7.68-2.05 2.731-3.08 5.376-3.08 7.936 0 4.267 1.54 7.851 4.61 10.752 3.24 2.901 7 5.461 11.27 7.68 4.26 2.219 7.93 4.523 11 6.912 3.25 2.389 4.87 5.205 4.87 8.448 0 2.389-.6 4.693-1.79 6.912a34.102 34.102 0 01-4.1 5.632c1.71-.171 3.41-.256 5.12-.256 1.88-.171 3.67-.256 5.38-.256 1.53 0 2.3.427 2.3 1.28s-.26 1.451-.77 1.792c-.51.171-1.19.341-2.05.512-2.56.341-5.2.683-7.93 1.024-2.56.341-5.12.768-7.68 1.28-4.78 4.267-9.47 7.253-14.08 8.96-4.61 1.536-10.16 2.304-16.64 2.304zM419 522.415c5.2 0 9.415-4.215 9.415-9.415 0-5.2-4.215-9.415-9.415-9.415a9.415 9.415 0 00-9.415 9.415c0 5.2 4.215 9.415 9.415 9.415z"
        fill="#fff" />
    <path
        d="M419 441c-39.764 0-72 32.236-72 72s32.236 72 72 72 72-32.236 72-72-32.236-72-72-72zm-27.452 17.907c8.241-4.19 17.571-6.553 27.452-6.553.58 0 1.155.008 1.731.024.955.026 1.611 2.399 1.467 5.269l-.733 14.774c-.144 2.87-.753 5.168-1.362 5.15-.366-.01-.734-.015-1.103-.015a35.33 35.33 0 00-14.581 3.128c-2.621 1.184-5.757.478-7.219-1.996l-7.537-12.744c-1.462-2.475-.679-5.733 1.885-7.037zm-2.946 27.101l-11.133-9.738c-2.165-1.892-2.389-5.189-.31-7.172.049-.047.096-.091.148-.138 2.087-1.978 5.359-1.575 7.123.692l9.093 11.669c1.767 2.267 2.178 4.916 1.017 6.022-1.163 1.111-3.773.557-5.938-1.335zM393.523 513c0-14.071 11.406-25.477 25.477-25.477s25.477 11.406 25.477 25.477-11.406 25.477-25.477 25.477-25.477-11.406-25.477-25.477zm52.81 54.153c-8.213 4.153-17.501 6.493-27.333 6.493-.645 0-1.288-.011-1.928-.029-1.065-.034-1.801-2.417-1.645-5.288l.807-14.771c.158-2.87.838-5.155 1.525-5.132a35.386 35.386 0 0014.719-2.628c2.659-1.093 5.92-.375 7.487 2.035l8.07 12.413c1.566 2.407.864 5.608-1.702 6.907zm14.18-9.941c-1.993 1.874-5.218 1.434-7.034-.794l-9.343-11.469c-1.816-2.227-2.279-4.809-1.132-5.868 1.151-1.059 3.756-.466 5.918 1.429l11.138 9.743c2.166 1.892 2.449 5.085.453 6.959z"
        fill="#fff" />
</svg>