<svg width="1440" height="1024" viewBox="0 0 498 49" fill="none" xmlns="http://www.w3.org/2000/svg">
    <path
        d="M14.4693 39.2C10.0853 39.2 6.69325 38.064 4.29325 35.792C1.92525 33.52 0.741253 30.448 0.741253 26.576C0.741253 21.424 2.50125 17.248 6.02125 14.048C9.57325 10.816 14.0213 9.2 19.3653 9.2C22.3413 9.2 24.5973 9.872 26.1333 11.216C27.6693 12.528 28.4373 14.272 28.4373 16.448C28.4373 19.424 26.9813 21.904 24.0693 23.888C21.1893 25.84 16.7253 26.832 10.6773 26.864C10.7733 28.912 11.2373 30.528 12.0693 31.712C12.9013 32.864 13.9413 33.44 15.1893 33.44C16.4373 33.44 17.5093 33.024 18.4053 32.192C19.3333 31.36 19.7973 30 19.7973 28.112C24.4693 28.112 26.8053 29.216 26.8053 31.424C26.8053 33.312 25.6533 35.088 23.3493 36.752C21.0453 38.384 18.0853 39.2 14.4693 39.2ZM18.5493 14.816C16.9173 14.816 15.4133 15.632 14.0373 17.264C12.6933 18.896 11.7173 20.816 11.1093 23.024C14.3093 22.768 16.7093 22.048 18.3093 20.864C19.9413 19.648 20.7573 18.368 20.7573 17.024C20.7573 16.384 20.5493 15.856 20.1333 15.44C19.7493 15.024 19.2213 14.816 18.5493 14.816ZM39.2481 39.2C37.3601 39.2 35.9681 38.704 35.0721 37.712C34.1761 36.72 33.7281 35.408 33.7281 33.776C33.7281 32.144 34.0481 29.488 34.6881 25.808C35.3601 22.128 36.0481 18.768 36.7521 15.728L34.2561 11.888C37.4241 10.096 40.3521 9.2 43.0401 9.2C45.7281 9.2 47.0721 10.416 47.0721 12.848C47.0721 14.448 46.7041 16.08 45.9681 17.744L46.4481 17.984C49.8721 12.128 54.2241 9.2 59.5041 9.2C63.3761 9.2 65.3121 11.136 65.3121 15.008C65.3121 16.672 64.8321 19.488 63.8721 23.456C62.9441 27.424 62.4801 30.416 62.4801 32.432C62.4801 34.448 62.8161 35.92 63.4881 36.848C61.7921 38.416 60.0001 39.2 58.1121 39.2C54.4321 39.2 52.5921 37.216 52.5921 33.248C52.5921 31.776 53.0721 29.28 54.0321 25.76C54.9921 22.24 55.4721 19.952 55.4721 18.896C55.4721 17.456 54.9281 16.736 53.8401 16.736C52.9441 16.736 51.9201 17.136 50.7681 17.936C49.6161 18.704 48.4961 19.76 47.4081 21.104C46.3521 22.416 45.4561 24.096 44.7201 26.144C43.9841 28.16 43.6161 30.224 43.6161 32.336C43.6161 34.416 43.9521 35.92 44.6241 36.848C42.9281 38.416 41.1361 39.2 39.2481 39.2ZM89.1591 34.496L88.6791 34.256C86.1831 37.552 83.2071 39.2 79.7511 39.2C77.1911 39.2 75.0151 38.192 73.2231 36.176C71.4631 34.128 70.5831 31.376 70.5831 27.92C70.5831 23.632 72.0871 19.728 75.0951 16.208C76.5671 14.48 78.5351 13.088 80.9991 12.032C83.4631 10.944 86.2151 10.4 89.2551 10.4C89.8311 10.4 90.8551 10.464 92.3271 10.592C92.3911 9.92 92.5351 9.104 92.7591 8.144L90.0711 4.304C94.0711 1.968 97.2231 0.799998 99.5271 0.799998C100.839 0.799998 101.767 1.072 102.311 1.616C102.855 2.128 103.127 3.12 103.127 4.592C103.127 6.032 102.407 10.128 100.967 16.88C99.5591 23.632 98.8551 28.432 98.8551 31.28C98.8551 34.096 99.3511 35.952 100.343 36.848C98.5511 38.416 96.6791 39.2 94.7271 39.2C92.8071 39.2 91.3991 38.72 90.5031 37.76C89.6071 36.768 89.1591 35.68 89.1591 34.496ZM79.6071 26.096C79.6071 27.92 80.0711 29.36 80.9991 30.416C81.9591 31.472 83.1431 32 84.5511 32C86.3751 32 88.0391 31.136 89.5431 29.408C90.0551 23.712 90.7751 18.784 91.7031 14.624C88.0231 14.624 85.0791 15.808 82.8711 18.176C80.6951 20.544 79.6071 23.184 79.6071 26.096ZM112.441 8.144L109.753 4.304C113.753 1.968 116.905 0.799998 119.209 0.799998C120.521 0.799998 121.449 1.072 121.993 1.616C122.537 2.128 122.809 3.12 122.809 4.592C122.809 6.032 122.089 10.128 120.649 16.88C119.241 23.632 118.537 28.368 118.537 31.088C118.537 33.808 119.033 35.728 120.025 36.848C117.785 38.416 115.753 39.2 113.929 39.2C112.105 39.2 110.761 38.608 109.897 37.424C109.065 36.208 108.649 34.544 108.649 32.432C108.649 30.32 109.241 26 110.425 19.472C111.609 12.944 112.281 9.168 112.441 8.144ZM140.606 39.2C136.222 39.2 132.83 38.064 130.43 35.792C128.062 33.52 126.878 30.448 126.878 26.576C126.878 21.424 128.638 17.248 132.158 14.048C135.71 10.816 140.158 9.2 145.502 9.2C148.478 9.2 150.734 9.872 152.27 11.216C153.806 12.528 154.574 14.272 154.574 16.448C154.574 19.424 153.118 21.904 150.206 23.888C147.326 25.84 142.862 26.832 136.814 26.864C136.91 28.912 137.374 30.528 138.206 31.712C139.038 32.864 140.078 33.44 141.326 33.44C142.574 33.44 143.646 33.024 144.542 32.192C145.47 31.36 145.934 30 145.934 28.112C150.606 28.112 152.942 29.216 152.942 31.424C152.942 33.312 151.79 35.088 149.486 36.752C147.182 38.384 144.222 39.2 140.606 39.2ZM144.686 14.816C143.054 14.816 141.55 15.632 140.174 17.264C138.83 18.896 137.854 20.816 137.246 23.024C140.446 22.768 142.846 22.048 144.446 20.864C146.078 19.648 146.894 18.368 146.894 17.024C146.894 16.384 146.686 15.856 146.27 15.44C145.886 15.024 145.358 14.816 144.686 14.816ZM175.177 15.584C173.993 15.936 173.049 16.448 172.345 17.12C171.641 17.76 171.017 18.688 170.473 19.904C175.881 20.704 179.689 21.856 181.897 23.36C184.105 24.864 185.209 27.008 185.209 29.792C185.209 31.552 184.713 33.088 183.721 34.4C182.729 35.68 181.481 36.656 179.977 37.328C177.033 38.576 174.137 39.2 171.289 39.2C163.193 39.2 159.145 37.456 159.145 33.968C159.145 32.208 159.929 30.448 161.497 28.688C162.297 29.808 163.497 30.768 165.097 31.568C166.729 32.368 168.313 32.768 169.849 32.768C172.505 32.768 174.105 31.6 174.649 29.264C169.785 28.688 166.265 27.6 164.089 26C161.913 24.4 160.825 22.144 160.825 19.232C160.825 16.928 161.577 14.992 163.081 13.424C164.617 11.856 166.505 10.768 168.745 10.16C171.017 9.52 173.561 9.2 176.377 9.2C179.225 9.2 181.561 9.744 183.385 10.832C185.241 11.888 186.169 13.184 186.169 14.72C186.169 16.256 185.625 17.44 184.537 18.272C183.481 19.104 182.313 19.52 181.033 19.52C179.785 19.52 178.633 19.184 177.577 18.512C176.553 17.84 175.753 16.864 175.177 15.584ZM206.981 15.584C205.797 15.936 204.853 16.448 204.149 17.12C203.445 17.76 202.821 18.688 202.277 19.904C207.685 20.704 211.493 21.856 213.701 23.36C215.909 24.864 217.013 27.008 217.013 29.792C217.013 31.552 216.517 33.088 215.525 34.4C214.533 35.68 213.285 36.656 211.781 37.328C208.837 38.576 205.941 39.2 203.093 39.2C194.997 39.2 190.949 37.456 190.949 33.968C190.949 32.208 191.733 30.448 193.301 28.688C194.101 29.808 195.301 30.768 196.901 31.568C198.533 32.368 200.117 32.768 201.653 32.768C204.309 32.768 205.909 31.6 206.453 29.264C201.589 28.688 198.069 27.6 195.893 26C193.717 24.4 192.629 22.144 192.629 19.232C192.629 16.928 193.381 14.992 194.885 13.424C196.421 11.856 198.309 10.768 200.549 10.16C202.821 9.52 205.365 9.2 208.181 9.2C211.029 9.2 213.365 9.744 215.189 10.832C217.045 11.888 217.973 13.184 217.973 14.72C217.973 16.256 217.429 17.44 216.341 18.272C215.285 19.104 214.117 19.52 212.837 19.52C211.589 19.52 210.437 19.184 209.381 18.512C208.357 17.84 207.557 16.864 206.981 15.584ZM252.071 39.2C247.687 39.2 244.295 38.064 241.895 35.792C239.527 33.52 238.343 30.448 238.343 26.576C238.343 21.424 240.103 17.248 243.623 14.048C247.175 10.816 251.623 9.2 256.967 9.2C259.943 9.2 262.199 9.872 263.735 11.216C265.271 12.528 266.039 14.272 266.039 16.448C266.039 19.424 264.583 21.904 261.671 23.888C258.791 25.84 254.327 26.832 248.279 26.864C248.375 28.912 248.839 30.528 249.671 31.712C250.503 32.864 251.543 33.44 252.791 33.44C254.039 33.44 255.111 33.024 256.007 32.192C256.935 31.36 257.399 30 257.399 28.112C262.071 28.112 264.407 29.216 264.407 31.424C264.407 33.312 263.255 35.088 260.951 36.752C258.647 38.384 255.687 39.2 252.071 39.2ZM256.151 14.816C254.519 14.816 253.015 15.632 251.639 17.264C250.295 18.896 249.319 20.816 248.711 23.024C251.911 22.768 254.311 22.048 255.911 20.864C257.543 19.648 258.359 18.368 258.359 17.024C258.359 16.384 258.151 15.856 257.735 15.44C257.351 15.024 256.823 14.816 256.151 14.816ZM270.85 26.576C270.85 21.456 272.61 17.28 276.13 14.048C279.65 10.816 284.082 9.2 289.426 9.2C292.178 9.2 294.354 9.728 295.954 10.784C297.554 11.808 298.354 13.104 298.354 14.672C298.354 16.24 297.81 17.44 296.722 18.272C295.666 19.104 294.498 19.52 293.218 19.52C291.97 19.52 290.818 19.184 289.762 18.512C288.738 17.84 287.938 16.864 287.362 15.584C285.346 16.416 283.746 17.888 282.562 20C281.41 22.112 280.834 24.224 280.834 26.336C280.834 28.448 281.25 30.16 282.082 31.472C282.914 32.784 284.002 33.44 285.346 33.44C286.69 33.44 287.778 32.992 288.61 32.096C289.474 31.2 289.906 29.872 289.906 28.112C294.578 28.112 296.914 29.216 296.914 31.424C296.914 33.312 295.73 35.088 293.362 36.752C290.994 38.384 287.874 39.2 284.002 39.2C280.13 39.2 276.962 38.048 274.498 35.744C272.066 33.408 270.85 30.352 270.85 26.576ZM326.083 12.848C327.875 12.848 329.411 13.568 330.691 15.008C332.003 16.448 332.659 18.544 332.659 21.296C332.659 24.016 332.179 26.544 331.219 28.88C330.259 31.184 328.995 33.072 327.427 34.544C325.859 36.016 324.083 37.168 322.099 38C320.115 38.8 318.083 39.2 316.003 39.2C311.811 39.2 308.499 38.048 306.067 35.744C303.635 33.44 302.419 30.384 302.419 26.576C302.419 21.424 304.067 17.248 307.363 14.048C310.691 10.816 314.915 9.2 320.035 9.2C321.187 9.2 322.339 9.328 323.491 9.584C323.843 10.64 324.035 11.84 324.067 13.184C324.739 12.96 325.411 12.848 326.083 12.848ZM320.179 19.52C320.179 18.624 320.387 17.616 320.803 16.496C321.251 15.376 321.955 14.48 322.915 13.808C318.691 14.704 315.779 16.416 314.179 18.944C312.803 21.12 312.115 23.36 312.115 25.664C312.115 27.968 312.579 29.824 313.507 31.232C314.467 32.608 315.683 33.296 317.155 33.296C320.419 33.296 322.723 31.168 324.067 26.912C321.475 25.312 320.179 22.848 320.179 19.52ZM336.732 23.312C336.732 17.232 338.428 12.368 341.82 8.72C345.212 5.04 349.852 3.2 355.74 3.2C357.628 3.2 358.972 3.584 359.772 4.352C360.604 5.088 361.02 6.24 361.02 7.808C361.02 8.032 360.988 8.464 360.924 9.104C362.108 8.144 363.42 7.664 364.86 7.664C366.812 7.664 368.476 8.544 369.852 10.304C371.26 12.032 371.964 14.528 371.964 17.792C371.964 23.616 370.476 28.384 367.5 32.096C364.556 35.808 360.908 38.064 356.556 38.864V39.152C358.476 39.408 359.948 39.536 360.972 39.536C364.108 39.536 366.972 39.056 369.564 38.096C369.916 39.056 370.092 40.112 370.092 41.264C370.092 43.184 369.5 44.784 368.316 46.064C367.132 47.376 365.404 48.032 363.132 48.032C358.908 48.032 353.868 46.352 348.012 42.992C346.476 45.072 344.508 46.112 342.108 46.112C340.86 46.112 339.884 45.696 339.18 44.864C338.476 44.064 338.124 43.088 338.124 41.936C338.124 40.784 338.62 39.728 339.612 38.768C340.636 37.808 342.076 37.328 343.932 37.328V36.944C341.596 35.6 339.804 33.76 338.556 31.424C337.34 29.056 336.732 26.352 336.732 23.312ZM360.684 25.568C358.636 23.072 357.612 20.384 357.612 17.504C357.612 14.624 358.252 12.304 359.532 10.544C358.956 10.448 358.38 10.4 357.804 10.4C355.532 10.4 353.564 11.088 351.9 12.464C348.764 15.024 347.196 18.576 347.196 23.12C347.196 25.712 347.772 27.872 348.924 29.6C350.076 31.328 351.676 32.192 353.724 32.192C355.292 32.192 356.716 31.584 357.996 30.368C359.308 29.12 360.204 27.52 360.684 25.568ZM384.368 39.2C381.552 39.2 379.584 38.512 378.464 37.136C377.344 35.76 376.784 34.032 376.784 31.952C376.784 29.84 377.136 26.96 377.84 23.312C378.544 19.664 378.896 17.024 378.896 15.392C378.896 13.76 378.56 12.48 377.888 11.552C380.864 9.984 383.376 9.2 385.424 9.2C386.736 9.2 387.68 9.472 388.256 10.016C388.864 10.528 389.168 11.376 389.168 12.56C389.168 13.744 388.672 16.656 387.68 21.296C386.72 25.904 386.24 28.752 386.24 29.84C386.24 30.928 386.544 31.792 387.152 32.432C387.76 33.04 388.56 33.344 389.552 33.344C390.544 33.344 391.6 32.96 392.72 32.192C393.84 31.392 394.752 30.272 395.456 28.832C395.904 26.24 396.784 22.144 398.096 16.544L395.216 12.704C398.448 10.368 401.52 9.2 404.432 9.2C405.872 9.2 406.896 9.472 407.504 10.016C408.144 10.528 408.464 11.328 408.464 12.416C408.464 13.472 407.872 16.528 406.688 21.584C405.536 26.64 404.96 30.24 404.96 32.384C404.96 34.496 405.456 35.984 406.448 36.848C404.656 38.416 402.768 39.2 400.784 39.2C398.832 39.2 397.424 38.768 396.56 37.904C395.696 37.04 395.264 35.904 395.264 34.496L394.784 34.256C393.728 35.792 392.256 37.008 390.368 37.904C388.512 38.768 386.512 39.2 384.368 39.2ZM427.168 39.2C422.784 39.2 419.392 38.064 416.992 35.792C414.624 33.52 413.44 30.448 413.44 26.576C413.44 21.424 415.2 17.248 418.72 14.048C422.272 10.816 426.72 9.2 432.064 9.2C435.04 9.2 437.296 9.872 438.832 11.216C440.368 12.528 441.136 14.272 441.136 16.448C441.136 19.424 439.68 21.904 436.768 23.888C433.888 25.84 429.424 26.832 423.376 26.864C423.472 28.912 423.936 30.528 424.768 31.712C425.6 32.864 426.64 33.44 427.888 33.44C429.136 33.44 430.208 33.024 431.104 32.192C432.032 31.36 432.496 30 432.496 28.112C437.168 28.112 439.504 29.216 439.504 31.424C439.504 33.312 438.352 35.088 436.048 36.752C433.744 38.384 430.784 39.2 427.168 39.2ZM431.248 14.816C429.616 14.816 428.112 15.632 426.736 17.264C425.392 18.896 424.416 20.816 423.808 23.024C427.008 22.768 429.408 22.048 431.008 20.864C432.64 19.648 433.456 18.368 433.456 17.024C433.456 16.384 433.248 15.856 432.832 15.44C432.448 15.024 431.92 14.816 431.248 14.816ZM461.739 15.584C460.555 15.936 459.611 16.448 458.907 17.12C458.203 17.76 457.579 18.688 457.035 19.904C462.443 20.704 466.251 21.856 468.459 23.36C470.667 24.864 471.771 27.008 471.771 29.792C471.771 31.552 471.275 33.088 470.283 34.4C469.291 35.68 468.043 36.656 466.539 37.328C463.595 38.576 460.699 39.2 457.851 39.2C449.755 39.2 445.707 37.456 445.707 33.968C445.707 32.208 446.491 30.448 448.059 28.688C448.859 29.808 450.059 30.768 451.659 31.568C453.291 32.368 454.875 32.768 456.411 32.768C459.067 32.768 460.667 31.6 461.211 29.264C456.347 28.688 452.827 27.6 450.651 26C448.475 24.4 447.387 22.144 447.387 19.232C447.387 16.928 448.139 14.992 449.643 13.424C451.179 11.856 453.067 10.768 455.307 10.16C457.579 9.52 460.123 9.2 462.939 9.2C465.787 9.2 468.123 9.744 469.947 10.832C471.803 11.888 472.731 13.184 472.731 14.72C472.731 16.256 472.187 17.44 471.099 18.272C470.043 19.104 468.875 19.52 467.595 19.52C466.347 19.52 465.195 19.184 464.139 18.512C463.115 17.84 462.315 16.864 461.739 15.584ZM478.807 20.672C478.583 19.776 478.471 18.944 478.471 18.176C478.471 16.608 478.935 15.424 479.863 14.624C480.791 13.824 481.991 13.424 483.463 13.424C483.463 11.76 483.031 9.952 482.167 8C483.735 6.848 485.159 5.984 486.439 5.408C487.751 4.8 489.127 4.496 490.567 4.496C492.007 4.496 492.999 4.768 493.543 5.312C494.119 5.824 494.407 6.624 494.407 7.712C494.407 8.8 494.183 10.496 493.735 12.8C495.015 12.608 496.311 12.336 497.623 11.984C497.847 12.656 497.959 13.52 497.959 14.576C497.959 15.632 497.543 16.624 496.711 17.552C495.911 18.448 494.727 18.896 493.159 18.896H492.439C491.287 24.112 490.711 28.128 490.711 30.944C490.711 33.76 491.207 35.728 492.199 36.848C490.407 38.416 488.503 39.2 486.487 39.2C484.471 39.2 483.015 38.608 482.119 37.424C481.255 36.208 480.823 34.336 480.823 31.808C480.823 30.272 481.383 26.24 482.503 19.712C481.223 19.936 479.991 20.256 478.807 20.672Z"
        fill="rgb(200, 255, 0)" />
</svg>