<svg width="1440" height="1024" viewBox="0 0 1440 1024" fill="none" xmlns="http://www.w3.org/2000/svg">
    <path
        d="M723.938 507V473.484H728.273L748.781 500.484V473.484H752.883V507H748.547L728.039 479.766V507H723.938ZM765.57 494.602C765.57 500.523 768.031 503.484 772.953 503.484C777.875 503.484 780.336 500.523 780.336 494.602C780.336 488.805 777.875 485.906 772.953 485.906C768.031 485.906 765.57 488.805 765.57 494.602ZM761.234 494.695C761.234 486.492 765.141 482.391 772.953 482.391C780.766 482.391 784.672 486.492 784.672 494.695C784.672 502.883 780.766 506.977 772.953 506.977C765.172 506.977 761.266 502.883 761.234 494.695ZM792.531 507V482.391H795.461L796.234 485.531C798.391 483.438 800.984 482.391 804.016 482.391V486C801.078 486 798.695 487.039 796.867 489.117V507H792.531ZM810.375 507V482.391H813.305L814.031 485.484C816.391 483.422 818.961 482.391 821.742 482.391C825.305 482.391 827.734 483.516 829.031 485.766C831.703 483.516 834.414 482.391 837.164 482.391C842.82 482.391 845.648 485.508 845.648 491.742V507H841.312V491.508C841.312 487.836 839.766 486 836.672 486C834.359 486 832.195 487.062 830.18 489.188V507H825.844V491.578C825.844 487.859 824.312 486 821.25 486C818.812 486 816.633 487.062 814.711 489.188V507H810.375ZM853.531 499.57C853.531 494.523 856.859 492 863.516 492C865.656 492 867.797 492.156 869.938 492.469V490.148C869.938 487.32 867.727 485.906 863.305 485.906C860.773 485.906 858.18 486.297 855.523 487.078V483.562C858.18 482.781 860.773 482.391 863.305 482.391C870.617 482.391 874.273 484.938 874.273 490.031V507H871.836L870.336 504.562C867.883 506.188 865.211 507 862.32 507C856.461 507 853.531 504.523 853.531 499.57ZM863.516 495.516C859.75 495.516 857.867 496.844 857.867 499.5C857.867 502.156 859.352 503.484 862.32 503.484C865.32 503.484 867.859 502.688 869.938 501.094V495.984C867.797 495.672 865.656 495.516 863.516 495.516ZM887.898 473.484V507H883.562V473.484H887.898ZM909.734 482.508C909.734 476.492 913.719 473.484 921.688 473.484C924.578 473.484 927.391 473.875 930.125 474.656V478.172C927.391 477.391 924.68 477 921.992 477C916.711 477 914.07 478.797 914.07 482.391C914.07 486.297 916.062 488.25 920.047 488.25H929.141V484.922H930.617L933.008 488.25H937.273V491.766H933.477V495.516C933.477 503.219 929.43 507.07 921.336 507.07C913.602 507.07 909.734 503.969 909.734 497.766C909.734 493.906 911.242 491.305 914.258 489.961C911.242 488.633 909.734 486.148 909.734 482.508ZM920.094 491.766C916.078 491.766 914.07 493.727 914.07 497.648C914.07 501.539 916.422 503.484 921.125 503.484C926.469 503.484 929.141 500.812 929.141 495.469V491.766H920.094ZM957 507V473.484H971.297C977.672 473.484 980.859 476.086 980.859 481.289C980.859 485.102 978.781 487.828 974.625 489.469C979.062 490.297 981.281 492.836 981.281 497.086C981.281 503.695 977.789 507 970.805 507H957ZM970.547 503.484C974.547 503.484 976.547 501.453 976.547 497.391C976.547 493.438 973.867 491.461 968.508 491.461H966.633V488.625C973.039 487.766 976.242 485.453 976.242 481.688C976.242 478.562 974.461 477 970.898 477H961.336V503.484H970.547ZM994.508 482.391V507H990.172V482.391H994.508ZM994.508 473.484V477.586H990.172V473.484H994.508ZM1004.03 507V482.391H1006.96L1007.73 485.531C1010.25 483.438 1013.02 482.391 1016.03 482.391C1022.17 482.391 1025.24 485.445 1025.24 491.555V507H1020.91V491.484C1020.91 487.828 1019.09 486 1015.45 486C1012.96 486 1010.6 487.039 1008.37 489.117V507H1004.03ZM1037.46 494.602C1037.46 500.523 1039.92 503.484 1044.84 503.484C1049.77 503.484 1052.23 500.523 1052.23 494.602C1052.23 488.805 1049.77 485.906 1044.84 485.906C1039.92 485.906 1037.46 488.805 1037.46 494.602ZM1033.12 494.695C1033.12 486.492 1037.03 482.391 1044.84 482.391C1052.66 482.391 1056.56 486.492 1056.56 494.695C1056.56 502.883 1052.66 506.977 1044.84 506.977C1037.06 506.977 1033.16 502.883 1033.12 494.695ZM1064.42 507V482.391H1067.35L1068.08 485.484C1070.44 483.422 1073.01 482.391 1075.79 482.391C1079.35 482.391 1081.78 483.516 1083.08 485.766C1085.75 483.516 1088.46 482.391 1091.21 482.391C1096.87 482.391 1099.7 485.508 1099.7 491.742V507H1095.36V491.508C1095.36 487.836 1093.81 486 1090.72 486C1088.41 486 1086.24 487.062 1084.23 489.188V507H1079.89V491.578C1079.89 487.859 1078.36 486 1075.3 486C1072.86 486 1070.68 487.062 1068.76 489.188V507H1064.42ZM1113.55 482.391V507H1109.22V482.391H1113.55ZM1113.55 473.484V477.586H1109.22V473.484H1113.55ZM1121.91 499.57C1121.91 494.523 1125.23 492 1131.89 492C1134.03 492 1136.17 492.156 1138.31 492.469V490.148C1138.31 487.32 1136.1 485.906 1131.68 485.906C1129.15 485.906 1126.55 486.297 1123.9 487.078V483.562C1126.55 482.781 1129.15 482.391 1131.68 482.391C1138.99 482.391 1142.65 484.938 1142.65 490.031V507H1140.21L1138.71 504.562C1136.26 506.188 1133.59 507 1130.7 507C1124.84 507 1121.91 504.523 1121.91 499.57ZM1131.89 495.516C1128.12 495.516 1126.24 496.844 1126.24 499.5C1126.24 502.156 1127.73 503.484 1130.7 503.484C1133.7 503.484 1136.23 502.688 1138.31 501.094V495.984C1136.17 495.672 1134.03 495.516 1131.89 495.516ZM1156.27 473.484V507H1151.94V473.484H1156.27ZM705.641 557.484C713.844 557.484 717.945 552.766 717.945 543.328C717.945 535.109 713.844 531 705.641 531H697.789V557.484H705.641ZM693.453 561V527.484H705.641C716.734 527.484 722.281 532.766 722.281 543.328C722.281 555.109 716.734 561 705.641 561H693.453ZM734.945 536.391V561H730.609V536.391H734.945ZM734.945 527.484V531.586H730.609V527.484H734.945ZM744.234 559.828V556.078C747.125 557.016 750.047 557.484 753 557.484C756.922 557.484 758.883 556.312 758.883 553.969C758.883 551.781 757.516 550.688 754.781 550.688H751.266C745.953 550.688 743.297 548.266 743.297 543.422C743.297 538.734 746.711 536.391 753.539 536.391C756.477 536.391 759.391 536.781 762.281 537.562V541.312C759.391 540.375 756.477 539.906 753.539 539.906C749.445 539.906 747.398 541.078 747.398 543.422C747.398 545.609 748.688 546.703 751.266 546.703H754.781C760.406 546.703 763.219 549.125 763.219 553.969C763.219 558.656 759.812 561 753 561C750.047 561 747.125 560.609 744.234 559.828ZM771.078 532.406H773.797L774.734 536.391H781.391V539.906H775.414V554.039C775.414 556.336 776.406 557.484 778.391 557.484H781.391V561H777.266C773.141 561 771.078 558.789 771.078 554.367V532.406ZM788.922 561V536.391H791.852L792.625 539.531C794.781 537.438 797.375 536.391 800.406 536.391V540C797.469 540 795.086 541.039 793.258 543.117V561H788.922ZM811.57 536.391V561H807.234V536.391H811.57ZM811.57 527.484V531.586H807.234V527.484H811.57ZM825.43 556.711C826.852 557.164 828.578 557.391 830.609 557.391C836.078 557.391 838.812 554.273 838.812 548.039C838.812 542.773 836.336 540.141 831.383 540.141C829.133 540.141 827.148 540.562 825.43 541.406V556.711ZM821.094 527.484H825.43V537.562C827.289 536.781 829.281 536.391 831.406 536.391C839.188 536.391 843.078 540.328 843.078 548.203C843.078 556.734 838.992 561 830.82 561C827.289 561 824.047 560.664 821.094 559.992V527.484ZM872.148 536.391V561H869.172L868.422 557.859C865.438 559.953 862.438 561 859.422 561C853.766 561 850.938 557.945 850.938 551.836V536.391H855.273V551.906C855.273 555.562 857.086 557.391 860.711 557.391C863.195 557.391 865.562 556.352 867.812 554.273V536.391H872.148ZM881.203 532.406H883.922L884.859 536.391H891.516V539.906H885.539V554.039C885.539 556.336 886.531 557.484 888.516 557.484H891.516V561H887.391C883.266 561 881.203 558.789 881.203 554.367V532.406ZM903.852 536.391V561H899.516V536.391H903.852ZM903.852 527.484V531.586H899.516V527.484H903.852ZM916.539 548.602C916.539 554.523 919 557.484 923.922 557.484C928.844 557.484 931.305 554.523 931.305 548.602C931.305 542.805 928.844 539.906 923.922 539.906C919 539.906 916.539 542.805 916.539 548.602ZM912.203 548.695C912.203 540.492 916.109 536.391 923.922 536.391C931.734 536.391 935.641 540.492 935.641 548.695C935.641 556.883 931.734 560.977 923.922 560.977C916.141 560.977 912.234 556.883 912.203 548.695ZM943.5 561V536.391H946.43L947.203 539.531C949.719 537.438 952.484 536.391 955.5 536.391C961.641 536.391 964.711 539.445 964.711 545.555V561H960.375V545.484C960.375 541.828 958.555 540 954.914 540C952.43 540 950.07 541.039 947.836 543.117V561H943.5ZM989.055 561H984.555L998.781 527.484H1003.59L1017.88 561H1013.08L1008.74 550.453H997.656L998.852 546.938H1007.29L1001.03 531.75L989.055 561ZM1023.98 561V536.391H1026.91L1027.69 539.531C1030.2 537.438 1032.97 536.391 1035.98 536.391C1042.12 536.391 1045.2 539.445 1045.2 545.555V561H1040.86V545.484C1040.86 541.828 1039.04 540 1035.4 540C1032.91 540 1030.55 541.039 1028.32 543.117V561H1023.98ZM1053.08 553.57C1053.08 548.523 1056.41 546 1063.06 546C1065.2 546 1067.34 546.156 1069.48 546.469V544.148C1069.48 541.32 1067.27 539.906 1062.85 539.906C1060.32 539.906 1057.73 540.297 1055.07 541.078V537.562C1057.73 536.781 1060.32 536.391 1062.85 536.391C1070.16 536.391 1073.82 538.938 1073.82 544.031V561H1071.38L1069.88 558.562C1067.43 560.188 1064.76 561 1061.87 561C1056.01 561 1053.08 558.523 1053.08 553.57ZM1063.06 549.516C1059.3 549.516 1057.41 550.844 1057.41 553.5C1057.41 556.156 1058.9 557.484 1061.87 557.484C1064.87 557.484 1067.41 556.688 1069.48 555.094V549.984C1067.34 549.672 1065.2 549.516 1063.06 549.516ZM1087.45 527.484V561H1083.11V527.484H1087.45ZM1093.8 536.391H1098.52L1105.48 555.609L1112.67 536.391H1117.27L1107.05 561.727C1105.23 566.195 1102.52 568.984 1098.89 570.094L1097.23 567.023C1099.98 565.82 1101.98 563.859 1103.23 561.141L1093.8 536.391ZM1122.64 536.391H1141.86V539.906L1127.16 557.719H1141.39V561H1122.17V557.719L1137.05 539.906H1122.64V536.391ZM1159.87 536.391C1166.87 536.391 1170.37 539.852 1170.37 546.773C1170.37 547.758 1170.3 548.812 1170.16 549.938H1152.88C1152.88 554.969 1155.82 557.484 1161.7 557.484C1164.49 557.484 1166.98 557.172 1169.15 556.547V560.062C1166.98 560.688 1164.34 561 1161.23 561C1152.77 561 1148.55 556.805 1148.55 548.414C1148.55 540.398 1152.32 536.391 1159.87 536.391ZM1152.88 546.328H1166.2C1166.1 542.016 1163.99 539.859 1159.87 539.859C1155.49 539.859 1153.16 542.016 1152.88 546.328ZM1178.2 561V536.391H1181.13L1181.91 539.531C1184.06 537.438 1186.66 536.391 1189.69 536.391V540C1186.75 540 1184.37 541.039 1182.54 543.117V561H1178.2Z"
        fill="white" />
    <path
        d="M657 604H482V429C482 425.134 478.869 422 475 422C471.131 422 468 425.134 468 429V611C468 614.866 471.131 618 475 618H657C660.869 618 664 614.866 664 611C664 607.134 660.869 604 657 604Z"
        fill="white" />
    <path d="M608 485.02L599.92 447.925C596.867 433.906 586.041 423.88 573 422.318V596.998H608V485.02Z" fill="white" />
    <path d="M617 526.344L615 517.16V597H650C634.048 576.717 622.703 552.532 617 526.344Z" fill="white" />
    <path d="M566 422.319C552.959 423.88 542.133 433.906 539.08 447.925L531 485.02V597H566V422.319Z" fill="white" />
    <path d="M524 517.16L522 526.344C516.297 552.534 504.952 576.716 489 597H524V517.16Z" fill="white" />
</svg>