<svg width="1440" height="1024" viewBox="0 0 1440 1024" fill="none" xmlns="http://www.w3.org/2000/svg">
<path d="M673.469 481V457.875H676.688L688.328 475.734V457.875H691.141V481H687.938L676.281 463.141V481H673.469ZM705.969 481.391C704.354 481.391 702.948 481.062 701.75 480.406C700.562 479.74 699.62 478.698 698.922 477.281C698.224 475.854 697.875 474.266 697.875 472.516C697.875 470.87 698.193 469.344 698.828 467.938C699.464 466.521 700.385 465.453 701.594 464.734C702.812 464.016 704.271 463.656 705.969 463.656C707.583 463.656 708.99 463.984 710.188 464.641C711.385 465.297 712.328 466.339 713.016 467.766C713.714 469.193 714.062 470.776 714.062 472.516C714.062 474.182 713.74 475.724 713.094 477.141C712.448 478.547 711.521 479.609 710.312 480.328C709.115 481.036 707.667 481.391 705.969 481.391ZM705.969 479.078C707.5 479.078 708.688 478.51 709.531 477.375C710.375 476.229 710.797 474.609 710.797 472.516C710.797 470.411 710.37 468.797 709.516 467.672C708.672 466.536 707.49 465.969 705.969 465.969C704.448 465.969 703.266 466.536 702.422 467.672C701.578 468.797 701.156 470.411 701.156 472.516C701.156 474.609 701.578 476.229 702.422 477.375C703.266 478.51 704.448 479.078 705.969 479.078ZM720.875 481V464.031H723.953V467.219C724.536 466.083 725.292 465.208 726.219 464.594C727.156 463.969 728.172 463.656 729.266 463.656C729.578 463.656 729.906 463.682 730.25 463.734V466.609C729.729 466.432 729.26 466.344 728.844 466.344C727.875 466.344 726.979 466.635 726.156 467.219C725.344 467.792 724.609 468.656 723.953 469.812V481H720.875ZM735.969 481V464.031H739.047V467.219C739.672 466.229 740.469 465.391 741.438 464.703C742.417 464.005 743.547 463.656 744.828 463.656C745.568 463.656 746.214 463.776 746.766 464.016C747.318 464.255 747.818 464.594 748.266 465.031C748.714 465.469 749.115 466.198 749.469 467.219C750.094 466.198 750.885 465.349 751.844 464.672C752.812 463.984 753.917 463.641 755.156 463.641C756.365 463.641 757.453 464.016 758.422 464.766C759.391 465.516 759.875 466.812 759.875 468.656V481H756.781V469.141C756.781 468.016 756.542 467.25 756.062 466.844C755.594 466.438 755.068 466.234 754.484 466.234C753.755 466.234 752.995 466.464 752.203 466.922C751.422 467.37 750.51 468.271 749.469 469.625V481H746.375V469.141C746.375 468.005 746.135 467.234 745.656 466.828C745.177 466.422 744.635 466.219 744.031 466.219C743.292 466.219 742.542 466.443 741.781 466.891C741.031 467.339 740.12 468.25 739.047 469.625V481H735.969ZM776.594 478.844C775.677 479.688 774.771 480.323 773.875 480.75C772.99 481.177 772.12 481.391 771.266 481.391C770.068 481.391 768.953 480.995 767.922 480.203C766.891 479.411 766.375 478.255 766.375 476.734C766.375 475.068 767.094 473.693 768.531 472.609C769.969 471.516 772.266 470.969 775.422 470.969H776.141V468.922C776.141 468.109 776.031 467.521 775.812 467.156C775.594 466.781 775.25 466.49 774.781 466.281C774.323 466.073 773.75 465.969 773.062 465.969C771.469 465.969 769.729 466.469 767.844 467.469V464.922C769.917 464.078 771.87 463.656 773.703 463.656C774.703 463.656 775.62 463.818 776.453 464.141C777.297 464.453 777.969 464.953 778.469 465.641C778.969 466.318 779.219 467.411 779.219 468.922V476.609C779.219 477.464 779.286 478.042 779.422 478.344C779.557 478.635 779.745 478.859 779.984 479.016C780.234 479.172 780.521 479.25 780.844 479.25C780.979 479.25 781.177 479.229 781.438 479.188L781.656 480.891C780.958 481.224 780.188 481.391 779.344 481.391C778.781 481.391 778.24 481.208 777.719 480.844C777.198 480.479 776.823 479.812 776.594 478.844ZM776.141 477.172V472.781L775.156 472.75C773.542 472.75 772.188 473.062 771.094 473.688C770 474.312 769.453 475.161 769.453 476.234C769.453 476.974 769.719 477.599 770.25 478.109C770.792 478.62 771.422 478.875 772.141 478.875C772.786 478.875 773.443 478.734 774.109 478.453C774.776 478.161 775.453 477.734 776.141 477.172ZM787.531 481V456.328H790.609V481H787.531ZM824.406 481L823.266 479.625C821.557 480.927 819.562 481.578 817.281 481.578C815.76 481.578 814.354 481.276 813.062 480.672C811.781 480.057 810.781 479.156 810.062 477.969C809.344 476.781 808.984 475.5 808.984 474.125C808.984 472.677 809.401 471.286 810.234 469.953C811.068 468.609 812.531 467.583 814.625 466.875C813.583 464.99 813.062 463.422 813.062 462.172C813.062 461.307 813.307 460.5 813.797 459.75C814.286 458.99 814.958 458.391 815.812 457.953C816.677 457.516 817.625 457.297 818.656 457.297C820.167 457.297 821.406 457.75 822.375 458.656C823.344 459.562 823.828 460.667 823.828 461.969C823.828 464.281 822.135 466.292 818.75 468C820.302 470.75 822.109 473.318 824.172 475.703C824.557 475.141 824.833 474.625 825 474.156C825.177 473.677 825.318 473.047 825.422 472.266C825.536 471.484 825.594 470.672 825.594 469.828L825.578 468.703H828.641C828.641 472.12 827.62 475.068 825.578 477.547C826.516 478.734 827.583 479.885 828.781 481H824.406ZM821.922 477.844C820.474 476.062 819.323 474.536 818.469 473.266C817.625 471.995 816.693 470.474 815.672 468.703C814.266 469.266 813.312 469.953 812.812 470.766C812.312 471.568 812.062 472.432 812.062 473.359C812.062 474.359 812.323 475.344 812.844 476.312C813.375 477.281 814.057 478.016 814.891 478.516C815.734 479.016 816.698 479.266 817.781 479.266C819.229 479.266 820.609 478.792 821.922 477.844ZM817.625 466.047C819.833 465.036 820.938 463.693 820.938 462.016C820.938 461.328 820.724 460.755 820.297 460.297C819.87 459.839 819.281 459.609 818.531 459.609C817.677 459.609 817.068 459.87 816.703 460.391C816.339 460.911 816.156 461.458 816.156 462.031C816.156 463.094 816.646 464.432 817.625 466.047ZM847.25 481V457.875H853.25C855.865 457.875 857.714 458.38 858.797 459.391C859.88 460.391 860.422 461.583 860.422 462.969C860.422 464.094 860.057 465.214 859.328 466.328C858.599 467.432 857.38 468.307 855.672 468.953C857.161 469.411 858.276 469.938 859.016 470.531C859.766 471.115 860.339 471.823 860.734 472.656C861.141 473.479 861.344 474.333 861.344 475.219C861.344 476.292 861.068 477.292 860.516 478.219C859.964 479.146 859.234 479.844 858.328 480.312C857.422 480.771 856 481 854.062 481H847.25ZM850.5 478.547H851.172C853.484 478.547 854.99 478.422 855.688 478.172C856.385 477.911 856.922 477.49 857.297 476.906C857.682 476.312 857.875 475.646 857.875 474.906C857.875 473.573 857.26 472.443 856.031 471.516C854.812 470.578 853.276 470.109 851.422 470.109H850.5V478.547ZM850.5 468.031H851.547C853.453 468.031 854.849 467.625 855.734 466.812C856.62 465.99 857.062 464.953 857.062 463.703C857.062 462.609 856.667 461.776 855.875 461.203C855.094 460.62 853.729 460.328 851.781 460.328H850.5V468.031ZM867.75 481V464.031H870.828V481H867.75ZM867.75 460.953V457.875H870.828V460.953H867.75ZM879 481V464.031H882.078V467.219C882.859 466.083 883.766 465.208 884.797 464.594C885.839 463.969 886.917 463.656 888.031 463.656C889.469 463.656 890.635 464.115 891.531 465.031C892.427 465.938 892.875 467.198 892.875 468.812V481H889.797V469.812C889.797 468.635 889.693 467.859 889.484 467.484C889.276 467.109 888.984 466.823 888.609 466.625C888.234 466.417 887.833 466.312 887.406 466.312C886.646 466.312 885.823 466.547 884.938 467.016C884.062 467.484 883.109 468.484 882.078 470.016V481H879ZM907.625 481.391C906.01 481.391 904.604 481.062 903.406 480.406C902.219 479.74 901.276 478.698 900.578 477.281C899.88 475.854 899.531 474.266 899.531 472.516C899.531 470.87 899.849 469.344 900.484 467.938C901.12 466.521 902.042 465.453 903.25 464.734C904.469 464.016 905.927 463.656 907.625 463.656C909.24 463.656 910.646 463.984 911.844 464.641C913.042 465.297 913.984 466.339 914.672 467.766C915.37 469.193 915.719 470.776 915.719 472.516C915.719 474.182 915.396 475.724 914.75 477.141C914.104 478.547 913.177 479.609 911.969 480.328C910.771 481.036 909.323 481.391 907.625 481.391ZM907.625 479.078C909.156 479.078 910.344 478.51 911.188 477.375C912.031 476.229 912.453 474.609 912.453 472.516C912.453 470.411 912.026 468.797 911.172 467.672C910.328 466.536 909.146 465.969 907.625 465.969C906.104 465.969 904.922 466.536 904.078 467.672C903.234 468.797 902.812 470.411 902.812 472.516C902.812 474.609 903.234 476.229 904.078 477.375C904.922 478.51 906.104 479.078 907.625 479.078ZM922.531 481V464.031H925.609V467.219C926.234 466.229 927.031 465.391 928 464.703C928.979 464.005 930.109 463.656 931.391 463.656C932.13 463.656 932.776 463.776 933.328 464.016C933.88 464.255 934.38 464.594 934.828 465.031C935.276 465.469 935.677 466.198 936.031 467.219C936.656 466.198 937.448 465.349 938.406 464.672C939.375 463.984 940.479 463.641 941.719 463.641C942.927 463.641 944.016 464.016 944.984 464.766C945.953 465.516 946.438 466.812 946.438 468.656V481H943.344V469.141C943.344 468.016 943.104 467.25 942.625 466.844C942.156 466.438 941.63 466.234 941.047 466.234C940.318 466.234 939.557 466.464 938.766 466.922C937.984 467.37 937.073 468.271 936.031 469.625V481H932.938V469.141C932.938 468.005 932.698 467.234 932.219 466.828C931.74 466.422 931.198 466.219 930.594 466.219C929.854 466.219 929.104 466.443 928.344 466.891C927.594 467.339 926.682 468.25 925.609 469.625V481H922.531ZM954.406 481V464.031H957.484V481H954.406ZM954.406 460.953V457.875H957.484V460.953H954.406ZM974.406 478.844C973.49 479.688 972.583 480.323 971.688 480.75C970.802 481.177 969.932 481.391 969.078 481.391C967.88 481.391 966.766 480.995 965.734 480.203C964.703 479.411 964.188 478.255 964.188 476.734C964.188 475.068 964.906 473.693 966.344 472.609C967.781 471.516 970.078 470.969 973.234 470.969H973.953V468.922C973.953 468.109 973.844 467.521 973.625 467.156C973.406 466.781 973.062 466.49 972.594 466.281C972.135 466.073 971.562 465.969 970.875 465.969C969.281 465.969 967.542 466.469 965.656 467.469V464.922C967.729 464.078 969.682 463.656 971.516 463.656C972.516 463.656 973.432 463.818 974.266 464.141C975.109 464.453 975.781 464.953 976.281 465.641C976.781 466.318 977.031 467.411 977.031 468.922V476.609C977.031 477.464 977.099 478.042 977.234 478.344C977.37 478.635 977.557 478.859 977.797 479.016C978.047 479.172 978.333 479.25 978.656 479.25C978.792 479.25 978.99 479.229 979.25 479.188L979.469 480.891C978.771 481.224 978 481.391 977.156 481.391C976.594 481.391 976.052 481.208 975.531 480.844C975.01 480.479 974.635 479.812 974.406 478.844ZM973.953 477.172V472.781L972.969 472.75C971.354 472.75 970 473.062 968.906 473.688C967.812 474.312 967.266 475.161 967.266 476.234C967.266 476.974 967.531 477.599 968.062 478.109C968.604 478.62 969.234 478.875 969.953 478.875C970.599 478.875 971.255 478.734 971.922 478.453C972.589 478.161 973.266 477.734 973.953 477.172ZM985.344 481V456.328H988.422V481H985.344ZM649.156 519V495.875H656.844C659.812 495.875 662.062 496.307 663.594 497.172C665.125 498.026 666.323 499.281 667.188 500.938C668.062 502.583 668.5 504.568 668.5 506.891C668.5 509.089 668.099 511.104 667.297 512.938C666.505 514.771 665.297 516.24 663.672 517.344C662.047 518.448 659.786 519 656.891 519H649.156ZM652.438 516.547H656.641C658.828 516.547 660.464 516.203 661.547 515.516C662.641 514.818 663.495 513.719 664.109 512.219C664.724 510.719 665.031 509.047 665.031 507.203C665.031 505.578 664.766 504.099 664.234 502.766C663.703 501.422 662.844 500.349 661.656 499.547C660.469 498.734 658.297 498.328 655.141 498.328H652.438V516.547ZM675.219 519V502.031H678.297V519H675.219ZM675.219 498.953V495.875H678.297V498.953H675.219ZM685.844 518.406V515.578C687.854 516.578 689.604 517.078 691.094 517.078C691.969 517.078 692.698 516.839 693.281 516.359C693.875 515.88 694.172 515.281 694.172 514.562C694.172 514.115 694.026 513.677 693.734 513.25C693.443 512.823 692.771 512.391 691.719 511.953L689.922 511.188C688.536 510.615 687.526 509.948 686.891 509.188C686.255 508.438 685.938 507.516 685.938 506.422C685.938 505.057 686.432 503.922 687.422 503.016C688.411 502.109 689.875 501.656 691.812 501.656C692.76 501.656 693.932 501.786 695.328 502.047L695.969 502.172V504.734C694.25 504.224 692.88 503.969 691.859 503.969C690.87 503.969 690.13 504.182 689.641 504.609C689.151 505.036 688.906 505.542 688.906 506.125C688.906 506.583 689.073 506.995 689.406 507.359C689.729 507.734 690.312 508.104 691.156 508.469L692.641 509.094C694.63 509.938 695.896 510.771 696.438 511.594C696.979 512.417 697.25 513.312 697.25 514.281C697.25 515.208 696.995 516.068 696.484 516.859C695.984 517.651 695.24 518.271 694.25 518.719C693.271 519.167 692.177 519.391 690.969 519.391C689.562 519.391 687.854 519.062 685.844 518.406ZM712.344 519C711.396 519.26 710.573 519.391 709.875 519.391C708.354 519.391 707.146 518.953 706.25 518.078C705.354 517.193 704.906 515.938 704.906 514.312V504.344H702.781V502.031H704.906V498.953L707.984 498.656V502.031H712.422V504.344H707.984V513.75C707.984 514.938 708.214 515.792 708.672 516.312C709.13 516.823 709.859 517.078 710.859 517.078C711.266 517.078 711.76 517.01 712.344 516.875V519ZM718.75 519V502.031H721.828V505.219C722.411 504.083 723.167 503.208 724.094 502.594C725.031 501.969 726.047 501.656 727.141 501.656C727.453 501.656 727.781 501.682 728.125 501.734V504.609C727.604 504.432 727.135 504.344 726.719 504.344C725.75 504.344 724.854 504.635 724.031 505.219C723.219 505.792 722.484 506.656 721.828 507.812V519H718.75ZM733.844 519V502.031H736.922V519H733.844ZM733.844 498.953V495.875H736.922V498.953H733.844ZM745.094 519.188V494.328H748.172V505.219C748.807 504.031 749.594 503.141 750.531 502.547C751.479 501.953 752.583 501.656 753.844 501.656C755.938 501.656 757.557 502.427 758.703 503.969C759.849 505.51 760.422 507.521 760.422 510C760.422 512.677 759.771 514.911 758.469 516.703C757.177 518.495 755.411 519.391 753.172 519.391C752.516 519.391 751.891 519.312 751.297 519.156C750.703 519 750.172 518.776 749.703 518.484C749.245 518.193 748.734 517.724 748.172 517.078L747.797 519.188H745.094ZM748.172 514.953C749.224 515.891 750.062 516.479 750.688 516.719C751.312 516.958 751.984 517.078 752.703 517.078C754.214 517.078 755.328 516.443 756.047 515.172C756.776 513.901 757.141 512.281 757.141 510.312C757.141 508.479 756.818 507.026 756.172 505.953C755.536 504.88 754.547 504.344 753.203 504.344C752.349 504.344 751.5 504.578 750.656 505.047C749.823 505.505 748.995 506.203 748.172 507.141V514.953ZM777.859 519V515.812C777.068 516.958 776.156 517.844 775.125 518.469C774.094 519.083 773.021 519.391 771.906 519.391C770.479 519.391 769.312 518.938 768.406 518.031C767.51 517.115 767.062 515.844 767.062 514.219V502.031H770.141V513.219C770.141 514.396 770.245 515.172 770.453 515.547C770.661 515.922 770.953 516.214 771.328 516.422C771.703 516.63 772.109 516.734 772.547 516.734C773.297 516.734 774.109 516.5 774.984 516.031C775.87 515.562 776.828 514.562 777.859 513.031V502.031H780.938V519H777.859ZM796.688 519C795.74 519.26 794.917 519.391 794.219 519.391C792.698 519.391 791.49 518.953 790.594 518.078C789.698 517.193 789.25 515.938 789.25 514.312V504.344H787.125V502.031H789.25V498.953L792.328 498.656V502.031H796.766V504.344H792.328V513.75C792.328 514.938 792.557 515.792 793.016 516.312C793.474 516.823 794.203 517.078 795.203 517.078C795.609 517.078 796.104 517.01 796.688 516.875V519ZM803.094 519V502.031H806.172V519H803.094ZM803.094 498.953V495.875H806.172V498.953H803.094ZM821.094 519.391C819.479 519.391 818.073 519.062 816.875 518.406C815.688 517.74 814.745 516.698 814.047 515.281C813.349 513.854 813 512.266 813 510.516C813 508.87 813.318 507.344 813.953 505.938C814.589 504.521 815.51 503.453 816.719 502.734C817.938 502.016 819.396 501.656 821.094 501.656C822.708 501.656 824.115 501.984 825.312 502.641C826.51 503.297 827.453 504.339 828.141 505.766C828.839 507.193 829.188 508.776 829.188 510.516C829.188 512.182 828.865 513.724 828.219 515.141C827.573 516.547 826.646 517.609 825.438 518.328C824.24 519.036 822.792 519.391 821.094 519.391ZM821.094 517.078C822.625 517.078 823.812 516.51 824.656 515.375C825.5 514.229 825.922 512.609 825.922 510.516C825.922 508.411 825.495 506.797 824.641 505.672C823.797 504.536 822.615 503.969 821.094 503.969C819.573 503.969 818.391 504.536 817.547 505.672C816.703 506.797 816.281 508.411 816.281 510.516C816.281 512.609 816.703 514.229 817.547 515.375C818.391 516.51 819.573 517.078 821.094 517.078ZM836 519V502.031H839.078V505.219C839.859 504.083 840.766 503.208 841.797 502.594C842.839 501.969 843.917 501.656 845.031 501.656C846.469 501.656 847.635 502.115 848.531 503.031C849.427 503.938 849.875 505.198 849.875 506.812V519H846.797V507.812C846.797 506.635 846.693 505.859 846.484 505.484C846.276 505.109 845.984 504.823 845.609 504.625C845.234 504.417 844.833 504.312 844.406 504.312C843.646 504.312 842.823 504.547 841.938 505.016C841.062 505.484 840.109 506.484 839.078 508.016V519H836ZM867.188 519L876.359 495.875H879.609L888.641 519H885.094L882.578 512.594H872.781L870.234 519H867.188ZM873.734 510.156H881.625L877.688 500.188L873.734 510.156ZM894.094 519V502.031H897.172V505.219C897.953 504.083 898.859 503.208 899.891 502.594C900.932 501.969 902.01 501.656 903.125 501.656C904.562 501.656 905.729 502.115 906.625 503.031C907.521 503.938 907.969 505.198 907.969 506.812V519H904.891V507.812C904.891 506.635 904.786 505.859 904.578 505.484C904.37 505.109 904.078 504.823 903.703 504.625C903.328 504.417 902.927 504.312 902.5 504.312C901.74 504.312 900.917 504.547 900.031 505.016C899.156 505.484 898.203 506.484 897.172 508.016V519H894.094ZM924.719 516.844C923.802 517.688 922.896 518.323 922 518.75C921.115 519.177 920.245 519.391 919.391 519.391C918.193 519.391 917.078 518.995 916.047 518.203C915.016 517.411 914.5 516.255 914.5 514.734C914.5 513.068 915.219 511.693 916.656 510.609C918.094 509.516 920.391 508.969 923.547 508.969H924.266V506.922C924.266 506.109 924.156 505.521 923.938 505.156C923.719 504.781 923.375 504.49 922.906 504.281C922.448 504.073 921.875 503.969 921.188 503.969C919.594 503.969 917.854 504.469 915.969 505.469V502.922C918.042 502.078 919.995 501.656 921.828 501.656C922.828 501.656 923.745 501.818 924.578 502.141C925.422 502.453 926.094 502.953 926.594 503.641C927.094 504.318 927.344 505.411 927.344 506.922V514.609C927.344 515.464 927.411 516.042 927.547 516.344C927.682 516.635 927.87 516.859 928.109 517.016C928.359 517.172 928.646 517.25 928.969 517.25C929.104 517.25 929.302 517.229 929.562 517.188L929.781 518.891C929.083 519.224 928.312 519.391 927.469 519.391C926.906 519.391 926.365 519.208 925.844 518.844C925.323 518.479 924.948 517.812 924.719 516.844ZM924.266 515.172V510.781L923.281 510.75C921.667 510.75 920.312 511.062 919.219 511.688C918.125 512.312 917.578 513.161 917.578 514.234C917.578 514.974 917.844 515.599 918.375 516.109C918.917 516.62 919.547 516.875 920.266 516.875C920.911 516.875 921.568 516.734 922.234 516.453C922.901 516.161 923.578 515.734 924.266 515.172ZM935.656 519V494.328H938.734V519H935.656ZM947.891 525.172L950.641 519L944.078 502.031H947.406L952.266 514.812L957.453 502.031H960.359L951.094 525.172H947.891ZM964.469 519V516.688L974.969 504.344H964.953V502.031H978.766V504.344L968.266 516.688H978.969V519H964.469ZM998.406 518.453C996.344 519.078 994.578 519.391 993.109 519.391C990.474 519.391 988.401 518.505 986.891 516.734C985.38 514.953 984.625 512.854 984.625 510.438C984.625 508.844 984.958 507.328 985.625 505.891C986.292 504.453 987.161 503.385 988.234 502.688C989.318 501.99 990.589 501.641 992.047 501.641C994.005 501.641 995.568 502.344 996.734 503.75C997.901 505.156 998.484 507.26 998.484 510.062L998.469 511H987.766C987.932 512.5 988.255 513.656 988.734 514.469C989.214 515.281 989.849 515.917 990.641 516.375C991.443 516.823 992.458 517.047 993.688 517.047C994.312 517.047 994.932 516.995 995.547 516.891C996.172 516.776 997.125 516.484 998.406 516.016V518.453ZM987.906 508.688H995.391C995.391 506.99 995.057 505.776 994.391 505.047C993.734 504.318 992.891 503.953 991.859 503.953C990.682 503.953 989.76 504.349 989.094 505.141C988.438 505.922 988.042 507.104 987.906 508.688ZM1005.81 519V502.031H1008.89V505.219C1009.47 504.083 1010.23 503.208 1011.16 502.594C1012.09 501.969 1013.11 501.656 1014.2 501.656C1014.52 501.656 1014.84 501.682 1015.19 501.734V504.609C1014.67 504.432 1014.2 504.344 1013.78 504.344C1012.81 504.344 1011.92 504.635 1011.09 505.219C1010.28 505.792 1009.55 506.656 1008.89 507.812V519H1005.81Z" fill="white"/>
<path d="M607.5 562H470V424.5C470 421.463 467.54 419 464.5 419C461.46 419 459 421.463 459 424.5V567.5C459 570.537 461.46 573 464.5 573H607.5C610.54 573 613 570.537 613 567.5C613 564.463 610.54 562 607.5 562Z" fill="white"/>
<path d="M569 468.516L562.652 439.369C560.253 428.355 551.746 420.477 541.5 419.25V556.499H569V468.516Z" fill="white"/>
<path d="M576.071 500.985L574.5 493.768V556.5H602C589.467 540.563 580.553 521.561 576.071 500.985Z" fill="white"/>
<path d="M536 419.25C525.754 420.477 517.247 428.355 514.848 439.37L508.5 468.516V556.5H536V419.25Z" fill="white"/>
<path d="M503 493.769L501.429 500.985C496.947 521.562 488.033 540.563 475.5 556.5H503V493.769Z" fill="white"/>
</svg>
