<svg width="1440" height="1024" viewBox="0 0 1440 1024" fill="none" xmlns="http://www.w3.org/2000/svg">
    <g clip-path="url(#clip0_205_84)">
        <path
            d="M259.848 484.526L244.214 566.573H244.201L178.125 576.358L266.292 608L344.79 597.453L369 495.235L259.848 484.526ZM244.344 595.656L222.699 587.383L233.137 585.994L257.418 594.111L244.344 595.656ZM337.623 588.87L250.296 564.162L254.846 540.669C254.936 540.805 254.981 540.928 255.078 541.07C256.112 542.537 257.592 544.011 259.551 545.536C261.677 547.191 263.668 548.289 265.516 548.819C267.364 549.369 269.032 549.543 270.512 549.369C271.992 549.213 273.278 548.774 274.357 548.076C275.437 547.397 276.29 546.654 276.91 545.853C277.673 544.883 278.19 543.966 278.5 543.145C278.81 542.311 278.972 541.555 278.998 540.876C279.03 540.191 278.946 539.584 278.758 539.06C278.565 538.524 278.371 538.078 278.157 537.69C277.951 537.302 277.757 537.018 277.595 536.785C277.427 536.578 277.35 536.436 277.388 536.385L277.447 536.307C277.466 536.275 277.699 536.372 278.112 536.578C278.532 536.779 279.095 536.882 279.793 536.869C280.491 536.843 281.311 536.604 282.248 536.152C283.192 535.699 284.2 534.782 285.267 533.399C285.687 532.862 286.042 532.067 286.301 531.02C286.566 529.993 286.585 528.81 286.333 527.492C286.107 526.18 285.525 524.777 284.607 523.291C283.696 521.798 282.3 520.298 280.407 518.844C278.927 517.687 277.395 516.795 275.811 516.143C274.228 515.49 272.651 515.135 271.087 515.083C269.504 515.05 267.985 515.38 266.531 516.046C265.077 516.724 263.732 517.83 262.504 519.374L269.562 524.868C269.969 524.299 270.415 523.892 270.919 523.64C271.41 523.388 271.934 523.239 272.477 523.226C273.013 523.2 273.562 523.304 274.118 523.517C274.68 523.724 275.204 524.027 275.708 524.415C276.083 524.719 276.445 525.068 276.787 525.475C277.136 525.876 277.401 526.309 277.589 526.729C277.77 527.149 277.854 527.608 277.841 528.067C277.815 528.532 277.653 528.972 277.337 529.372C276.942 529.863 276.522 530.187 276.057 530.316C275.585 530.458 275.107 530.471 274.622 530.381C274.131 530.29 273.666 530.103 273.213 529.825C272.761 529.547 272.328 529.269 271.934 528.952C271.43 528.551 271.029 528.209 270.719 527.918C270.415 527.601 270.124 527.349 269.872 527.11L265.904 532.21C266.22 532.365 266.55 532.552 266.886 532.765C267.229 532.966 267.668 533.282 268.224 533.709C268.644 534.039 269.045 534.4 269.426 534.795C269.807 535.195 270.079 535.615 270.253 536.068C270.415 536.52 270.46 537.011 270.389 537.503C270.324 538.013 270.066 538.55 269.613 539.138C268.773 540.211 267.868 540.715 266.906 540.669C265.943 540.618 264.915 540.185 263.836 539.338C263.183 538.834 262.653 538.285 262.259 537.684C261.852 537.102 261.651 536.462 261.625 535.751C261.431 534.51 261.897 533.192 263.041 531.841L257.412 527.466L264.333 491.745L358.007 502.752L337.623 588.87Z"
            fill="white" />
        <path
            d="M202.348 538.776L208.552 542.427L212.682 535.396L229.976 545.549L235.237 536.578L205.236 518.954L201.081 526.025C202.276 526.807 203.136 527.718 203.672 528.752C204.215 529.773 204.487 530.859 204.5 531.983C204.513 533.121 204.325 534.265 203.931 535.415C203.543 536.578 203.013 537.703 202.348 538.776Z"
            fill="white" />
        <path
            d="M306.517 532.268L331.612 514.178L327.36 508.271C326.293 508.956 325.246 509.35 324.219 509.415C323.184 509.486 322.202 509.318 321.291 508.924C320.36 508.529 319.507 507.974 318.699 507.23C317.898 506.5 317.187 505.66 316.547 504.736L311.351 508.471L315.578 514.34L301.127 524.751L306.517 532.268Z"
            fill="white" />
        <path
            d="M268.463 474.05C268.276 473.365 268.237 472.731 268.36 472.163C268.489 471.6 268.747 471.09 269.103 470.663C269.471 470.224 269.911 469.842 270.441 469.532C270.971 469.216 271.546 468.957 272.147 468.776L270.964 465.351L267.086 466.682L263.797 457.143L258.866 458.849L264.572 475.407L268.463 474.05Z"
            fill="white" />
        <path
            d="M191.257 557.098C192.033 557.247 192.789 557.331 193.526 557.337C194.262 557.344 194.96 557.221 195.626 556.995C196.292 556.762 196.886 556.303 197.423 555.618C197.856 555.049 198.14 554.494 198.269 553.899C198.392 553.311 198.379 552.723 198.205 552.148C198.043 551.566 197.746 551.01 197.319 550.454C196.893 549.892 196.363 549.362 195.73 548.864C195.012 548.296 194.288 547.901 193.552 547.649C192.821 547.397 192.104 547.313 191.393 547.391C190.695 547.475 190.016 547.72 189.37 548.121C188.73 548.548 188.142 549.129 187.606 549.892L190.475 552.161C190.96 551.488 191.49 551.049 192.039 550.849C192.601 550.635 193.177 550.758 193.784 551.249C194.146 551.534 194.372 551.876 194.476 552.245C194.573 552.645 194.43 553.072 194.049 553.556C193.9 553.737 193.707 553.886 193.493 553.957C193.28 554.048 193.054 554.093 192.808 554.093C192.563 554.093 192.317 554.093 192.071 554.048C191.826 554.022 191.606 553.996 191.399 553.97C190.908 553.905 190.398 553.834 189.887 553.77C189.357 553.692 188.847 553.634 188.336 553.621C187.832 553.589 187.328 553.589 186.83 553.621C186.332 553.66 185.854 553.75 185.382 553.867C184.84 554.022 184.322 554.267 183.844 554.578C183.366 554.907 182.926 555.347 182.552 555.877L191.748 563.135L193.791 560.549L188.982 556.749L189.002 556.736C189.732 556.827 190.495 556.95 191.257 557.098Z"
            fill="white" />
        <path
            d="M346.07 442.517L350.639 439.997C350.031 438.989 349.741 438.039 349.766 437.185C349.805 436.339 350.296 435.654 351.259 435.13C351.828 434.807 352.397 434.697 352.966 434.768C353.528 434.852 354.019 435.279 354.446 436.054C354.607 436.371 354.691 436.681 354.672 437.011C354.652 437.341 354.575 437.664 354.446 437.98C354.316 438.303 354.168 438.627 354.013 438.93C353.812 439.234 353.651 439.519 353.521 439.764C353.146 440.385 352.791 441.011 352.403 441.651C352.009 442.31 351.66 442.95 351.343 443.616C351.014 444.262 350.729 444.934 350.503 445.607C350.283 446.279 350.109 446.97 350.025 447.642C349.921 448.444 349.941 449.258 350.115 450.066C350.283 450.88 350.613 451.695 351.124 452.502L365.788 444.411L363.5 440.281L355.829 444.508V444.482C356.352 443.558 356.927 442.627 357.554 441.697C358.194 440.753 358.718 439.816 359.131 438.846C359.545 437.896 359.797 436.908 359.842 435.899C359.907 434.91 359.642 433.857 359.041 432.778C358.543 431.873 357.942 431.194 357.25 430.697C356.552 430.218 355.77 429.915 354.93 429.805C354.077 429.708 353.166 429.792 352.19 430.031C351.221 430.277 350.219 430.684 349.204 431.246C348.073 431.879 347.149 432.603 346.393 433.443C345.662 434.264 345.145 435.163 344.861 436.138C344.583 437.114 344.525 438.135 344.725 439.215C344.913 440.281 345.346 441.386 346.07 442.517Z"
            fill="white" />
        <path
            d="M180.677 484.009C181.608 484.985 182.565 485.702 183.528 486.11C184.484 486.536 185.421 486.717 186.32 486.685C187.231 486.646 188.019 486.491 188.672 486.232C189.48 485.909 190.12 485.547 190.604 485.14C191.083 484.739 191.458 484.345 191.703 483.945C191.968 483.537 192.13 483.13 192.207 482.742C192.285 482.348 192.317 481.999 192.324 481.702C192.336 481.379 192.324 481.133 192.304 480.952C192.272 480.765 192.278 480.648 192.317 480.636L192.382 480.61C192.401 480.597 192.517 480.745 192.685 481.017C192.873 481.282 193.177 481.534 193.61 481.779C194.043 482.019 194.631 482.154 195.361 482.206C196.091 482.271 197.035 482.064 198.185 481.598C198.638 481.418 199.129 481.049 199.659 480.513C200.176 479.989 200.609 479.272 200.919 478.374C201.249 477.495 201.397 476.435 201.365 475.2C201.346 473.979 201.003 472.563 200.37 470.993C199.879 469.771 199.258 468.679 198.528 467.723C197.791 466.76 196.957 465.991 196.014 465.402C195.064 464.827 194.01 464.485 192.899 464.388C191.768 464.284 190.559 464.478 189.26 464.982L191.619 470.825C192.072 470.618 192.492 470.534 192.892 470.547C193.287 470.566 193.642 470.676 193.985 470.851C194.321 471.025 194.624 471.277 194.889 471.607C195.148 471.936 195.368 472.298 195.536 472.718C195.658 473.022 195.749 473.378 195.82 473.753C195.885 474.121 195.898 474.47 195.865 474.812C195.814 475.136 195.723 475.433 195.542 475.704C195.355 475.982 195.109 476.189 194.773 476.331C194.359 476.486 193.991 476.532 193.655 476.454C193.319 476.376 193.009 476.215 192.75 475.982C192.492 475.737 192.278 475.472 192.097 475.136C191.91 474.812 191.748 474.476 191.626 474.153C191.445 473.74 191.328 473.384 191.251 473.1C191.173 472.802 191.089 472.537 191.018 472.292L186.791 474.005C186.927 474.218 187.056 474.444 187.198 474.69C187.328 474.942 187.489 475.284 187.67 475.75C187.806 476.111 187.922 476.454 188.019 476.835C188.11 477.204 188.136 477.566 188.071 477.902C188.019 478.244 187.871 478.548 187.644 478.839C187.431 479.123 187.076 479.356 186.604 479.556C185.712 479.905 184.975 479.899 184.4 479.537C183.831 479.143 183.366 478.529 182.998 477.63C182.784 477.087 182.655 476.564 182.623 476.06C182.584 475.562 182.694 475.09 182.92 474.651C183.243 473.824 183.986 473.197 185.176 472.777L182.797 466.87C182.513 466.954 182.125 467.102 181.602 467.322C181.085 467.555 180.548 467.865 179.979 468.291C179.424 468.731 178.894 469.261 178.39 469.914C177.892 470.56 177.517 471.355 177.278 472.285C177.013 473.223 176.948 474.315 177.052 475.569C177.168 476.835 177.543 478.27 178.202 479.899C178.907 481.663 179.734 483.033 180.677 484.009Z"
            fill="white" />
        <path
            d="M262.149 433.547C262.588 434.174 263.228 434.807 264.075 435.466C264.986 436.177 265.833 436.655 266.634 436.882C267.429 437.114 268.146 437.192 268.78 437.114C269.42 437.043 269.969 436.862 270.428 436.559C270.893 436.261 271.268 435.945 271.533 435.608C271.856 435.188 272.076 434.794 272.205 434.439C272.334 434.083 272.412 433.76 272.425 433.476C272.444 433.178 272.392 432.913 272.315 432.687C272.231 432.461 272.147 432.267 272.056 432.099C271.966 431.931 271.895 431.815 271.817 431.718C271.74 431.621 271.701 431.569 271.72 431.537L271.753 431.511C271.766 431.505 271.863 431.537 272.037 431.634C272.218 431.724 272.457 431.763 272.761 431.763C273.058 431.757 273.414 431.647 273.814 431.453C274.215 431.259 274.648 430.858 275.107 430.264C275.288 430.037 275.437 429.688 275.553 429.242C275.669 428.797 275.676 428.299 275.559 427.73C275.462 427.155 275.217 426.56 274.829 425.927C274.435 425.274 273.834 424.641 273.019 424.008C272.38 423.516 271.72 423.129 271.042 422.844C270.363 422.56 269.678 422.411 269.019 422.392C268.34 422.379 267.675 422.528 267.054 422.799C266.434 423.09 265.846 423.575 265.322 424.234L268.353 426.586C268.528 426.347 268.728 426.173 268.941 426.056C269.155 425.946 269.368 425.895 269.613 425.875C269.846 425.869 270.072 425.914 270.318 425.998C270.557 426.102 270.777 426.224 270.996 426.405C271.152 426.522 271.313 426.67 271.455 426.851C271.598 427.026 271.714 427.207 271.811 427.394C271.888 427.575 271.927 427.769 271.914 427.969C271.901 428.163 271.824 428.357 271.701 428.525C271.533 428.738 271.345 428.881 271.152 428.939C270.951 428.99 270.744 429.003 270.525 428.965C270.318 428.926 270.118 428.842 269.924 428.732C269.723 428.609 269.542 428.486 269.368 428.344C269.155 428.183 268.987 428.034 268.851 427.905C268.722 427.769 268.592 427.666 268.482 427.556L266.776 429.747C266.912 429.818 267.048 429.895 267.196 429.986C267.338 430.083 267.539 430.212 267.772 430.393C267.946 430.529 268.133 430.69 268.282 430.865C268.444 431.026 268.573 431.214 268.638 431.408C268.722 431.595 268.741 431.808 268.702 432.022C268.676 432.241 268.566 432.474 268.366 432.726C268.004 433.191 267.629 433.398 267.209 433.392C266.796 433.366 266.343 433.185 265.891 432.816C265.606 432.603 265.38 432.364 265.219 432.106C265.038 431.847 264.947 431.576 264.941 431.272C264.857 430.742 265.057 430.18 265.548 429.598L262.491 427.207C262.362 427.342 262.207 427.543 261.994 427.814C261.8 428.099 261.612 428.428 261.444 428.822C261.289 429.223 261.166 429.669 261.102 430.16C261.037 430.651 261.089 431.181 261.238 431.763C261.412 432.312 261.703 432.907 262.149 433.547Z"
            fill="white" />
        <path
            d="M285.939 459.877L310.084 463.289L318.014 458.222L309.677 445.212L315.494 441.49L309.884 432.726L304.08 436.455L301.54 432.493L294.373 437.088L296.919 441.037L280.581 451.488L285.939 459.877ZM302.516 449.795L307.105 456.955L294.315 455.055L302.516 449.795Z"
            fill="white" />
        <path
            d="M243.529 492.275L231.67 489.522L232.904 484.229L224.922 482.374L223.707 487.667L220.095 486.833L218.576 493.348L222.182 494.182L218.718 509.066L226.357 510.837L241.855 499.481L243.529 492.275ZM228.425 503.514L230.157 496.037L236.691 497.549L228.425 503.514Z"
            fill="white" />
        <path
            d="M330.151 547.817L311.952 547.365L306.497 551.811L313.813 560.763L309.826 564.02L314.744 570.037L318.738 566.78L320.961 569.494L325.873 565.481L323.656 562.753L334.863 553.589L330.151 547.817ZM318.732 556.73L314.705 551.805L324.361 552.122L318.732 556.73Z"
            fill="white" />
        <path
            d="M197.992 454.357C199.226 456.122 200.9 457.925 203.026 459.76C205.501 461.912 207.983 463.515 210.452 464.588C212.921 465.648 215.28 466.223 217.529 466.275C219.772 466.333 221.878 465.907 223.85 465.002C225.834 464.103 227.572 462.766 229.097 461.014C230.842 458.991 232.077 456.975 232.762 454.958C233.453 452.955 233.699 451.035 233.492 449.2C233.285 447.364 232.691 445.619 231.721 443.965C230.746 442.304 229.492 440.811 227.966 439.493C226.68 438.381 225.239 437.379 223.656 436.494C222.066 435.608 220.386 435.111 218.641 434.988L218.634 434.794L223.591 431.091L239.703 445.051L247.032 436.584L223.255 416L202.399 432.842L211.648 440.843C212.876 440.52 214.039 440.54 215.17 440.908C216.301 441.263 217.451 441.961 218.615 442.963C220.095 444.256 220.928 445.723 221.116 447.352C221.303 448.987 220.728 450.577 219.403 452.095C218.195 453.485 216.715 454.163 214.963 454.112C213.212 454.079 211.602 453.433 210.155 452.173C209.392 451.52 208.759 450.809 208.229 450.04C207.712 449.271 207.382 448.476 207.233 447.642C206.994 446.46 207.195 445.29 207.835 444.159L197.985 435.634C197.429 436.132 196.88 436.836 196.331 437.728C195.794 438.62 195.348 439.661 194.986 440.83C194.644 442.02 194.469 443.312 194.482 444.734C194.489 446.162 194.773 447.688 195.322 449.297C195.872 450.906 196.757 452.587 197.992 454.357Z"
            fill="white" />
        <path
            d="M326.325 475.685C327.12 476.389 327.974 476.887 328.872 477.139C329.783 477.404 330.701 477.456 331.677 477.327C332.627 477.191 333.577 476.9 334.495 476.428C335.257 476.04 336.007 475.562 336.724 474.987C337.442 474.418 338.004 473.74 338.411 472.945L338.502 472.971L339.277 476.015L329.641 480.842L332.181 485.903L346.399 478.768L342.547 465.764L337.002 468.543C336.918 469.19 336.679 469.72 336.304 470.179C335.903 470.644 335.361 471.038 334.669 471.4C333.777 471.833 332.931 471.943 332.129 471.71C331.334 471.484 330.701 470.915 330.242 469.991C329.835 469.157 329.803 468.337 330.152 467.522C330.5 466.708 331.121 466.081 331.993 465.648C332.439 465.422 332.905 465.267 333.364 465.176C333.822 465.073 334.255 465.073 334.676 465.163C335.277 465.286 335.781 465.596 336.181 466.113L342.069 463.166C341.933 462.804 341.72 462.417 341.403 461.977C341.08 461.557 340.699 461.143 340.208 460.756C339.73 460.361 339.148 460.045 338.469 459.76C337.797 459.489 337.034 459.334 336.181 459.282C335.322 459.224 334.365 459.314 333.305 459.547C332.239 459.78 331.069 460.219 329.802 460.853C328.322 461.602 327.095 462.455 326.125 463.405C325.136 464.349 324.419 465.344 323.973 466.385C323.508 467.425 323.301 468.485 323.327 469.584C323.365 470.676 323.663 471.749 324.18 472.802C324.813 474.017 325.518 474.974 326.325 475.685Z"
            fill="white" />
    </g>
    <path
        d="M409.25 559.25V512.375L415.188 509.562H415.5V532.688H433.938V512.375L439.875 509.562H440.188V556.438L434.25 559.25H433.938V536.125H415.5V556.438L409.562 559.25H409.25ZM474.875 556.438L468.938 559.25H468.625V555.969C466.958 557.74 464.719 558.625 461.906 558.625C458.01 558.625 454.979 557.448 452.812 555.094C450.646 552.74 449.562 549.958 449.562 546.75C449.562 543.417 450.74 540.583 453.094 538.25C455.365 536 458.302 534.875 461.906 534.875C464.469 534.875 466.708 535.76 468.625 537.531C468.625 533.844 467.979 531.073 466.688 529.219C465.396 527.365 463.802 526.438 461.906 526.438H454.312V526.125L455.781 523H461.906C465.552 523 468.583 524.177 471 526.531C473.583 529.052 474.875 532.042 474.875 535.5V556.438ZM455.688 546.75C455.688 550 456.25 552.229 457.375 553.438C458.458 554.604 459.979 555.188 461.938 555.188C464.021 555.188 465.604 554.594 466.688 553.406C467.875 552.115 468.469 549.844 468.469 546.594C468.469 543.552 467.833 541.385 466.562 540.094C465.312 538.906 463.76 538.312 461.906 538.312C459.969 538.312 458.448 538.927 457.344 540.156C456.24 541.385 455.688 543.583 455.688 546.75ZM484.25 559.25V535.5C484.25 532.062 485.542 529.073 488.125 526.531C490.542 524.177 493.573 523 497.219 523C500.823 523 503.854 524.177 506.312 526.531C508.896 529.031 510.188 532.021 510.188 535.5V556.438L504.25 559.25H503.938V533.375C503.938 530.979 503.281 529.229 501.969 528.125C500.677 527 499.094 526.438 497.219 526.438C495.344 526.438 493.75 527 492.438 528.125C491.146 529.229 490.5 530.979 490.5 533.375V556.438L484.562 559.25H484.25ZM525.812 548.25C525.812 550.646 526.458 552.406 527.75 553.531C529.062 554.635 530.656 555.188 532.531 555.188C534.406 555.188 535.99 554.635 537.281 553.531C538.594 552.406 539.25 550.646 539.25 548.25V533.375C539.25 530.979 538.594 529.229 537.281 528.125C535.99 527 534.406 526.438 532.531 526.438C530.656 526.438 529.062 527 527.75 528.125C526.458 529.229 525.812 530.979 525.812 533.375V548.25ZM519.562 546.125V535.5C519.562 532.062 520.854 529.073 523.438 526.531C525.854 524.177 528.885 523 532.531 523C535.281 523 537.521 523.885 539.25 525.656V512.375L545.188 509.562H545.5V546.125C545.5 549.562 544.208 552.552 541.625 555.094C539.208 557.448 536.177 558.625 532.531 558.625C528.927 558.625 525.896 557.448 523.438 555.094C520.854 552.594 519.562 549.604 519.562 546.125ZM556.438 525.188L562.375 522.375H562.688V548.25C562.688 550.646 563.333 552.406 564.625 553.531C565.938 554.635 567.531 555.188 569.406 555.188C571.281 555.188 572.865 554.635 574.156 553.531C575.469 552.406 576.125 550.646 576.125 548.25V525.188L582.062 522.375H582.375V548.25C582.375 550.646 583.021 552.406 584.312 553.531C585.625 554.635 587.219 555.188 589.094 555.188C590.969 555.188 592.552 554.635 593.844 553.531C595.156 552.406 595.812 550.646 595.812 548.25V525.188L601.75 522.375H602.062V546.125C602.062 549.562 600.771 552.552 598.188 555.094C595.771 557.448 592.74 558.625 589.094 558.625C585.781 558.625 582.917 557.417 580.5 555C580.042 554.542 579.625 554 579.25 553.375C578.875 553.979 578.458 554.51 578 554.969C575.396 557.406 572.531 558.625 569.406 558.625C565.802 558.625 562.771 557.448 560.312 555.094C557.729 552.594 556.438 549.604 556.438 546.125V525.188ZM611.438 559.25V535.5C611.438 532.062 612.729 529.073 615.312 526.531C617.729 524.177 620.76 523 624.406 523H628.625V523.312L627.125 526.438H624.406C622.531 526.438 620.938 527 619.625 528.125C618.333 529.229 617.688 530.979 617.688 533.375V556.438L611.75 559.25H611.438ZM635.969 516.719C635.24 515.969 634.875 515.073 634.875 514.031C634.875 512.969 635.24 512.062 635.969 511.312C636.698 510.562 637.583 510.188 638.625 510.188C639.667 510.188 640.552 510.562 641.281 511.312C642.01 512.062 642.375 512.969 642.375 514.031C642.375 515.073 642.01 515.969 641.281 516.719C640.552 517.469 639.667 517.844 638.625 517.844C637.583 517.844 636.698 517.469 635.969 516.719ZM635.5 559.25V525.188L641.438 522.375H641.75V556.438L635.812 559.25H635.5ZM656.812 559.25V527.062H648.781V526.75L650.25 523.625H656.812V512.375L662.75 509.562H663.062V523.625H671.094V523.938L669.625 527.062H663.062V556.438L657.125 559.25H656.812ZM680.688 559.25V527.062H672.656V526.75L674.125 523.625H680.688V512.375L686.625 509.562H686.938V523.625H694.969V523.938L693.5 527.062H686.938V556.438L681 559.25H680.688ZM726.375 544.156V546.125C726.375 549.562 725.083 552.552 722.5 555.094C720.083 557.448 717.052 558.625 713.406 558.625C709.802 558.625 706.771 557.448 704.312 555.094C701.729 552.594 700.438 549.604 700.438 546.125V535.5C700.438 532.042 701.729 529.052 704.312 526.531C706.729 524.177 709.76 523 713.406 523C716.969 523 720 524.177 722.5 526.531C725.083 528.969 726.375 531.656 726.375 534.594L706.875 550.344C707.167 551.698 707.75 552.75 708.625 553.5C709.938 554.625 711.531 555.188 713.406 555.188C715.281 555.188 716.865 554.625 718.156 553.5C719.469 552.375 720.125 550.198 720.125 546.969L726.062 544.156H726.375ZM706.688 545.531L720.125 534.625V533.375C720.125 531 719.479 529.25 718.188 528.125C716.875 527 715.281 526.438 713.406 526.438C711.552 526.438 709.958 527 708.625 528.125C707.333 529.208 706.688 530.958 706.688 533.375V545.531ZM735.75 559.25V535.5C735.75 532.062 737.042 529.073 739.625 526.531C742.042 524.177 745.073 523 748.719 523C752.323 523 755.354 524.177 757.812 526.531C760.396 529.031 761.688 532.021 761.688 535.5V556.438L755.75 559.25H755.438V533.375C755.438 530.979 754.781 529.229 753.469 528.125C752.177 527 750.594 526.438 748.719 526.438C746.844 526.438 745.25 527 743.938 528.125C742.646 529.229 742 530.979 742 533.375V556.438L736.062 559.25H735.75ZM797.625 558V512.375L800.938 510.812H812.781C817.531 510.812 821.385 512.323 824.344 515.344C827.156 518.198 828.562 521.896 828.562 526.438V542.375C828.562 546.896 827.156 550.594 824.344 553.469C821.385 556.49 817.531 558 812.781 558H797.625ZM803.875 554.562H812.781C815.635 554.562 818.062 553.49 820.062 551.344C821.562 549.74 822.312 547.479 822.312 544.562V524.25C822.312 521.479 821.562 519.219 820.062 517.469C818.208 515.323 815.781 514.25 812.781 514.25H803.875V554.562ZM841.531 516.719C840.802 515.969 840.438 515.073 840.438 514.031C840.438 512.969 840.802 512.062 841.531 511.312C842.26 510.562 843.146 510.188 844.188 510.188C845.229 510.188 846.115 510.562 846.844 511.312C847.573 512.062 847.938 512.969 847.938 514.031C847.938 515.073 847.573 515.969 846.844 516.719C846.115 517.469 845.229 517.844 844.188 517.844C843.146 517.844 842.26 517.469 841.531 516.719ZM841.062 559.25V525.188L847 522.375H847.312V556.438L841.375 559.25H841.062ZM864.5 548.25C864.5 550.646 865.146 552.406 866.438 553.531C867.75 554.635 869.344 555.188 871.219 555.188C873.094 555.188 874.677 554.635 875.969 553.531C877.281 552.406 877.938 550.646 877.938 548.25V533.375C877.938 530.979 877.281 529.229 875.969 528.125C874.677 527 873.094 526.438 871.219 526.438C869.344 526.438 867.75 527 866.438 528.125C865.146 529.229 864.5 530.979 864.5 533.375V548.25ZM858.25 546.125V535.5C858.25 532.062 859.542 529.073 862.125 526.531C864.542 524.177 867.573 523 871.219 523C874.865 523 877.896 524.177 880.312 526.531C882.896 529.052 884.188 532.042 884.188 535.5V558.938C884.188 562.375 882.896 565.365 880.312 567.906C877.896 570.26 874.865 571.438 871.219 571.438H861.594V571.125L863.094 568H871.219C873.094 568 874.688 567.438 876 566.312C877.292 565.229 877.938 563.479 877.938 561.062V555.969C876.354 557.74 874.115 558.625 871.219 558.625C867.615 558.625 864.583 557.448 862.125 555.094C859.542 552.594 858.25 549.604 858.25 546.125ZM896.531 516.719C895.802 515.969 895.438 515.073 895.438 514.031C895.438 512.969 895.802 512.062 896.531 511.312C897.26 510.562 898.146 510.188 899.188 510.188C900.229 510.188 901.115 510.562 901.844 511.312C902.573 512.062 902.938 512.969 902.938 514.031C902.938 515.073 902.573 515.969 901.844 516.719C901.115 517.469 900.229 517.844 899.188 517.844C898.146 517.844 897.26 517.469 896.531 516.719ZM896.062 559.25V525.188L902 522.375H902.312V556.438L896.375 559.25H896.062ZM917.375 559.25V527.062H909.344V526.75L910.812 523.625H917.375V512.375L923.312 509.562H923.625V523.625H931.656V523.938L930.188 527.062H923.625V556.438L917.688 559.25H917.375ZM936.188 546.969L942.125 544.156H942.438V548.156C942.438 550.49 943.115 552.26 944.469 553.469C945.76 554.615 947.323 555.188 949.156 555.188C951.281 555.188 952.938 554.51 954.125 553.156C955.375 551.76 956 549.75 956 547.125C956 544.729 955.333 543.01 954 541.969C952.854 541.073 951.229 540.625 949.125 540.625C945.104 540.625 942.104 539.823 940.125 538.219C938.375 536.802 937.5 534.865 937.5 532.406C937.5 529.51 938.823 527.115 941.469 525.219C943.531 523.74 946.094 523 949.156 523C952.094 523 954.646 523.917 956.812 525.75C958.479 527.188 959.51 528.854 959.906 530.75L953.969 533.562H953.656V531.156C953.656 530.115 953.344 529.188 952.719 528.375C951.719 527.083 950.292 526.438 948.438 526.438C946.958 526.438 945.75 526.896 944.812 527.812C943.896 528.75 943.438 530.219 943.438 532.219C943.438 534.323 944 535.76 945.125 536.531C945.75 536.969 947.083 537.188 949.125 537.188C953.542 537.188 956.854 538.115 959.062 539.969C961.104 541.677 962.125 544.146 962.125 547.375C962.125 550.083 960.927 552.667 958.531 555.125C956.26 557.458 953.135 558.625 949.156 558.625C945.552 558.625 942.521 557.625 940.062 555.625C937.479 553.521 936.188 550.635 936.188 546.969ZM1028.69 540.812V543C1028.69 547.521 1027.28 551.219 1024.47 554.094C1021.51 557.115 1017.66 558.625 1012.91 558.625C1008.16 558.625 1004.3 557.115 1001.34 554.094C998.531 551.219 997.125 547.521 997.125 543V525.812C997.125 521.292 998.531 517.594 1001.34 514.719C1004.3 511.698 1008.16 510.188 1012.91 510.188C1017.82 510.188 1021.68 511.698 1024.47 514.719C1027.28 517.74 1028.69 521.229 1028.69 525.188L1022.75 528H1022.44V523.625C1022.44 520.833 1021.69 518.573 1020.19 516.844C1018.33 514.698 1015.91 513.625 1012.91 513.625C1009.91 513.625 1007.48 514.698 1005.62 516.844C1004.12 518.573 1003.38 520.833 1003.38 523.625V545.188C1003.38 547.979 1004.12 550.24 1005.62 551.969C1007.48 554.115 1009.91 555.188 1012.91 555.188C1015.91 555.188 1018.33 554.115 1020.19 551.969C1021.69 550.24 1022.44 547.458 1022.44 543.625L1028.38 540.812H1028.69ZM1041.19 559.25V512.375L1047.12 509.562H1047.44V556.438L1041.5 559.25H1041.19ZM1082.12 556.438L1076.19 559.25H1075.88V555.969C1074.21 557.74 1071.97 558.625 1069.16 558.625C1065.26 558.625 1062.23 557.448 1060.06 555.094C1057.9 552.74 1056.81 549.958 1056.81 546.75C1056.81 543.417 1057.99 540.583 1060.34 538.25C1062.61 536 1065.55 534.875 1069.16 534.875C1071.72 534.875 1073.96 535.76 1075.88 537.531C1075.88 533.844 1075.23 531.073 1073.94 529.219C1072.65 527.365 1071.05 526.438 1069.16 526.438H1061.56V526.125L1063.03 523H1069.16C1072.8 523 1075.83 524.177 1078.25 526.531C1080.83 529.052 1082.12 532.042 1082.12 535.5V556.438ZM1062.94 546.75C1062.94 550 1063.5 552.229 1064.62 553.438C1065.71 554.604 1067.23 555.188 1069.19 555.188C1071.27 555.188 1072.85 554.594 1073.94 553.406C1075.12 552.115 1075.72 549.844 1075.72 546.594C1075.72 543.552 1075.08 541.385 1073.81 540.094C1072.56 538.906 1071.01 538.312 1069.16 538.312C1067.22 538.312 1065.7 538.927 1064.59 540.156C1063.49 541.385 1062.94 543.583 1062.94 546.75ZM1090.56 546.969L1096.5 544.156H1096.81V548.156C1096.81 550.49 1097.49 552.26 1098.84 553.469C1100.14 554.615 1101.7 555.188 1103.53 555.188C1105.66 555.188 1107.31 554.51 1108.5 553.156C1109.75 551.76 1110.38 549.75 1110.38 547.125C1110.38 544.729 1109.71 543.01 1108.38 541.969C1107.23 541.073 1105.6 540.625 1103.5 540.625C1099.48 540.625 1096.48 539.823 1094.5 538.219C1092.75 536.802 1091.88 534.865 1091.88 532.406C1091.88 529.51 1093.2 527.115 1095.84 525.219C1097.91 523.74 1100.47 523 1103.53 523C1106.47 523 1109.02 523.917 1111.19 525.75C1112.85 527.188 1113.89 528.854 1114.28 530.75L1108.34 533.562H1108.03V531.156C1108.03 530.115 1107.72 529.188 1107.09 528.375C1106.09 527.083 1104.67 526.438 1102.81 526.438C1101.33 526.438 1100.12 526.896 1099.19 527.812C1098.27 528.75 1097.81 530.219 1097.81 532.219C1097.81 534.323 1098.38 535.76 1099.5 536.531C1100.12 536.969 1101.46 537.188 1103.5 537.188C1107.92 537.188 1111.23 538.115 1113.44 539.969C1115.48 541.677 1116.5 544.146 1116.5 547.375C1116.5 550.083 1115.3 552.667 1112.91 555.125C1110.64 557.458 1107.51 558.625 1103.53 558.625C1099.93 558.625 1096.9 557.625 1094.44 555.625C1091.85 553.521 1090.56 550.635 1090.56 546.969ZM1124 546.969L1129.94 544.156H1130.25V548.156C1130.25 550.49 1130.93 552.26 1132.28 553.469C1133.57 554.615 1135.14 555.188 1136.97 555.188C1139.09 555.188 1140.75 554.51 1141.94 553.156C1143.19 551.76 1143.81 549.75 1143.81 547.125C1143.81 544.729 1143.15 543.01 1141.81 541.969C1140.67 541.073 1139.04 540.625 1136.94 540.625C1132.92 540.625 1129.92 539.823 1127.94 538.219C1126.19 536.802 1125.31 534.865 1125.31 532.406C1125.31 529.51 1126.64 527.115 1129.28 525.219C1131.34 523.74 1133.91 523 1136.97 523C1139.91 523 1142.46 523.917 1144.62 525.75C1146.29 527.188 1147.32 528.854 1147.72 530.75L1141.78 533.562H1141.47V531.156C1141.47 530.115 1141.16 529.188 1140.53 528.375C1139.53 527.083 1138.1 526.438 1136.25 526.438C1134.77 526.438 1133.56 526.896 1132.62 527.812C1131.71 528.75 1131.25 530.219 1131.25 532.219C1131.25 534.323 1131.81 535.76 1132.94 536.531C1133.56 536.969 1134.9 537.188 1136.94 537.188C1141.35 537.188 1144.67 538.115 1146.88 539.969C1148.92 541.677 1149.94 544.146 1149.94 547.375C1149.94 550.083 1148.74 552.667 1146.34 555.125C1144.07 557.458 1140.95 558.625 1136.97 558.625C1133.36 558.625 1130.33 557.625 1127.88 555.625C1125.29 553.521 1124 550.635 1124 546.969ZM1160.41 516.719C1159.68 515.969 1159.31 515.073 1159.31 514.031C1159.31 512.969 1159.68 512.062 1160.41 511.312C1161.14 510.562 1162.02 510.188 1163.06 510.188C1164.1 510.188 1164.99 510.562 1165.72 511.312C1166.45 512.062 1166.81 512.969 1166.81 514.031C1166.81 515.073 1166.45 515.969 1165.72 516.719C1164.99 517.469 1164.1 517.844 1163.06 517.844C1162.02 517.844 1161.14 517.469 1160.41 516.719ZM1159.94 559.25V525.188L1165.88 522.375H1166.19V556.438L1160.25 559.25H1159.94ZM1178.69 559.25V531.438H1174V531.125L1175.47 528H1178.69V522.688C1178.69 519.25 1179.98 516.26 1182.56 513.719C1184.98 511.365 1188.01 510.188 1191.66 510.188H1195.88V510.5L1194.38 513.625H1191.66C1189.8 513.625 1188.21 514.188 1186.88 515.312C1185.58 516.396 1184.94 518.146 1184.94 520.562V528H1195.88V528.312L1194.41 531.438H1184.94V556.438L1179 559.25H1178.69ZM1207.28 516.719C1206.55 515.969 1206.19 515.073 1206.19 514.031C1206.19 512.969 1206.55 512.062 1207.28 511.312C1208.01 510.562 1208.9 510.188 1209.94 510.188C1210.98 510.188 1211.86 510.562 1212.59 511.312C1213.32 512.062 1213.69 512.969 1213.69 514.031C1213.69 515.073 1213.32 515.969 1212.59 516.719C1211.86 517.469 1210.98 517.844 1209.94 517.844C1208.9 517.844 1208.01 517.469 1207.28 516.719ZM1206.81 559.25V525.188L1212.75 522.375H1213.06V556.438L1207.12 559.25H1206.81ZM1249.94 544.156V546.125C1249.94 549.562 1248.65 552.552 1246.06 555.094C1243.65 557.448 1240.61 558.625 1236.97 558.625C1233.36 558.625 1230.33 557.448 1227.88 555.094C1225.29 552.594 1224 549.604 1224 546.125V535.5C1224 532.042 1225.29 529.052 1227.88 526.531C1230.29 524.177 1233.32 523 1236.97 523C1240.53 523 1243.56 524.177 1246.06 526.531C1248.65 528.969 1249.94 531.656 1249.94 534.594L1230.44 550.344C1230.73 551.698 1231.31 552.75 1232.19 553.5C1233.5 554.625 1235.09 555.188 1236.97 555.188C1238.84 555.188 1240.43 554.625 1241.72 553.5C1243.03 552.375 1243.69 550.198 1243.69 546.969L1249.62 544.156H1249.94ZM1230.25 545.531L1243.69 534.625V533.375C1243.69 531 1243.04 529.25 1241.75 528.125C1240.44 527 1238.84 526.438 1236.97 526.438C1235.11 526.438 1233.52 527 1232.19 528.125C1230.9 529.208 1230.25 530.958 1230.25 533.375V545.531ZM1259.31 559.25V535.5C1259.31 532.062 1260.6 529.073 1263.19 526.531C1265.6 524.177 1268.64 523 1272.28 523H1276.5V523.312L1275 526.438H1272.28C1270.41 526.438 1268.81 527 1267.5 528.125C1266.21 529.229 1265.56 530.979 1265.56 533.375V556.438L1259.62 559.25H1259.31Z"
        fill="white" />
    <defs>
        <clipPath id="clip0_205_84">
            <rect width="192" height="192" fill="white" transform="translate(177 416)" />
        </clipPath>
    </defs>
</svg>