<svg width="1440" height="1024" fill="none" xmlns="http://www.w3.org/2000/svg">
    <path
        d="M224.648 635.688c94.558 0 171.211-76.654 171.211-171.211 0-94.558-76.653-171.211-171.211-171.211-94.557 0-171.21 76.653-171.21 171.211 0 94.557 76.653 171.211 171.21 171.211z"
        fill="#EDEBDC" />
    <path d="M334.984 521.547H182.797v38.047h152.187v-38.047z" fill="#BF7E68" stroke="#4C241D" stroke-width="25"
        stroke-linecap="round" stroke-linejoin="round" />
    <path
        d="M180.895 702.277a74.988 74.988 0 0175.956-73.978h3.896a74.989 74.989 0 0175.957 73.978v1.895h89.593L322.535 559.594H195.649L99.094 704.172h81.801v-1.895zm-59.506-28.649h61.24m153.101 0l66.027.106m-213.07-7.609l44.979-103.274m107.467 110.883l-57.778-113.098m33.991-39.089H200.435l25.842-144.578h65.227l25.842 144.578zm-96.761-98.876h76.124"
        stroke="#4C241D" stroke-width="25" stroke-linecap="round" stroke-linejoin="round" />
    <path d="M280.631 376.969h-43.48l7.891-98.922h27.698l7.891 98.922z" fill="#BF7E68" stroke="#4C241D"
        stroke-width="25" stroke-linecap="round" stroke-linejoin="round" />
    <path
        d="M258.891 278.047v-22.828m-30.438 235.89h22.828m-15.219-30.437h45.657m17.25 124.649l51.234 12.32-19.83 42.338 65.486 26.146m-173.638-80.804l-53.501 17.441 25.59 41.867-63.965 22.097"
        stroke="#4C241D" stroke-width="25" stroke-linecap="round" stroke-linejoin="round" />
    <path
        d="M477.341 454v-52.364h6.341v46.739h24.341V454h-30.682zm51.239.92c-2.489 0-4.748-.468-6.776-1.406-2.028-.954-3.639-2.326-4.832-4.116-1.194-1.807-1.79-3.989-1.79-6.546 0-2.25.443-4.074 1.329-5.471a9.386 9.386 0 013.554-3.324c1.483-.801 3.12-1.398 4.909-1.79a59.98 59.98 0 015.446-.972c2.387-.306 4.321-.536 5.804-.69 1.5-.17 2.591-.452 3.273-.844.699-.392 1.048-1.074 1.048-2.045v-.205c0-2.522-.69-4.483-2.071-5.88-1.363-1.398-3.434-2.097-6.213-2.097-2.88 0-5.139.631-6.775 1.892-1.637 1.261-2.787 2.608-3.452 4.04l-5.727-2.046c1.023-2.386 2.386-4.244 4.091-5.573 1.721-1.347 3.596-2.285 5.625-2.813 2.045-.545 4.057-.818 6.034-.818 1.261 0 2.71.153 4.346.46 1.654.29 3.248.895 4.782 1.815 1.551.921 2.838 2.31 3.86 4.168 1.023 1.858 1.535 4.347 1.535 7.466V454h-6.035v-5.318h-.306c-.409.852-1.091 1.764-2.046 2.736-.954.971-2.224 1.798-3.809 2.48-1.586.682-3.52 1.022-5.804 1.022zm.92-5.42c2.386 0 4.398-.469 6.034-1.406 1.654-.938 2.898-2.148 3.733-3.631.852-1.483 1.278-3.043 1.278-4.679v-5.523c-.255.307-.818.588-1.687.844-.852.239-1.841.452-2.966.639-1.108.171-2.19.324-3.247.461-1.04.119-1.884.221-2.531.306a23.022 23.022 0 00-4.398.998c-1.347.443-2.438 1.116-3.273 2.019-.818.887-1.227 2.097-1.227 3.631 0 2.097.775 3.682 2.327 4.756 1.568 1.057 3.554 1.585 5.957 1.585zm34.127-19.125V454h-6.034v-39.273h5.83v6.137h.511c.92-1.995 2.318-3.597 4.193-4.807 1.875-1.227 4.296-1.841 7.261-1.841 2.66 0 4.986.545 6.981 1.636 1.994 1.074 3.545 2.71 4.653 4.909 1.108 2.182 1.662 4.944 1.662 8.284V454h-6.034v-24.545c0-3.086-.801-5.489-2.404-7.211-1.602-1.738-3.801-2.608-6.596-2.608-1.926 0-3.648.418-5.165 1.253-1.5.835-2.685 2.054-3.554 3.656-.869 1.603-1.304 3.546-1.304 5.83zm50.913 24.443c-3.273 0-6.162-.827-8.668-2.48-2.506-1.67-4.466-4.023-5.881-7.057-1.414-3.051-2.122-6.656-2.122-10.815 0-4.125.708-7.705 2.122-10.739 1.415-3.034 3.384-5.378 5.907-7.031 2.522-1.653 5.437-2.48 8.744-2.48 2.557 0 4.577.426 6.06 1.278 1.5.836 2.642 1.79 3.426 2.864.801 1.057 1.423 1.926 1.866 2.608h.512v-19.33h6.034V454h-5.83v-6.034h-.716c-.443.716-1.074 1.619-1.892 2.71-.818 1.074-1.986 2.037-3.503 2.889-1.517.836-3.536 1.253-6.059 1.253zm.818-5.42c2.42 0 4.466-.631 6.136-1.892 1.671-1.279 2.941-3.043 3.81-5.293.869-2.267 1.304-4.883 1.304-7.849 0-2.932-.426-5.498-1.278-7.696-.853-2.216-2.114-3.938-3.785-5.165-1.67-1.244-3.732-1.867-6.187-1.867-2.557 0-4.688.657-6.392 1.969-1.688 1.296-2.957 3.06-3.81 5.293-.835 2.216-1.253 4.704-1.253 7.466 0 2.795.427 5.335 1.279 7.619.869 2.267 2.148 4.074 3.835 5.42 1.705 1.33 3.818 1.995 6.341 1.995zM644.429 454v-39.273h5.83v6.137h.511c.818-2.097 2.139-3.725 3.963-4.884 1.824-1.176 4.014-1.764 6.571-1.764 2.591 0 4.747.588 6.469 1.764 1.738 1.159 3.093 2.787 4.065 4.884h.409c1.006-2.029 2.514-3.64 4.526-4.833 2.011-1.21 4.423-1.815 7.236-1.815 3.511 0 6.383 1.099 8.616 3.298 2.233 2.182 3.349 5.583 3.349 10.202V454h-6.034v-26.284c0-2.898-.792-4.969-2.378-6.213-1.585-1.244-3.451-1.867-5.599-1.867-2.761 0-4.9.836-6.418 2.506-1.517 1.653-2.275 3.75-2.275 6.29V454h-6.136v-26.898c0-2.233-.725-4.031-2.174-5.395-1.449-1.38-3.315-2.071-5.599-2.071a8.276 8.276 0 00-4.398 1.253c-1.347.835-2.437 1.995-3.273 3.477-.818 1.466-1.227 3.162-1.227 5.089V454h-6.034zm74.135.92c-2.489 0-4.747-.468-6.776-1.406-2.028-.954-3.639-2.326-4.832-4.116-1.193-1.807-1.79-3.989-1.79-6.546 0-2.25.443-4.074 1.33-5.471a9.38 9.38 0 013.554-3.324c1.483-.801 3.119-1.398 4.909-1.79a59.918 59.918 0 015.446-.972c2.386-.306 4.321-.536 5.804-.69 1.5-.17 2.591-.452 3.273-.844.698-.392 1.048-1.074 1.048-2.045v-.205c0-2.522-.691-4.483-2.071-5.88-1.364-1.398-3.435-2.097-6.213-2.097-2.881 0-5.139.631-6.776 1.892-1.636 1.261-2.787 2.608-3.452 4.04l-5.727-2.046c1.023-2.386 2.387-4.244 4.091-5.573 1.722-1.347 3.597-2.285 5.625-2.813 2.046-.545 4.057-.818 6.034-.818 1.262 0 2.71.153 4.347.46 1.653.29 3.247.895 4.781 1.815 1.551.921 2.838 2.31 3.861 4.168 1.023 1.858 1.534 4.347 1.534 7.466V454h-6.034v-5.318h-.307c-.409.852-1.091 1.764-2.045 2.736-.955.971-2.225 1.798-3.81 2.48-1.585.682-3.52 1.022-5.804 1.022zm.92-5.42c2.387 0 4.398-.469 6.034-1.406 1.654-.938 2.898-2.148 3.733-3.631.853-1.483 1.279-3.043 1.279-4.679v-5.523c-.256.307-.818.588-1.688.844-.852.239-1.841.452-2.966.639-1.108.171-2.19.324-3.247.461-1.04.119-1.883.221-2.531.306a23.04 23.04 0 00-4.398.998c-1.346.443-2.437 1.116-3.272 2.019-.819.887-1.228 2.097-1.228 3.631 0 2.097.776 3.682 2.327 4.756 1.568 1.057 3.554 1.585 5.957 1.585zm28.093 4.5v-39.273h5.83v5.932h.409c.716-1.943 2.011-3.52 3.886-4.73 1.875-1.21 3.989-1.815 6.341-1.815.444 0 .997.008 1.662.025.665.017 1.168.043 1.509.077v6.136c-.205-.051-.674-.128-1.406-.23a13.881 13.881 0 00-2.276-.179c-1.909 0-3.614.401-5.114 1.202a9.06 9.06 0 00-3.528 3.273c-.852 1.38-1.278 2.957-1.278 4.73V454h-6.035zm32.414-14.318l-.102-7.466h1.227l17.182-17.489h7.466l-18.307 18.512h-.511l-6.955 6.443zM774.366 454v-52.364h6.035V454h-6.035zm24.955 0l-15.341-19.432 4.296-4.193L806.991 454h-7.67zm77.414-36h-6.341c-.375-1.824-1.031-3.426-1.969-4.807a13.083 13.083 0 00-3.375-3.477 14.295 14.295 0 00-4.372-2.148 17.465 17.465 0 00-5.011-.716c-3.171 0-6.043.801-8.617 2.404-2.556 1.602-4.593 3.963-6.11 7.082-1.5 3.119-2.25 6.946-2.25 11.48 0 4.534.75 8.361 2.25 11.48 1.517 3.12 3.554 5.48 6.11 7.083 2.574 1.602 5.446 2.403 8.617 2.403 1.739 0 3.409-.239 5.011-.716a14.63 14.63 0 004.372-2.122 13.46 13.46 0 003.375-3.503c.938-1.398 1.594-3 1.969-4.807h6.341c-.477 2.676-1.347 5.071-2.608 7.185a19.626 19.626 0 01-4.704 5.395 20.605 20.605 0 01-6.316 3.349c-2.318.767-4.798 1.151-7.44 1.151-4.466 0-8.438-1.091-11.915-3.273-3.477-2.182-6.213-5.284-8.207-9.307-1.995-4.022-2.992-8.795-2.992-14.318s.997-10.295 2.992-14.318c1.994-4.023 4.73-7.125 8.207-9.307 3.477-2.182 7.449-3.273 11.915-3.273 2.642 0 5.122.384 7.44 1.151a20.31 20.31 0 016.316 3.375c1.875 1.466 3.443 3.256 4.704 5.369 1.261 2.097 2.131 4.492 2.608 7.185zm15.462-16.364V454h-6.034v-52.364h6.034zm22.609 53.284c-2.489 0-4.747-.468-6.775-1.406-2.029-.954-3.64-2.326-4.833-4.116-1.193-1.807-1.79-3.989-1.79-6.546 0-2.25.444-4.074 1.33-5.471a9.38 9.38 0 013.554-3.324c1.483-.801 3.119-1.398 4.909-1.79a59.918 59.918 0 015.446-.972c2.386-.306 4.321-.536 5.804-.69 1.5-.17 2.591-.452 3.273-.844.699-.392 1.048-1.074 1.048-2.045v-.205c0-2.522-.69-4.483-2.071-5.88-1.364-1.398-3.435-2.097-6.213-2.097-2.881 0-5.139.631-6.776 1.892-1.636 1.261-2.787 2.608-3.451 4.04l-5.728-2.046c1.023-2.386 2.387-4.244 4.091-5.573 1.722-1.347 3.597-2.285 5.625-2.813 2.046-.545 4.057-.818 6.034-.818 1.262 0 2.711.153 4.347.46 1.653.29 3.247.895 4.781 1.815 1.551.921 2.838 2.31 3.861 4.168 1.023 1.858 1.534 4.347 1.534 7.466V454h-6.034v-5.318h-.307c-.409.852-1.091 1.764-2.045 2.736-.955.971-2.225 1.798-3.81 2.48-1.585.682-3.52 1.022-5.804 1.022zm.921-5.42c2.386 0 4.397-.469 6.034-1.406 1.653-.938 2.897-2.148 3.733-3.631.852-1.483 1.278-3.043 1.278-4.679v-5.523c-.256.307-.818.588-1.687.844-.853.239-1.841.452-2.966.639-1.108.171-2.191.324-3.248.461a162.24 162.24 0 00-2.531.306 23.04 23.04 0 00-4.398.998c-1.346.443-2.437 1.116-3.272 2.019-.818.887-1.228 2.097-1.228 3.631 0 2.097.776 3.682 2.327 4.756 1.568 1.057 3.554 1.585 5.958 1.585zm55.911-25.977l-5.421 1.534c-.341-.904-.843-1.781-1.508-2.634-.648-.869-1.534-1.585-2.659-2.147-1.125-.563-2.566-.844-4.321-.844-2.404 0-4.407.554-6.009 1.662-1.585 1.091-2.378 2.48-2.378 4.167 0 1.5.546 2.685 1.637 3.554 1.091.87 2.795 1.594 5.113 2.174l5.83 1.431c3.511.853 6.128 2.157 7.849 3.912 1.722 1.739 2.583 3.98 2.583 6.725 0 2.25-.648 4.261-1.943 6.034-1.279 1.773-3.069 3.17-5.37 4.193-2.301 1.023-4.977 1.534-8.028 1.534-4.006 0-7.321-.869-9.946-2.608-2.625-1.738-4.287-4.278-4.986-7.619l5.727-1.432c.546 2.114 1.577 3.699 3.094 4.756 1.534 1.057 3.537 1.585 6.009 1.585 2.812 0 5.045-.597 6.698-1.79 1.671-1.21 2.506-2.659 2.506-4.346 0-1.364-.477-2.506-1.432-3.426-.954-.938-2.42-1.637-4.397-2.097l-6.546-1.534c-3.597-.852-6.239-2.173-7.926-3.963-1.671-1.807-2.506-4.066-2.506-6.776 0-2.216.622-4.176 1.867-5.88 1.261-1.705 2.974-3.043 5.139-4.015 2.182-.971 4.653-1.457 7.415-1.457 3.886 0 6.937.852 9.153 2.557 2.233 1.704 3.818 3.954 4.756 6.75zm37.612 0l-5.42 1.534c-.34-.904-.84-1.781-1.5-2.634-.65-.869-1.54-1.585-2.663-2.147-1.125-.563-2.565-.844-4.321-.844-2.404 0-4.406.554-6.009 1.662-1.585 1.091-2.377 2.48-2.377 4.167 0 1.5.545 2.685 1.636 3.554 1.091.87 2.795 1.594 5.114 2.174l5.829 1.431c3.511.853 6.131 2.157 7.851 3.912 1.72 1.739 2.58 3.98 2.58 6.725 0 2.25-.65 4.261-1.94 6.034-1.28 1.773-3.07 3.17-5.37 4.193-2.3 1.023-4.979 1.534-8.03 1.534-4.006 0-7.321-.869-9.946-2.608-2.625-1.738-4.287-4.278-4.986-7.619l5.727-1.432c.546 2.114 1.577 3.699 3.094 4.756 1.534 1.057 3.537 1.585 6.009 1.585 2.812 0 5.045-.597 6.702-1.79 1.67-1.21 2.5-2.659 2.5-4.346 0-1.364-.48-2.506-1.43-3.426-.95-.938-2.42-1.637-4.397-2.097l-6.546-1.534c-3.596-.852-6.238-2.173-7.926-3.963-1.67-1.807-2.506-4.066-2.506-6.776 0-2.216.623-4.176 1.867-5.88 1.261-1.705 2.974-3.043 5.139-4.015 2.182-.971 4.654-1.457 7.415-1.457 3.886 0 6.934.852 9.154 2.557 2.23 1.704 3.82 3.954 4.75 6.75zm9.8 30.477v-39.273h6.04V454h-6.04zm3.07-45.818c-1.17 0-2.19-.401-3.04-1.202-.84-.801-1.25-1.764-1.25-2.889 0-1.125.41-2.088 1.25-2.889.85-.801 1.87-1.202 3.04-1.202 1.18 0 2.18.401 3.02 1.202.85.801 1.28 1.764 1.28 2.889 0 1.125-.43 2.088-1.28 2.889-.84.801-1.84 1.202-3.02 1.202zm31.51 6.545v5.114h-21.17v-5.114h21.17zM1038.8 454v-44.693c0-2.25.53-4.125 1.58-5.625a9.837 9.837 0 014.12-3.375 13.02 13.02 0 015.34-1.125c1.49 0 2.7.119 3.64.358.93.238 1.63.46 2.09.665l-1.74 5.215c-.3-.102-.73-.23-1.28-.383-.52-.153-1.22-.23-2.09-.23-2 0-3.44.503-4.32 1.508-.87 1.006-1.31 2.48-1.31 4.424V454h-6.03zm23.29 0v-39.273h6.03V454h-6.03zm3.06-45.818c-1.17 0-2.19-.401-3.04-1.202-.83-.801-1.25-1.764-1.25-2.889 0-1.125.42-2.088 1.25-2.889.85-.801 1.87-1.202 3.04-1.202 1.18 0 2.19.401 3.02 1.202.85.801 1.28 1.764 1.28 2.889 0 1.125-.43 2.088-1.28 2.889-.83.801-1.84 1.202-3.02 1.202zm29.98 46.636c-3.69 0-6.86-.869-9.52-2.608-2.65-1.738-4.7-4.133-6.13-7.184-1.43-3.052-2.15-6.537-2.15-10.458 0-3.988.73-7.508 2.2-10.559 1.48-3.069 3.54-5.464 6.19-7.185 2.66-1.739 5.76-2.608 9.3-2.608 2.76 0 5.25.511 7.47 1.534 2.22 1.023 4.03 2.455 5.45 4.295 1.41 1.841 2.29 3.989 2.63 6.444h-6.04c-.46-1.79-1.48-3.375-3.06-4.756-1.57-1.398-3.69-2.097-6.34-2.097-2.36 0-4.42.614-6.19 1.841-1.76 1.21-3.13 2.924-4.12 5.139-.97 2.199-1.46 4.782-1.46 7.748 0 3.034.48 5.676 1.44 7.926.97 2.25 2.33 3.997 4.09 5.241 1.77 1.245 3.85 1.867 6.24 1.867 1.56 0 2.99-.273 4.27-.818a8.804 8.804 0 003.24-2.353c.89-1.022 1.52-2.25 1.89-3.682h6.04a14.041 14.041 0 01-2.53 6.265c-1.33 1.841-3.1 3.306-5.29 4.397-2.19 1.074-4.73 1.611-7.62 1.611zm35.82.102c-2.49 0-4.75-.468-6.78-1.406-2.03-.954-3.64-2.326-4.83-4.116-1.19-1.807-1.79-3.989-1.79-6.546 0-2.25.44-4.074 1.33-5.471a9.346 9.346 0 013.55-3.324c1.49-.801 3.12-1.398 4.91-1.79 1.81-.409 3.62-.733 5.45-.972a251.4 251.4 0 015.8-.69c1.5-.17 2.59-.452 3.27-.844.7-.392 1.05-1.074 1.05-2.045v-.205c0-2.522-.69-4.483-2.07-5.88-1.36-1.398-3.43-2.097-6.21-2.097-2.88 0-5.14.631-6.78 1.892-1.63 1.261-2.78 2.608-3.45 4.04l-5.73-2.046c1.03-2.386 2.39-4.244 4.09-5.573 1.73-1.347 3.6-2.285 5.63-2.813 2.05-.545 4.06-.818 6.03-.818 1.27 0 2.71.153 4.35.46 1.65.29 3.25.895 4.78 1.815 1.55.921 2.84 2.31 3.86 4.168 1.03 1.858 1.54 4.347 1.54 7.466V454h-6.04v-5.318h-.3c-.41.852-1.1 1.764-2.05 2.736-.95.971-2.22 1.798-3.81 2.48-1.58.682-3.52 1.022-5.8 1.022zm.92-5.42c2.38 0 4.39-.469 6.03-1.406 1.65-.938 2.9-2.148 3.73-3.631.86-1.483 1.28-3.043 1.28-4.679v-5.523c-.25.307-.82.588-1.68.844-.86.239-1.85.452-2.97.639-1.11.171-2.19.324-3.25.461-1.04.119-1.88.221-2.53.306a23.13 23.13 0 00-4.4.998c-1.34.443-2.43 1.116-3.27 2.019-.82.887-1.23 2.097-1.23 3.631 0 2.097.78 3.682 2.33 4.756 1.57 1.057 3.55 1.585 5.96 1.585zm45.17-34.773v5.114h-20.35v-5.114h20.35zm-14.42-9.409h6.03v37.432c0 1.705.25 2.983.74 3.835.52.835 1.16 1.398 1.95 1.688.8.272 1.64.409 2.53.409.66 0 1.21-.034 1.64-.102.42-.086.76-.154 1.02-.205l1.23 5.42c-.41.154-.98.307-1.72.461-.73.17-1.66.255-2.78.255-1.71 0-3.38-.366-5.02-1.099-1.61-.733-2.96-1.85-4.04-3.35-1.05-1.5-1.58-3.392-1.58-5.676v-39.068zm23.5 48.682v-39.273h6.03V454h-6.03zm3.06-45.818c-1.17 0-2.19-.401-3.04-1.202-.83-.801-1.25-1.764-1.25-2.889 0-1.125.42-2.088 1.25-2.889.85-.801 1.87-1.202 3.04-1.202 1.18 0 2.19.401 3.02 1.202.85.801 1.28 1.764 1.28 2.889 0 1.125-.43 2.088-1.28 2.889-.83.801-1.84 1.202-3.02 1.202zm29.98 46.636c-3.55 0-6.66-.844-9.34-2.531-2.65-1.688-4.73-4.048-6.23-7.082-1.49-3.035-2.23-6.58-2.23-10.637 0-4.091.74-7.662 2.23-10.713 1.5-3.051 3.58-5.42 6.23-7.108 2.68-1.687 5.79-2.531 9.34-2.531 3.54 0 6.64.844 9.3 2.531 2.68 1.688 4.76 4.057 6.24 7.108 1.5 3.051 2.25 6.622 2.25 10.713 0 4.057-.75 7.602-2.25 10.637-1.48 3.034-3.56 5.394-6.24 7.082-2.66 1.687-5.76 2.531-9.3 2.531zm0-5.42c2.69 0 4.91-.691 6.64-2.071 1.74-1.381 3.03-3.196 3.87-5.446.83-2.25 1.25-4.688 1.25-7.313s-.42-5.071-1.25-7.338c-.84-2.267-2.13-4.099-3.87-5.497-1.73-1.398-3.95-2.097-6.64-2.097-2.7 0-4.91.699-6.65 2.097-1.74 1.398-3.03 3.23-3.86 5.497-.84 2.267-1.25 4.713-1.25 7.338s.41 5.063 1.25 7.313c.83 2.25 2.12 4.065 3.86 5.446 1.74 1.38 3.95 2.071 6.65 2.071zm33.04-19.023V454h-6.04v-39.273h5.83v6.137h.51c.92-1.995 2.32-3.597 4.2-4.807 1.87-1.227 4.29-1.841 7.26-1.841 2.66 0 4.98.545 6.98 1.636 1.99 1.074 3.54 2.71 4.65 4.909 1.11 2.182 1.66 4.944 1.66 8.284V454h-6.03v-24.545c0-3.086-.8-5.489-2.4-7.211-1.61-1.738-3.8-2.608-6.6-2.608-1.93 0-3.65.418-5.16 1.253-1.5.835-2.69 2.054-3.56 3.656-.87 1.603-1.3 3.546-1.3 5.83zm71.16 24.341c-3.44 0-6.41-.631-8.9-1.892-2.49-1.262-4.4-2.992-5.75-5.19-1.35-2.199-2.02-4.714-2.02-7.543 0-2.182.46-4.117 1.38-5.804.94-1.705 2.22-3.281 3.86-4.73 1.65-1.466 3.56-2.932 5.7-4.398l7.57-5.625c1.48-.972 2.67-2.011 3.55-3.119.91-1.108 1.36-2.557 1.36-4.347 0-1.329-.59-2.616-1.76-3.861-1.16-1.244-2.69-1.866-4.58-1.866-1.33 0-2.51.341-3.53 1.023-1 .664-1.8 1.517-2.38 2.556-.56 1.023-.84 2.08-.84 3.171 0 1.227.33 2.471 1 3.733.68 1.244 1.54 2.523 2.58 3.835 1.06 1.296 2.15 2.625 3.27 3.989L1347.91 454h-7.27l-19.84-23.932-5.01-6.034c-1.5-1.807-2.69-3.588-3.58-5.344-.88-1.755-1.33-3.656-1.33-5.701 0-2.353.52-4.415 1.56-6.188 1.06-1.79 2.53-3.179 4.43-4.167 1.9-1.006 4.14-1.509 6.69-1.509 2.63 0 4.89.511 6.78 1.534 1.89 1.006 3.35 2.344 4.37 4.014a10.009 10.009 0 011.54 5.395c0 2.506-.63 4.679-1.87 6.52-1.24 1.841-2.94 3.554-5.09 5.139l-10.43 7.773c-2.35 1.739-3.95 3.426-4.78 5.062-.84 1.637-1.25 2.813-1.25 3.529 0 1.636.42 3.162 1.27 4.577.86 1.414 2.06 2.556 3.61 3.426 1.55.869 3.37 1.304 5.45 1.304 1.97 0 3.9-.418 5.77-1.253 1.88-.852 3.57-2.08 5.09-3.682 1.54-1.602 2.75-3.528 3.63-5.778.91-2.25 1.36-4.782 1.36-7.594h5.83c0 3.477-.4 6.315-1.2 8.514-.81 2.199-1.71 3.921-2.71 5.165-1.01 1.244-1.82 2.173-2.43 2.787-.21.255-.4.511-.57.767-.17.256-.35.511-.56.767-1.69 1.892-3.82 3.307-6.39 4.244-2.57.921-5.11 1.381-7.62 1.381zm-848.883 39.545v-5.625h39.273v5.625h-16.466V541h-6.341v-46.739h-16.466zm54.454 47.659c-2.489 0-4.747-.468-6.775-1.406-2.029-.954-3.64-2.326-4.833-4.116-1.193-1.807-1.79-3.989-1.79-6.546 0-2.25.444-4.074 1.33-5.471a9.38 9.38 0 013.554-3.324c1.483-.801 3.119-1.398 4.909-1.79a59.918 59.918 0 015.446-.972c2.386-.306 4.321-.536 5.804-.69 1.5-.17 2.591-.452 3.273-.844.699-.392 1.048-1.074 1.048-2.045v-.205c0-2.522-.69-4.483-2.071-5.88-1.364-1.398-3.435-2.097-6.213-2.097-2.881 0-5.139.631-6.776 1.892-1.636 1.261-2.787 2.608-3.451 4.04l-5.728-2.046c1.023-2.386 2.387-4.244 4.091-5.573 1.722-1.347 3.597-2.285 5.625-2.813 2.046-.545 4.057-.818 6.034-.818 1.262 0 2.711.153 4.347.46 1.653.29 3.247.895 4.781 1.815 1.551.921 2.838 2.31 3.861 4.168 1.023 1.858 1.534 4.347 1.534 7.466V541h-6.034v-5.318h-.307c-.409.852-1.091 1.764-2.045 2.736-.955.971-2.225 1.798-3.81 2.48-1.585.682-3.52 1.022-5.804 1.022zm.921-5.42c2.386 0 4.397-.469 6.034-1.406 1.653-.938 2.897-2.148 3.733-3.631.852-1.483 1.278-3.043 1.278-4.679v-5.523c-.256.307-.818.588-1.687.844-.853.239-1.841.452-2.966.639-1.108.171-2.191.324-3.248.461a162.24 162.24 0 00-2.531.306 23.04 23.04 0 00-4.398.998c-1.346.443-2.437 1.116-3.272 2.019-.818.887-1.228 2.097-1.228 3.631 0 2.097.776 3.682 2.327 4.756 1.568 1.057 3.554 1.585 5.958 1.585zm43.945 20.045c-2.915 0-5.421-.375-7.517-1.125-2.097-.732-3.844-1.704-5.242-2.914-1.38-1.193-2.48-2.472-3.298-3.836l4.807-3.375a37.928 37.928 0 002.071 2.455c.835.938 1.977 1.747 3.426 2.429 1.466.699 3.384 1.048 5.753 1.048 3.17 0 5.787-.767 7.849-2.301 2.063-1.534 3.094-3.937 3.094-7.21v-7.977h-.511c-.443.716-1.074 1.602-1.892 2.659-.801 1.04-1.961 1.968-3.478 2.787-1.5.801-3.528 1.201-6.085 1.201-3.17 0-6.017-.75-8.54-2.25-2.505-1.5-4.491-3.681-5.957-6.545-1.449-2.864-2.173-6.341-2.173-10.432 0-4.023.707-7.525 2.122-10.508 1.415-3 3.383-5.319 5.906-6.955 2.523-1.653 5.438-2.48 8.744-2.48 2.557 0 4.586.426 6.086 1.278 1.517.836 2.676 1.79 3.477 2.864.818 1.057 1.449 1.926 1.892 2.608h.614v-6.239h5.829v40.398c0 3.375-.767 6.119-2.301 8.233-1.517 2.131-3.562 3.69-6.136 4.679-2.557 1.006-5.404 1.508-8.54 1.508zm-.205-21.579c2.421 0 4.466-.554 6.137-1.662 1.67-1.108 2.94-2.702 3.809-4.781.87-2.08 1.304-4.568 1.304-7.466 0-2.83-.426-5.327-1.278-7.492-.852-2.164-2.114-3.86-3.784-5.088-1.671-1.227-3.733-1.841-6.188-1.841-2.556 0-4.687.648-6.392 1.944-1.687 1.295-2.957 3.034-3.809 5.215-.836 2.182-1.253 4.603-1.253 7.262 0 2.727.426 5.139 1.278 7.236.87 2.079 2.148 3.716 3.835 4.909 1.705 1.176 3.819 1.764 6.341 1.764zm44.08 21.579c-2.915 0-5.421-.375-7.517-1.125-2.097-.732-3.844-1.704-5.242-2.914-1.38-1.193-2.48-2.472-3.298-3.836l4.807-3.375a37.928 37.928 0 002.071 2.455c.835.938 1.977 1.747 3.426 2.429 1.466.699 3.384 1.048 5.753 1.048 3.17 0 5.787-.767 7.849-2.301 2.063-1.534 3.094-3.937 3.094-7.21v-7.977h-.511c-.443.716-1.074 1.602-1.892 2.659-.801 1.04-1.961 1.968-3.478 2.787-1.5.801-3.528 1.201-6.085 1.201-3.17 0-6.017-.75-8.54-2.25-2.505-1.5-4.491-3.681-5.957-6.545-1.449-2.864-2.173-6.341-2.173-10.432 0-4.023.707-7.525 2.122-10.508 1.415-3 3.383-5.319 5.906-6.955 2.523-1.653 5.438-2.48 8.744-2.48 2.557 0 4.586.426 6.086 1.278 1.517.836 2.676 1.79 3.477 2.864.818 1.057 1.449 1.926 1.892 2.608h.614v-6.239h5.829v40.398c0 3.375-.767 6.119-2.301 8.233-1.517 2.131-3.562 3.69-6.136 4.679-2.557 1.006-5.404 1.508-8.54 1.508zm-.205-21.579c2.421 0 4.466-.554 6.137-1.662 1.67-1.108 2.94-2.702 3.809-4.781.87-2.08 1.304-4.568 1.304-7.466 0-2.83-.426-5.327-1.278-7.492-.852-2.164-2.114-3.86-3.784-5.088-1.671-1.227-3.733-1.841-6.188-1.841-2.556 0-4.687.648-6.392 1.944-1.687 1.295-2.957 3.034-3.809 5.215-.836 2.182-1.253 4.603-1.253 7.262 0 2.727.426 5.139 1.278 7.236.87 2.079 2.148 3.716 3.835 4.909 1.705 1.176 3.819 1.764 6.341 1.764zM645.695 541v-39.273h6.034V541h-6.034zm3.068-45.818c-1.176 0-2.191-.401-3.043-1.202-.835-.801-1.253-1.764-1.253-2.889 0-1.125.418-2.088 1.253-2.889.852-.801 1.867-1.202 3.043-1.202 1.176 0 2.182.401 3.017 1.202.852.801 1.278 1.764 1.278 2.889 0 1.125-.426 2.088-1.278 2.889-.835.801-1.841 1.202-3.017 1.202zm20.052 22.193V541h-6.034v-39.273h5.829v6.137h.511c.921-1.995 2.319-3.597 4.194-4.807 1.875-1.227 4.295-1.841 7.261-1.841 2.659 0 4.986.545 6.98 1.636 1.994 1.074 3.546 2.71 4.654 4.909 1.107 2.182 1.661 4.944 1.661 8.284V541h-6.034v-24.545c0-3.086-.801-5.489-2.403-7.211-1.602-1.738-3.801-2.608-6.597-2.608-1.926 0-3.647.418-5.164 1.253-1.5.835-2.685 2.054-3.554 3.656-.87 1.603-1.304 3.546-1.304 5.83zm51.935 39.17c-2.915 0-5.42-.375-7.517-1.125-2.097-.732-3.844-1.704-5.242-2.914-1.38-1.193-2.48-2.472-3.298-3.836l4.807-3.375a37.928 37.928 0 002.071 2.455c.835.938 1.977 1.747 3.426 2.429 1.466.699 3.384 1.048 5.753 1.048 3.17 0 5.787-.767 7.849-2.301 2.063-1.534 3.094-3.937 3.094-7.21v-7.977h-.511c-.443.716-1.074 1.602-1.892 2.659-.801 1.04-1.96 1.968-3.478 2.787-1.5.801-3.528 1.201-6.085 1.201-3.17 0-6.017-.75-8.539-2.25-2.506-1.5-4.492-3.681-5.958-6.545-1.449-2.864-2.173-6.341-2.173-10.432 0-4.023.707-7.525 2.122-10.508 1.415-3 3.384-5.319 5.906-6.955 2.523-1.653 5.438-2.48 8.745-2.48 2.556 0 4.585.426 6.085 1.278 1.517.836 2.676 1.79 3.477 2.864.818 1.057 1.449 1.926 1.892 2.608h.614v-6.239h5.829v40.398c0 3.375-.767 6.119-2.301 8.233-1.517 2.131-3.562 3.69-6.136 4.679-2.557 1.006-5.404 1.508-8.54 1.508zm-.205-21.579c2.421 0 4.466-.554 6.137-1.662 1.67-1.108 2.94-2.702 3.809-4.781.87-2.08 1.304-4.568 1.304-7.466 0-2.83-.426-5.327-1.278-7.492-.852-2.164-2.114-3.86-3.784-5.088-1.67-1.227-3.733-1.841-6.188-1.841-2.556 0-4.687.648-6.392 1.944-1.687 1.295-2.957 3.034-3.809 5.215-.835 2.182-1.253 4.603-1.253 7.262 0 2.727.426 5.139 1.278 7.236.87 2.079 2.148 3.716 3.836 4.909 1.704 1.176 3.818 1.764 6.34 1.764zm65.966-33.239v5.114h-21.17v-5.114h21.17zM771.682 541v-44.693c0-2.25.528-4.125 1.585-5.625a9.823 9.823 0 014.117-3.375 13.007 13.007 0 015.343-1.125c1.483 0 2.693.119 3.631.358.937.238 1.636.46 2.097.665l-1.739 5.215a29.91 29.91 0 00-1.278-.383c-.529-.153-1.228-.23-2.097-.23-1.994 0-3.435.503-4.321 1.508-.869 1.006-1.304 2.48-1.304 4.424V541h-6.034zm37.623.818c-3.545 0-6.656-.844-9.332-2.531-2.659-1.688-4.739-4.048-6.239-7.082-1.483-3.035-2.224-6.58-2.224-10.637 0-4.091.741-7.662 2.224-10.713 1.5-3.051 3.58-5.42 6.239-7.108 2.676-1.687 5.787-2.531 9.332-2.531 3.546 0 6.648.844 9.307 2.531 2.676 1.688 4.756 4.057 6.239 7.108 1.5 3.051 2.25 6.622 2.25 10.713 0 4.057-.75 7.602-2.25 10.637-1.483 3.034-3.563 5.394-6.239 7.082-2.659 1.687-5.761 2.531-9.307 2.531zm0-5.42c2.694 0 4.909-.691 6.648-2.071 1.739-1.381 3.026-3.196 3.861-5.446.835-2.25 1.253-4.688 1.253-7.313s-.418-5.071-1.253-7.338c-.835-2.267-2.122-4.099-3.861-5.497-1.739-1.398-3.954-2.097-6.648-2.097-2.693 0-4.909.699-6.647 2.097-1.739 1.398-3.026 3.23-3.861 5.497-.835 2.267-1.253 4.713-1.253 7.338s.418 5.063 1.253 7.313 2.122 4.065 3.861 5.446c1.738 1.38 3.954 2.071 6.647 2.071zM836.312 541v-39.273h5.829v5.932h.409c.716-1.943 2.012-3.52 3.887-4.73 1.875-1.21 3.988-1.815 6.341-1.815.443 0 .997.008 1.662.025.664.017 1.167.043 1.508.077v6.136c-.204-.051-.673-.128-1.406-.23a13.881 13.881 0 00-2.276-.179c-1.909 0-3.613.401-5.113 1.202a9.069 9.069 0 00-3.529 3.273c-.852 1.38-1.278 2.957-1.278 4.73V541h-6.034zm76.493-39.273c-.306-2.591-1.551-4.602-3.733-6.034-2.181-1.432-4.858-2.148-8.028-2.148-2.318 0-4.347.375-6.085 1.125-1.722.75-3.068 1.782-4.04 3.094-.955 1.313-1.432 2.804-1.432 4.475 0 1.397.333 2.599.997 3.605a8.87 8.87 0 002.608 2.48 18.666 18.666 0 003.324 1.611c1.159.409 2.225.741 3.196.997l5.318 1.432c1.364.358 2.881.852 4.552 1.483a20.987 20.987 0 014.832 2.582c1.551 1.074 2.829 2.455 3.835 4.142 1.006 1.688 1.509 3.759 1.509 6.213 0 2.83-.742 5.386-2.225 7.671-1.466 2.284-3.613 4.099-6.443 5.446-2.812 1.346-6.23 2.019-10.253 2.019-3.75 0-6.997-.605-9.741-1.815-2.728-1.21-4.875-2.898-6.443-5.062-1.552-2.165-2.429-4.679-2.634-7.543h6.545c.171 1.977.836 3.614 1.995 4.909 1.176 1.278 2.659 2.233 4.449 2.864 1.806.613 3.75.92 5.829.92 2.421 0 4.594-.392 6.52-1.176 1.926-.801 3.452-1.909 4.577-3.324 1.125-1.432 1.687-3.102 1.687-5.011 0-1.739-.485-3.154-1.457-4.244-.972-1.091-2.25-1.978-3.835-2.66a40.422 40.422 0 00-5.14-1.789l-6.443-1.841c-4.091-1.176-7.329-2.855-9.716-5.037-2.386-2.182-3.579-5.037-3.579-8.566 0-2.931.792-5.488 2.378-7.67 1.602-2.199 3.75-3.903 6.443-5.114 2.71-1.227 5.736-1.841 9.077-1.841 3.375 0 6.375.606 9 1.816 2.625 1.193 4.704 2.829 6.238 4.909 1.551 2.079 2.37 4.44 2.455 7.082h-6.137zm32.414 40.091c-3.545 0-6.656-.844-9.332-2.531-2.659-1.688-4.739-4.048-6.239-7.082-1.483-3.035-2.224-6.58-2.224-10.637 0-4.091.741-7.662 2.224-10.713 1.5-3.051 3.58-5.42 6.239-7.108 2.676-1.687 5.787-2.531 9.332-2.531 3.546 0 6.648.844 9.307 2.531 2.676 1.688 4.756 4.057 6.239 7.108 1.5 3.051 2.25 6.622 2.25 10.713 0 4.057-.75 7.602-2.25 10.637-1.483 3.034-3.563 5.394-6.239 7.082-2.659 1.687-5.761 2.531-9.307 2.531zm0-5.42c2.694 0 4.91-.691 6.648-2.071 1.739-1.381 3.026-3.196 3.861-5.446.835-2.25 1.253-4.688 1.253-7.313s-.418-5.071-1.253-7.338c-.835-2.267-2.122-4.099-3.861-5.497-1.738-1.398-3.954-2.097-6.648-2.097-2.693 0-4.909.699-6.647 2.097-1.739 1.398-3.026 3.23-3.861 5.497-.835 2.267-1.253 4.713-1.253 7.338s.418 5.063 1.253 7.313 2.122 4.065 3.861 5.446c1.738 1.38 3.954 2.071 6.647 2.071zm42.961 5.42c-3.681 0-6.852-.869-9.511-2.608-2.659-1.738-4.705-4.133-6.136-7.184-1.432-3.052-2.148-6.537-2.148-10.458 0-3.988.733-7.508 2.199-10.559 1.483-3.069 3.545-5.464 6.187-7.185 2.659-1.739 5.762-2.608 9.307-2.608 2.761 0 5.25.511 7.466 1.534 2.216 1.023 4.031 2.455 5.446 4.295 1.41 1.841 2.29 3.989 2.63 6.444h-6.031c-.46-1.79-1.482-3.375-3.068-4.756-1.568-1.398-3.682-2.097-6.341-2.097-2.352 0-4.414.614-6.187 1.841-1.756 1.21-3.128 2.924-4.117 5.139-.971 2.199-1.457 4.782-1.457 7.748 0 3.034.477 5.676 1.432 7.926.971 2.25 2.335 3.997 4.091 5.241 1.772 1.245 3.852 1.867 6.238 1.867 1.569 0 2.992-.273 4.27-.818a8.804 8.804 0 003.247-2.353c.887-1.022 1.517-2.25 1.892-3.682h6.031c-.34 2.319-1.18 4.407-2.53 6.265-1.327 1.841-3.091 3.306-5.29 4.397-2.182 1.074-4.722 1.611-7.62 1.611zm24.26-.818v-39.273h6.04V541h-6.04zm3.07-45.818c-1.17 0-2.19-.401-3.04-1.202-.84-.801-1.25-1.764-1.25-2.889 0-1.125.41-2.088 1.25-2.889.85-.801 1.87-1.202 3.04-1.202 1.18 0 2.18.401 3.02 1.202.85.801 1.28 1.764 1.28 2.889 0 1.125-.43 2.088-1.28 2.889-.84.801-1.84 1.202-3.02 1.202zm25.58 46.738c-2.49 0-4.75-.468-6.78-1.406-2.03-.954-3.64-2.326-4.83-4.116-1.19-1.807-1.79-3.989-1.79-6.546 0-2.25.44-4.074 1.33-5.471a9.419 9.419 0 013.55-3.324c1.49-.801 3.12-1.398 4.91-1.79 1.81-.409 3.62-.733 5.45-.972a251.4 251.4 0 015.8-.69c1.5-.17 2.59-.452 3.27-.844.7-.392 1.05-1.074 1.05-2.045v-.205c0-2.522-.69-4.483-2.07-5.88-1.36-1.398-3.43-2.097-6.21-2.097-2.88 0-5.14.631-6.78 1.892-1.63 1.261-2.78 2.608-3.45 4.04l-5.73-2.046c1.03-2.386 2.39-4.244 4.1-5.573 1.72-1.347 3.59-2.285 5.62-2.813 2.05-.545 4.06-.818 6.03-.818 1.27 0 2.71.153 4.35.46 1.65.29 3.25.895 4.78 1.815 1.55.921 2.84 2.31 3.86 4.168 1.03 1.858 1.54 4.347 1.54 7.466V541h-6.04v-5.318h-.3c-.41.852-1.09 1.764-2.05 2.736-.95.971-2.22 1.798-3.81 2.48-1.58.682-3.52 1.022-5.8 1.022zm.92-5.42c2.38 0 4.4-.469 6.03-1.406 1.66-.938 2.9-2.148 3.73-3.631.86-1.483 1.28-3.043 1.28-4.679v-5.523c-.25.307-.81.588-1.68.844-.86.239-1.85.452-2.97.639-1.11.171-2.19.324-3.25.461-1.04.119-1.88.221-2.53.306a23.13 23.13 0 00-4.4.998c-1.34.443-2.43 1.116-3.27 2.019-.82.887-1.23 2.097-1.23 3.631 0 2.097.78 3.682 2.33 4.756 1.57 1.057 3.55 1.585 5.96 1.585zm34.12-47.864V541h-6.03v-52.364h6.03zm38.47 0V541h-6.35v-52.364h6.35zM1126.49 541v-39.273h5.83v6.137h.51c.82-2.097 2.14-3.725 3.97-4.884 1.82-1.176 4.01-1.764 6.57-1.764 2.59 0 4.74.588 6.47 1.764 1.73 1.159 3.09 2.787 4.06 4.884h.41c1.01-2.029 2.51-3.64 4.53-4.833 2.01-1.21 4.42-1.815 7.23-1.815 3.51 0 6.38 1.099 8.62 3.298 2.23 2.182 3.35 5.583 3.35 10.202V541H1172v-26.284c0-2.898-.79-4.969-2.38-6.213-1.58-1.244-3.45-1.867-5.59-1.867-2.77 0-4.9.836-6.42 2.506-1.52 1.653-2.28 3.75-2.28 6.29V541h-6.13v-26.898c0-2.233-.73-4.031-2.18-5.395-1.45-1.38-3.31-2.071-5.6-2.071a8.26 8.26 0 00-4.39 1.253c-1.35.835-2.44 1.995-3.28 3.477-.82 1.466-1.22 3.162-1.22 5.089V541h-6.04zm74.14.92c-2.49 0-4.75-.468-6.78-1.406-2.03-.954-3.64-2.326-4.83-4.116-1.19-1.807-1.79-3.989-1.79-6.546 0-2.25.44-4.074 1.33-5.471a9.346 9.346 0 013.55-3.324c1.49-.801 3.12-1.398 4.91-1.79 1.81-.409 3.62-.733 5.45-.972a251.4 251.4 0 015.8-.69c1.5-.17 2.59-.452 3.27-.844.7-.392 1.05-1.074 1.05-2.045v-.205c0-2.522-.69-4.483-2.07-5.88-1.36-1.398-3.43-2.097-6.21-2.097-2.88 0-5.14.631-6.78 1.892-1.63 1.261-2.78 2.608-3.45 4.04l-5.73-2.046c1.03-2.386 2.39-4.244 4.09-5.573 1.73-1.347 3.6-2.285 5.63-2.813 2.05-.545 4.06-.818 6.03-.818 1.27 0 2.71.153 4.35.46 1.65.29 3.25.895 4.78 1.815 1.55.921 2.84 2.31 3.86 4.168 1.03 1.858 1.54 4.347 1.54 7.466V541h-6.04v-5.318h-.3c-.41.852-1.1 1.764-2.05 2.736-.95.971-2.22 1.798-3.81 2.48-1.58.682-3.52 1.022-5.8 1.022zm.92-5.42c2.38 0 4.39-.469 6.03-1.406 1.65-.938 2.9-2.148 3.73-3.631.86-1.483 1.28-3.043 1.28-4.679v-5.523c-.25.307-.82.588-1.69.844-.85.239-1.84.452-2.96.639-1.11.171-2.19.324-3.25.461-1.04.119-1.88.221-2.53.306a23.13 23.13 0 00-4.4.998c-1.34.443-2.43 1.116-3.27 2.019-.82.887-1.23 2.097-1.23 3.631 0 2.097.78 3.682 2.33 4.756 1.57 1.057 3.55 1.585 5.96 1.585zm43.94 20.045c-2.91 0-5.42-.375-7.51-1.125-2.1-.732-3.85-1.704-5.25-2.914-1.38-1.193-2.48-2.472-3.29-3.836l4.8-3.375c.55.716 1.24 1.535 2.07 2.455.84.938 1.98 1.747 3.43 2.429 1.47.699 3.38 1.048 5.75 1.048 3.17 0 5.79-.767 7.85-2.301 2.06-1.534 3.1-3.937 3.1-7.21v-7.977h-.52c-.44.716-1.07 1.602-1.89 2.659-.8 1.04-1.96 1.968-3.48 2.787-1.5.801-3.52 1.201-6.08 1.201-3.17 0-6.02-.75-8.54-2.25-2.51-1.5-4.49-3.681-5.96-6.545-1.45-2.864-2.17-6.341-2.17-10.432 0-4.023.71-7.525 2.12-10.508 1.42-3 3.38-5.319 5.91-6.955 2.52-1.653 5.43-2.48 8.74-2.48 2.56 0 4.59.426 6.09 1.278 1.51.836 2.67 1.79 3.47 2.864a43.722 43.722 0 011.9 2.608h.61v-6.239h5.83v40.398c0 3.375-.77 6.119-2.3 8.233-1.52 2.131-3.56 3.69-6.14 4.679-2.55 1.006-5.4 1.508-8.54 1.508zm-.2-21.579c2.42 0 4.46-.554 6.13-1.662 1.67-1.108 2.94-2.702 3.81-4.781.87-2.08 1.31-4.568 1.31-7.466 0-2.83-.43-5.327-1.28-7.492-.85-2.164-2.11-3.86-3.78-5.088-1.68-1.227-3.74-1.841-6.19-1.841-2.56 0-4.69.648-6.39 1.944-1.69 1.295-2.96 3.034-3.81 5.215-.84 2.182-1.26 4.603-1.26 7.262 0 2.727.43 5.139 1.28 7.236.87 2.079 2.15 3.716 3.84 4.909 1.7 1.176 3.81 1.764 6.34 1.764zm44.69 6.852c-3.78 0-7.05-.835-9.79-2.506-2.73-1.687-4.83-4.039-6.32-7.056-1.46-3.034-2.2-6.563-2.2-10.586 0-4.022.74-7.568 2.2-10.636 1.49-3.085 3.55-5.489 6.19-7.21 2.66-1.739 5.76-2.608 9.31-2.608 2.04 0 4.06.341 6.06 1.023 1.99.681 3.81 1.789 5.44 3.323 1.64 1.518 2.94 3.529 3.91 6.035.98 2.505 1.46 5.59 1.46 9.255v2.557h-30.27v-5.216h24.14c0-2.216-.45-4.193-1.33-5.932-.87-1.738-2.12-3.11-3.74-4.116-1.6-1.006-3.49-1.509-5.67-1.509-2.41 0-4.49.597-6.24 1.79a11.795 11.795 0 00-4.02 4.602 13.617 13.617 0 00-1.4 6.086v3.477c0 2.966.51 5.48 1.53 7.543 1.04 2.045 2.48 3.605 4.32 4.678 1.84 1.057 3.98 1.586 6.42 1.586 1.59 0 3.02-.222 4.3-.665 1.29-.46 2.41-1.142 3.35-2.045.93-.921 1.66-2.063 2.17-3.427l5.83 1.637a13 13 0 01-3.1 5.216c-1.44 1.483-3.23 2.642-5.36 3.477-2.14.818-4.53 1.227-7.19 1.227z"
        fill="#FDD011" />
</svg>