<svg width="1440" height="1024" viewBox="0 0 1440 1024" fill="none" xmlns="http://www.w3.org/2000/svg">
<path d="M422 476H660V594C660 632.66 628.66 664 590 664H492C453.34 664 422 632.66 422 594V476Z" fill="#38B593"/>
<path d="M422 476H660V594C660 632.66 628.66 664 590 664H492C453.34 664 422 632.66 422 594V476Z" stroke="black"/>
<line x1="579" y1="402" x2="579" y2="476" stroke="#FDD011" stroke-width="16"/>
<path d="M493 402C493 346.001 579 345.999 579 402" stroke="#FDD011" stroke-width="16"/>
<line x1="493" y1="402" x2="493" y2="455" stroke="#FDD011" stroke-width="16"/>
<circle cx="536" cy="399" r="8" fill="white"/>
<path d="M463 416.5L485.5 394.416V438.584L463 416.5Z" fill="#FDD011"/>
<path d="M702.165 579V526.636H711.651V571.048H734.713V579H702.165ZM759.668 579.767C755.832 579.767 752.509 578.923 749.696 577.236C746.884 575.548 744.702 573.187 743.151 570.153C741.616 567.119 740.849 563.574 740.849 559.517C740.849 555.46 741.616 551.906 743.151 548.855C744.702 545.804 746.884 543.435 749.696 541.747C752.509 540.06 755.832 539.216 759.668 539.216C763.503 539.216 766.827 540.06 769.639 541.747C772.452 543.435 774.625 545.804 776.159 548.855C777.71 551.906 778.486 555.46 778.486 559.517C778.486 563.574 777.71 567.119 776.159 570.153C774.625 573.187 772.452 575.548 769.639 577.236C766.827 578.923 763.503 579.767 759.668 579.767ZM759.719 572.352C761.798 572.352 763.537 571.781 764.935 570.639C766.332 569.48 767.372 567.929 768.054 565.986C768.753 564.043 769.102 561.878 769.102 559.491C769.102 557.088 768.753 554.915 768.054 552.972C767.372 551.011 766.332 549.452 764.935 548.293C763.537 547.134 761.798 546.554 759.719 546.554C757.588 546.554 755.815 547.134 754.401 548.293C753.003 549.452 751.955 551.011 751.256 552.972C750.574 554.915 750.233 557.088 750.233 559.491C750.233 561.878 750.574 564.043 751.256 565.986C751.955 567.929 753.003 569.48 754.401 570.639C755.815 571.781 757.588 572.352 759.719 572.352ZM803.472 579.767C799.552 579.767 796.185 578.906 793.373 577.185C790.577 575.463 788.421 573.085 786.904 570.051C785.404 567 784.654 563.489 784.654 559.517C784.654 555.528 785.421 552.009 786.955 548.957C788.489 545.889 790.654 543.503 793.45 541.798C796.262 540.077 799.586 539.216 803.421 539.216C806.609 539.216 809.43 539.804 811.884 540.98C814.356 542.139 816.325 543.784 817.79 545.915C819.256 548.028 820.092 550.5 820.296 553.33H811.45C811.092 551.437 810.239 549.861 808.893 548.599C807.563 547.321 805.782 546.682 803.549 546.682C801.657 546.682 799.995 547.193 798.563 548.216C797.131 549.222 796.015 550.67 795.214 552.562C794.43 554.455 794.038 556.722 794.038 559.364C794.038 562.04 794.43 564.341 795.214 566.267C795.998 568.176 797.097 569.651 798.512 570.69C799.944 571.713 801.623 572.224 803.549 572.224C804.913 572.224 806.131 571.969 807.205 571.457C808.296 570.929 809.208 570.17 809.941 569.182C810.674 568.193 811.177 566.991 811.45 565.577H820.296C820.075 568.355 819.256 570.818 817.842 572.966C816.427 575.097 814.501 576.767 812.063 577.977C809.626 579.17 806.762 579.767 803.472 579.767ZM836.334 566.676L836.308 555.503H837.791L851.905 539.727H862.72L845.359 559.057H843.442L836.334 566.676ZM827.896 579V526.636H837.152V579H827.896ZM852.544 579L839.76 561.128L845.999 554.608L863.615 579H852.544ZM878.144 555.989V579H868.888V539.727H877.735V546.401H878.195C879.099 544.202 880.539 542.455 882.516 541.159C884.511 539.864 886.974 539.216 889.906 539.216C892.616 539.216 894.977 539.795 896.988 540.955C899.016 542.114 900.585 543.793 901.692 545.991C902.817 548.19 903.371 550.858 903.354 553.994V579H894.099V555.426C894.099 552.801 893.417 550.747 892.053 549.264C890.707 547.781 888.84 547.04 886.454 547.04C884.835 547.04 883.394 547.398 882.133 548.114C880.888 548.812 879.908 549.827 879.192 551.156C878.494 552.486 878.144 554.097 878.144 555.989ZM930.15 579.767C926.212 579.767 922.812 578.949 919.948 577.312C917.102 575.659 914.911 573.324 913.377 570.307C911.843 567.273 911.076 563.702 911.076 559.594C911.076 555.554 911.843 552.009 913.377 548.957C914.928 545.889 917.093 543.503 919.871 541.798C922.65 540.077 925.914 539.216 929.664 539.216C932.085 539.216 934.369 539.608 936.516 540.392C938.681 541.159 940.59 542.352 942.244 543.972C943.914 545.591 945.227 547.653 946.181 550.159C947.136 552.648 947.613 555.614 947.613 559.057V561.895H915.423V555.656H938.741C938.724 553.884 938.34 552.307 937.59 550.926C936.84 549.528 935.792 548.429 934.445 547.628C933.116 546.827 931.565 546.426 929.792 546.426C927.9 546.426 926.238 546.886 924.806 547.807C923.374 548.71 922.258 549.903 921.457 551.386C920.673 552.852 920.272 554.463 920.255 556.219V561.665C920.255 563.949 920.673 565.909 921.508 567.545C922.343 569.165 923.511 570.409 925.011 571.278C926.511 572.131 928.266 572.557 930.278 572.557C931.624 572.557 932.843 572.369 933.934 571.994C935.025 571.602 935.971 571.031 936.772 570.281C937.573 569.531 938.178 568.602 938.587 567.494L947.229 568.466C946.684 570.75 945.644 572.744 944.11 574.449C942.593 576.136 940.65 577.449 938.281 578.386C935.911 579.307 933.201 579.767 930.15 579.767ZM986.483 550.108L978.045 551.028C977.807 550.176 977.389 549.375 976.793 548.625C976.213 547.875 975.429 547.27 974.44 546.81C973.452 546.349 972.241 546.119 970.81 546.119C968.884 546.119 967.264 546.537 965.952 547.372C964.656 548.207 964.017 549.29 964.034 550.619C964.017 551.761 964.435 552.69 965.287 553.406C966.156 554.122 967.588 554.71 969.582 555.17L976.281 556.602C979.997 557.403 982.759 558.673 984.565 560.412C986.389 562.151 987.31 564.426 987.327 567.239C987.31 569.71 986.585 571.892 985.153 573.784C983.739 575.659 981.77 577.125 979.247 578.182C976.724 579.239 973.827 579.767 970.554 579.767C965.747 579.767 961.878 578.761 958.946 576.75C956.014 574.722 954.267 571.901 953.705 568.287L962.73 567.418C963.139 569.19 964.009 570.528 965.338 571.432C966.668 572.335 968.398 572.787 970.528 572.787C972.727 572.787 974.491 572.335 975.821 571.432C977.168 570.528 977.841 569.412 977.841 568.082C977.841 566.957 977.406 566.028 976.537 565.295C975.685 564.562 974.355 564 972.548 563.608L965.849 562.202C962.082 561.418 959.295 560.097 957.489 558.239C955.682 556.364 954.787 553.994 954.804 551.131C954.787 548.71 955.443 546.614 956.773 544.841C958.119 543.051 959.986 541.67 962.372 540.699C964.776 539.71 967.545 539.216 970.682 539.216C975.284 539.216 978.906 540.196 981.548 542.156C984.207 544.116 985.852 546.767 986.483 550.108ZM1014.57 539.727V546.886H991.993V539.727H1014.57ZM997.567 530.318H1006.82V567.188C1006.82 568.432 1007.01 569.386 1007.38 570.051C1007.78 570.699 1008.29 571.142 1008.92 571.381C1009.55 571.619 1010.25 571.739 1011.02 571.739C1011.6 571.739 1012.12 571.696 1012.6 571.611C1013.1 571.526 1013.47 571.449 1013.73 571.381L1015.29 578.616C1014.79 578.787 1014.08 578.974 1013.16 579.179C1012.26 579.384 1011.15 579.503 1009.84 579.537C1007.52 579.605 1005.43 579.256 1003.58 578.489C1001.72 577.705 1000.24 576.494 999.152 574.858C998.078 573.222 997.55 571.176 997.567 568.722V530.318Z" fill="#47E6BB"/>
</svg>
