<svg width="1440" height="1024" viewBox="0 0 179 66" fill="none" xmlns="http://www.w3.org/2000/svg">
    <path
        d="M49.6703 51.664C46.8969 51.664 44.9129 50.8747 43.7183 49.296C42.5236 47.6747 41.9263 45.3067 41.9263 42.192C41.9263 39.0773 42.9289 31.9093 44.9343 20.688H43.9103C41.3076 24.1013 39.1529 28.176 37.4463 32.912C35.7396 37.648 34.6943 41.9147 34.3103 45.712C32.2196 47.6747 29.8089 48.656 27.0783 48.656C25.9689 48.656 24.9876 48.272 24.1343 47.504C23.3236 46.6933 22.5129 45.3067 21.7023 43.344C20.1236 39.376 18.9929 31.824 18.3103 20.688H17.2863C15.1956 29.8613 14.1503 36.3253 14.1503 40.08C14.1503 43.8347 14.7903 46.736 16.0703 48.784C13.5103 50.704 10.8436 51.664 8.07025 51.664C5.29692 51.664 3.31292 50.8747 2.11825 49.296C0.923585 47.6747 0.326252 45.2853 0.326252 42.128C0.326252 38.928 1.67025 29.904 4.35825 15.056L0.966252 8.208C5.78759 5.09333 10.1823 3.536 14.1503 3.536C15.8996 3.536 17.3716 3.728 18.5663 4.112C19.8036 4.45333 20.9769 5.136 22.0863 6.16C23.2383 7.184 24.1769 8.61333 24.9023 10.448C26.5663 14.5867 27.7609 20.624 28.4863 28.56H29.2543C31.4729 22.032 34.5449 16.4213 38.4703 11.728C40.6036 9.21067 43.1423 7.22667 46.0863 5.776C49.0729 4.32533 52.2943 3.6 55.7503 3.6C59.0356 3.6 60.6783 5.584 60.6783 9.552C60.6783 10.8747 59.8463 15.8027 58.1823 24.336C56.5609 32.8267 55.7503 37.8827 55.7503 39.504C55.7503 43.6427 56.3903 46.736 57.6703 48.784C55.1103 50.704 52.4436 51.664 49.6703 51.664ZM85.3268 48.72C83.3214 49.4453 81.3161 49.808 79.3108 49.808C77.3054 49.808 75.6201 49.2107 74.2548 48.016C72.8894 46.8213 72.1001 45.2 71.8868 43.152C71.6734 41.104 71.4814 38.1387 71.3108 34.256C71.1401 30.3307 70.9694 27.5573 70.7988 25.936C70.2441 20.5173 68.5374 16.656 65.6788 14.352C67.6841 12.5173 70.2014 11.6 73.2308 11.6C74.8948 11.6 76.3454 12.048 77.5828 12.944C78.8201 13.7973 79.8014 14.9493 80.5268 16.4C81.2948 17.808 81.9134 19.6427 82.3828 21.904C83.1081 25.6587 83.4708 30.736 83.4708 37.136C83.4708 38.7147 83.4068 40.5707 83.2788 42.704H86.9908C91.3854 30.8427 93.5828 22.7573 93.5828 18.448C93.5828 16.9973 93.2628 15.632 92.6228 14.352C95.6094 12.5173 98.2121 11.6 100.431 11.6C104.569 11.6 106.639 13.9893 106.639 18.768C106.639 22.5653 104.889 29.2427 101.391 38.8C100.751 40.5493 100.388 41.5733 100.303 41.872C94.8841 57.3173 87.1828 65.04 77.1988 65.04C74.1694 65.04 71.6734 64.3787 69.7108 63.056C67.7481 61.776 66.7668 60.0693 66.7668 57.936C66.7668 55.8453 67.5561 53.648 69.1348 51.344C71.1828 54.2453 73.7428 55.696 76.8148 55.696C78.5641 55.696 80.1854 55.12 81.6788 53.968C83.2148 52.816 84.4308 51.0667 85.3268 48.72ZM119.395 10.192L115.811 5.072C121.144 1.95733 125.347 0.399998 128.419 0.399998C130.168 0.399998 131.405 0.762665 132.131 1.488C132.856 2.17066 133.219 3.49333 133.219 5.456C133.219 7.376 132.259 12.8373 130.339 21.84C128.461 30.8427 127.523 37.1573 127.523 40.784C127.523 44.4107 128.184 46.9707 129.507 48.464C126.52 50.5547 123.811 51.6 121.379 51.6C118.947 51.6 117.155 50.8107 116.003 49.232C114.893 47.6107 114.339 45.392 114.339 42.576C114.339 39.76 115.128 34 116.707 25.296C118.285 16.592 119.181 11.5573 119.395 10.192ZM170.196 16.464C172.585 16.464 174.633 17.424 176.34 19.344C178.089 21.264 178.964 24.0587 178.964 27.728C178.964 31.3547 178.324 34.7253 177.044 37.84C175.764 40.912 174.078 43.4293 171.988 45.392C169.897 47.3547 167.529 48.8907 164.884 50C162.238 51.0667 159.529 51.6 156.756 51.6C151.166 51.6 146.75 50.064 143.508 46.992C140.265 43.92 138.644 39.8453 138.644 34.768C138.644 27.8987 140.841 22.3307 145.236 18.064C149.673 13.7547 155.305 11.6 162.132 11.6C163.668 11.6 165.204 11.7707 166.74 12.112C167.209 13.52 167.465 15.12 167.508 16.912C168.404 16.6133 169.3 16.464 170.196 16.464ZM162.324 25.36C162.324 24.1653 162.601 22.8213 163.156 21.328C163.753 19.8347 164.692 18.64 165.972 17.744C160.34 18.9387 156.457 21.2213 154.324 24.592C152.489 27.4933 151.572 30.48 151.572 33.552C151.572 36.624 152.19 39.0987 153.428 40.976C154.708 42.8107 156.329 43.728 158.292 43.728C162.644 43.728 165.716 40.8907 167.508 35.216C164.052 33.0827 162.324 29.7973 162.324 25.36Z"
        fill="white" />
</svg>