<svg width="1440" height="1024" viewBox="0 0 1440 1024" fill="none" xmlns="http://www.w3.org/2000/svg">
    <g clip-path="url(#clip0_2_51)">
        <path
            d="M720 623.615C658.357 623.615 608.385 573.643 608.385 512C608.385 450.357 658.357 400.385 720 400.385C781.643 400.385 831.615 450.357 831.615 512C831.615 573.643 781.643 623.615 720 623.615Z"
            stroke="#5C7CFA" stroke-width="2" stroke-miterlimit="10" />
        <path
            d="M677.096 352.827C589.242 376.51 537.141 467.059 560.821 554.91C584.501 642.761 675.049 694.856 762.904 671.173C850.758 647.49 902.859 556.941 879.179 469.09C855.499 381.239 764.951 329.144 677.096 352.827ZM679.696 362.474C762.337 340.196 847.257 389.053 869.532 471.691C891.806 554.328 842.944 639.249 760.304 661.526C677.663 683.804 592.743 634.947 570.468 552.309C548.194 469.672 597.056 384.751 679.696 362.474ZM683.597 376.944C680.934 377.662 679.356 380.405 680.073 383.068C680.791 385.73 683.534 387.309 686.197 386.591C688.86 385.873 690.438 383.13 689.72 380.467C689.003 377.805 686.259 376.226 683.597 376.944ZM657.954 386.636C655.48 387.861 654.477 390.862 655.697 393.337C656.918 395.813 659.914 396.816 662.39 395.596C664.864 394.37 665.869 391.379 664.648 388.903C663.423 386.43 660.423 385.411 657.954 386.636ZM710.646 372.431C707.892 372.62 705.811 374.993 705.995 377.747C706.179 380.502 708.556 382.582 711.311 382.398C714.066 382.214 716.145 379.836 715.962 377.082C715.778 374.327 713.401 372.248 710.646 372.431ZM636.459 400.282C635.831 400.446 635.229 400.734 634.683 401.155C632.497 402.836 632.085 405.971 633.772 408.161C635.459 410.35 638.589 410.758 640.778 409.071C642.967 407.384 643.376 404.254 641.689 402.065C640.425 400.427 638.342 399.789 636.459 400.282ZM736.068 373.43C734.191 373.952 732.718 375.547 732.452 377.598C732.097 380.333 734.025 382.838 736.76 383.197C739.495 383.552 742 381.624 742.36 378.889C742.714 376.154 740.787 373.649 738.051 373.29C737.366 373.201 736.694 373.256 736.068 373.43ZM616.266 418.721C615.682 419.004 615.144 419.405 614.69 419.924C612.875 422.001 613.087 425.156 615.165 426.97C617.242 428.785 620.399 428.583 622.214 426.505C624.029 424.427 623.815 421.263 621.737 419.449C620.179 418.088 618.017 417.871 616.266 418.721ZM762.792 379.222C760.851 379.365 759.092 380.647 758.43 382.61C757.546 385.223 758.948 388.057 761.562 388.941C764.175 389.825 767.008 388.423 767.893 385.81C768.777 383.196 767.374 380.363 764.761 379.479C764.108 379.258 763.439 379.174 762.792 379.222ZM601.787 439.914C600.552 440.247 599.444 441.05 598.757 442.246C597.38 444.641 598.203 447.694 600.596 449.067C602.99 450.444 606.044 449.621 607.417 447.228C608.794 444.834 607.971 441.78 605.578 440.408C604.384 439.718 603.022 439.581 601.787 439.914ZM785.97 390.264C784.735 390.596 783.63 391.401 782.94 392.596C781.562 394.99 782.385 398.044 784.778 399.417C787.173 400.794 790.226 399.971 791.599 397.578C792.977 395.184 792.154 392.13 789.761 390.757C788.567 390.07 787.204 389.931 785.97 390.264ZM806.6 405.954C806.016 406.237 805.479 406.637 805.024 407.157C803.21 409.234 803.412 412.391 805.49 414.206C807.567 416.021 810.731 415.806 812.546 413.729C814.361 411.651 814.149 408.496 812.072 406.682C810.517 405.32 808.353 405.103 806.6 405.954ZM591.839 463.857C589.898 464.002 588.138 465.276 587.475 467.236C586.591 469.849 587.993 472.683 590.606 473.567C593.219 474.451 596.063 473.046 596.947 470.433C597.831 467.82 596.419 464.989 593.806 464.105C593.153 463.884 592.486 463.809 591.839 463.857ZM696.602 458.151L685.957 581.334L702.435 576.892L704.794 542.979L748.404 531.223L767.497 559.353L784.276 554.83L713.165 453.686L696.602 458.151ZM825.619 424.887C824.991 425.052 824.391 425.34 823.843 425.76C821.658 427.441 821.248 430.586 822.935 432.776C824.616 434.961 827.752 435.373 829.941 433.686C832.127 432.005 832.536 428.86 830.849 426.671C829.589 425.032 827.504 424.395 825.619 424.887ZM584.912 489.785C583.035 490.304 581.561 491.898 581.296 493.953C580.942 496.687 582.869 499.192 585.605 499.552C588.339 499.906 590.845 497.979 591.204 495.243C591.559 492.509 589.631 490.004 586.896 489.644C586.211 489.555 585.538 489.612 584.912 489.785ZM709.297 475.252L710.54 474.917L740.59 519.253L705.534 528.703L709.297 475.252ZM585.097 516.039C582.344 516.228 580.253 518.603 580.437 521.358C580.621 524.112 583.01 526.199 585.765 526.015C588.52 525.831 590.597 523.444 590.413 520.689C590.229 517.935 587.852 515.855 585.097 516.039ZM838.675 447.682C836.201 448.908 835.196 451.899 836.417 454.374C837.642 456.848 840.636 457.863 843.112 456.642C845.586 455.416 846.589 452.415 845.368 449.94C844.142 447.466 841.149 446.456 838.675 447.682ZM588.463 542.285C585.8 543.002 584.221 545.746 584.939 548.408C585.657 551.071 588.4 552.649 591.063 551.931C593.725 551.214 595.304 548.47 594.586 545.808C593.869 543.145 591.125 541.567 588.463 542.285ZM848.937 472.068C846.275 472.786 844.696 475.53 845.414 478.192C846.131 480.855 848.875 482.433 851.537 481.715C854.2 480.998 855.779 478.254 855.061 475.592C854.343 472.929 851.6 471.351 848.937 472.068ZM854.254 497.98C851.499 498.164 849.422 500.551 849.606 503.306C849.79 506.06 852.167 508.14 854.922 507.956C857.677 507.772 859.766 505.392 859.582 502.637C859.398 499.883 857.009 497.796 854.254 497.98ZM596.9 567.365C594.426 568.591 593.412 571.585 594.632 574.06C595.858 576.534 598.859 577.536 601.334 576.316C603.808 575.09 604.813 572.098 603.593 569.623C602.372 567.148 599.374 566.139 596.9 567.365ZM852.419 524.577C850.543 525.097 849.072 526.693 848.803 528.745C848.448 531.479 850.378 533.994 853.114 534.353C855.848 534.708 858.354 532.78 858.713 530.045C859.068 527.31 857.138 524.796 854.402 524.436C853.718 524.346 853.044 524.403 852.419 524.577ZM611.844 589.439C611.216 589.603 610.614 589.89 610.068 590.311C607.883 591.992 607.471 595.128 609.157 597.317C610.838 599.503 613.974 599.915 616.164 598.228C618.349 596.547 618.761 593.411 617.074 591.222C615.81 589.584 613.727 588.945 611.844 589.439ZM847.422 550.166C845.481 550.311 843.721 551.586 843.058 553.546C842.174 556.159 843.576 558.992 846.189 559.876C848.802 560.76 851.636 559.358 852.52 556.745C853.404 554.132 852.002 551.298 849.389 550.414C848.735 550.193 848.069 550.118 847.422 550.166ZM629.034 609.047C628.45 609.331 627.912 609.731 627.458 610.25C625.643 612.328 625.855 615.482 627.933 617.297C630.01 619.112 633.165 618.9 634.98 616.822C636.795 614.744 636.583 611.59 634.505 609.775C632.947 608.414 630.785 608.197 629.034 609.047ZM651.43 624.089C650.195 624.422 649.087 625.225 648.401 626.422C647.023 628.816 647.846 631.87 650.239 633.243C652.633 634.62 655.687 633.797 657.06 631.404C658.438 629.009 657.615 625.956 655.222 624.583C654.027 623.894 652.665 623.757 651.43 624.089ZM835.613 574.439C834.378 574.772 833.27 575.578 832.583 576.772C831.206 579.166 832.029 582.22 834.422 583.592C836.816 584.97 839.87 584.147 841.243 581.754C842.62 579.359 841.797 576.306 839.404 574.933C838.21 574.246 836.848 574.106 835.613 574.439ZM676.476 634.79C674.534 634.935 672.774 636.22 672.114 638.178C671.23 640.792 672.632 643.625 675.246 644.509C677.859 645.393 680.693 643.991 681.577 641.378C682.461 638.764 681.056 635.922 678.443 635.038C677.789 634.817 677.123 634.741 676.476 634.79ZM819.357 596.273C818.773 596.557 818.235 596.957 817.781 597.476C815.966 599.554 816.18 602.718 818.258 604.532C820.336 606.347 823.49 606.135 825.305 604.058C827.12 601.98 826.908 598.826 824.83 597.011C823.272 595.65 821.107 595.423 819.357 596.273ZM701.263 640.931C699.388 641.452 697.908 643.05 697.638 645.102C697.283 647.836 699.211 650.341 701.946 650.701C704.682 651.06 707.195 649.125 707.555 646.39C707.91 643.656 705.982 641.15 703.247 640.791C702.563 640.702 701.888 640.758 701.263 640.931ZM801.005 614.044C800.376 614.208 799.767 614.499 799.219 614.919C797.034 616.6 796.622 619.736 798.309 621.925C799.989 624.111 803.135 624.52 805.324 622.833C807.51 621.152 807.922 618.017 806.235 615.827C804.974 614.188 802.89 613.551 801.005 614.044ZM728.693 641.581C725.94 641.769 723.861 644.152 724.045 646.906C724.229 649.661 726.606 651.74 729.361 651.557C732.116 651.373 734.196 648.995 734.012 646.241C733.828 643.486 731.448 641.397 728.693 641.581ZM777.622 628.411C775.148 629.637 774.143 632.628 775.364 635.103C776.584 637.579 779.581 638.583 782.056 637.362C784.53 636.136 785.535 633.145 784.315 630.67C783.094 628.194 780.096 627.186 777.622 628.411ZM753.803 637.409C751.14 638.127 749.562 640.87 750.28 643.533C750.997 646.195 753.741 647.774 756.403 647.056C759.066 646.338 760.645 643.595 759.927 640.932C759.209 638.27 756.466 636.691 753.803 637.409Z"
            fill="#5C7CFA" />
    </g>
    <defs>
        <clipPath id="clip0_2_51">
            <rect width="400" height="400" fill="white" transform="translate(520 312)" />
        </clipPath>
    </defs>
</svg>