<svg width="1440" height="1024" fill="none" xmlns="http://www.w3.org/2000/svg">
    <g clip-path="url(#prefix__clip0_207_103)">
        <path
            d="M408.562 486.167v1.77h-3.437a10.148 10.148 0 00-3.678.688 10.336 10.336 0 00-6.445 7.7h-68.51l-.43 58.644h-14.403v-68.544l48.985-36.094 47.918 35.836z"
            fill="#81D9E3" />
        <path
            d="M310.594 570.438h-5.156a3.439 3.439 0 00-2.431 5.868 3.439 3.439 0 002.431 1.006h5.156a3.438 3.438 0 000-6.874zm30.422 0h-10.141a3.44 3.44 0 00-2.431 1.006 3.44 3.44 0 000 4.862 3.44 3.44 0 002.431 1.006h10.141a3.438 3.438 0 000-6.874zm30.422 0h-10.141a3.44 3.44 0 00-3.438 3.437 3.44 3.44 0 003.438 3.437h10.141a3.438 3.438 0 000-6.874zm91.265 0h-10.141a3.438 3.438 0 000 6.874h10.141a3.44 3.44 0 003.438-3.437 3.44 3.44 0 00-3.438-3.437zm30.422 0h-10.141a3.438 3.438 0 000 6.874h10.141a3.44 3.44 0 002.431-1.006 3.44 3.44 0 000-4.862 3.44 3.44 0 00-2.431-1.006zm-60.844 0h-10.14a3.44 3.44 0 00-3.438 3.437 3.437 3.437 0 003.438 3.437h10.14a3.44 3.44 0 003.438-3.437 3.437 3.437 0 00-3.438-3.437zm-30.422 0h-10.14a3.44 3.44 0 00-3.438 3.437 3.437 3.437 0 003.438 3.437h10.14a3.44 3.44 0 003.438-3.437 3.437 3.437 0 00-3.438-3.437zm116.703 0h-5.156a3.438 3.438 0 000 6.874h5.156a3.439 3.439 0 002.431-5.868 3.439 3.439 0 00-2.431-1.006zm-151.25-39.532h-3.437v-10.312a3.45 3.45 0 00-3.437-3.438h-20.626a3.45 3.45 0 00-3.437 3.438v30.937a3.45 3.45 0 003.437 3.438h27.5a3.45 3.45 0 003.438-3.438v-17.187a3.45 3.45 0 00-3.438-3.438zm-24.062-6.875H357v6.875h-13.75v-6.875zm20.625 24.063H343.25v-10.313h20.625v10.313z"
            fill="#2D4356" />
        <path d="M343.25 537.781h20.625v10.313H343.25v-10.313zm0-13.75H357v6.875h-13.75v-6.875z" fill="#FFDB80" />
        <path
            d="M360.438 481.062a3.437 3.437 0 100-6.875 3.437 3.437 0 000 6.875zM521.622 529.428l-6.274-12.306-4.881-19.731a12.318 12.318 0 00-11.67-9.454h-19.766c-5.706 0-8.593 2.888-8.593 8.594V512h-13.75v-13.75a3.45 3.45 0 00-3.438-3.438h-10.312V484.5a3.45 3.45 0 00-3.438-3.438h-20.625a3.45 3.45 0 00-3.437 3.438v10.312h-10.313a3.45 3.45 0 00-3.437 3.438V512h-20.625a3.45 3.45 0 00-3.438 3.437v37.813a3.45 3.45 0 003.438 3.437h18.373a11.988 11.988 0 0010.845 6.876 11.997 11.997 0 0010.846-6.876h62.957a12.006 12.006 0 0021.708 0h7.614c5.707 0 8.594-2.887 8.594-8.593v-17.119a3.27 3.27 0 00-.378-1.547zm-71.809-27.741V512h-17.188v-10.313h17.188zm-27.5-13.75h13.75v6.875h-13.75v-6.875zm-13.75 13.75h17.187V512h-17.187v-10.313zm1.718 55a5.157 5.157 0 01-5.057-6.162 5.157 5.157 0 0110.214 1.006 5.17 5.17 0 01-5.157 5.156zm60.157-6.875h-48.263a12.015 12.015 0 00-23.787 0H384.5v-30.937h85.938v30.937zm24.509 6.875a5.154 5.154 0 01-5.057-6.162 5.157 5.157 0 0110.213 1.006 5.16 5.16 0 01-5.156 5.156zm20.178-8.593a1.57 1.57 0 01-1.719 1.718h-6.565a12.018 12.018 0 00-19.767-7.379 12.015 12.015 0 00-4.021 7.379h-5.74v-53.281a1.57 1.57 0 011.035-1.634c.218-.078.452-.107.683-.085h19.766a5.463 5.463 0 014.967 4.108l4.52 18.236h-3.471a3.435 3.435 0 00-3.438 3.438 3.435 3.435 0 003.438 3.437h6.342l3.97 7.769v16.294z"
            fill="#2D4356" />
        <path
            d="M422.312 487.938h13.75v6.874h-13.75v-6.874zm-13.75 13.75h17.188V512h-17.188v-10.312zm24.063 0h17.187V512h-17.187v-10.312z"
            fill="#FFDB80" />
        <path
            d="M515.125 531.8v16.294a1.567 1.567 0 01-1.035 1.634 1.59 1.59 0 01-.684.085h-6.565a12.018 12.018 0 00-19.767-7.38 12.015 12.015 0 00-4.021 7.38h-5.741v-53.282a1.585 1.585 0 01.454-1.265 1.557 1.557 0 011.265-.453h19.766a5.46 5.46 0 014.967 4.107l4.52 18.236h-3.472a3.435 3.435 0 00-3.437 3.438 3.435 3.435 0 003.437 3.437h6.343l3.97 7.769z"
            fill="#9387A2" />
        <path
            d="M500.103 551.531a5.154 5.154 0 01-6.162 5.057 5.157 5.157 0 011.006-10.213 5.171 5.171 0 015.156 5.156zM410.281 556.688a5.157 5.157 0 100-10.314 5.157 5.157 0 000 10.314z"
            fill="#D68751" />
        <path d="M470.438 518.875v30.937h-48.263a12.015 12.015 0 00-23.787 0H384.5v-30.937h85.938z" fill="#E1EBF4" />
        <path
            d="M408.563 487.937V484.5c.002-.8.099-1.597.287-2.375l-46.35-34.75a3.439 3.439 0 00-4.125 0l-55 41.25a3.434 3.434 0 00-1.34 2.264 3.436 3.436 0 005.465 3.236l1.375-1.031v58.437a3.437 3.437 0 106.875 0v-63.594l44.688-33.515 44.687 33.515h3.438z"
            fill="#2D4356" />
        <path
            d="M329.5 551.531v-51.562h65.312v-1.719a10.25 10.25 0 011.393-5.156h-70.143a3.435 3.435 0 00-3.437 3.437v55a3.437 3.437 0 106.875 0z"
            fill="#2D4356" />
        <path opacity=".5" d="M343.25 524.031H357v3.438h-13.75v-3.438z" fill="#F9EDD2" />
        <path opacity=".45" d="M343.25 544.656h20.625v3.438H343.25v-3.438z" fill="#AD9359" />
        <path opacity=".2"
            d="M508.284 517.156h-.859l-3.661-14.798a5.46 5.46 0 00-4.967-4.108h-19.766a1.567 1.567 0 00-1.634 1.035 1.59 1.59 0 00-.085.684v-3.438a1.585 1.585 0 01.454-1.265 1.557 1.557 0 011.265-.453h19.766a5.46 5.46 0 014.967 4.107l4.52 18.236z"
            fill="#DCCEF2" />
        <path opacity=".5"
            d="M477.312 546.375h6.79a11.572 11.572 0 00-1.049 3.437h-5.741v-3.437zm37.813-1.719v3.438a1.567 1.567 0 01-1.719 1.718h-6.565a11.602 11.602 0 00-1.049-3.437h7.614a1.567 1.567 0 001.719-1.719z"
            fill="#5F5968" />
        <path opacity=".4"
            d="M500.103 551.531a5.155 5.155 0 11-10.312 0 4.761 4.761 0 01.309-1.719 5.134 5.134 0 009.694 0c.208.549.313 1.132.309 1.719zm-84.665 0a5.156 5.156 0 01-10.313 0 4.761 4.761 0 01.309-1.719 5.14 5.14 0 004.847 3.438 5.132 5.132 0 004.847-3.438c.208.549.313 1.132.31 1.719z"
            fill="#72492D" />
        <path opacity=".5"
            d="M384.5 546.375h14.936a11.57 11.57 0 00-1.048 3.437H384.5v-3.437zm85.938 0v3.437h-48.263a11.57 11.57 0 00-1.048-3.437h49.311z"
            fill="#9FA5AA" />
        <path opacity=".5" d="M384.5 518.875h85.938v3.437H384.5v-3.437z" fill="#fff" />
        <path opacity=".5"
            d="M408.562 501.688h17.188v3.437h-17.188v-3.437zm24.063 0h17.187v3.437h-17.187v-3.437zm-10.313-13.75h13.75v3.437h-13.75v-3.437z"
            fill="#F9EDD2" />
        <path opacity=".4"
            d="M405.125 487.938a10.126 10.126 0 00-3.678.687l-41.009-30.766-44.688 33.516v-3.437l44.688-33.516 44.687 33.516z"
            fill="#E8FBFC" />
    </g>
    <path
        d="M565.32 539.48v-2.952h22.176c3.264 0 4.896-1.632 4.896-4.896V525.8c0-2.736-1.224-4.344-3.672-4.824l-15.48-3.168c-5.28-1.056-7.92-4.584-7.92-10.584v-3.888c0-7.344 3.672-11.016 11.016-11.016h17.424l3.24 2.52v2.952h-20.736c-3.264 0-4.896 1.632-4.896 4.896v4.896c0 2.736 1.224 4.344 3.672 4.824l15.48 3.096c5.28 1.056 7.92 4.608 7.92 10.656v4.824c0 7.344-3.672 11.016-11.016 11.016H568.56l-3.24-2.52zm42.63-8.28v-15.84c0-7.2 3.6-10.8 10.8-10.8h14.112l2.88 2.16v2.88H618.75c-3.36 0-5.04 1.68-5.04 5.04v17.28c0 3.36 1.68 5.04 5.04 5.04h16.992v2.88l-2.88 2.16H618.75c-7.2 0-10.8-3.6-10.8-10.8zm36.281 0v-15.84c0-7.2 3.6-10.8 10.8-10.8h10.08c7.2 0 10.8 3.6 10.8 10.8v15.84c0 7.2-3.6 10.8-10.8 10.8h-10.08c-7.2 0-10.8-3.6-10.8-10.8zm5.76.72c0 3.36 1.68 5.04 5.04 5.04h10.08c3.36 0 5.04-1.68 5.04-5.04v-17.28c0-3.36-1.68-5.04-5.04-5.04h-10.08c-3.36 0-5.04 1.68-5.04 5.04v17.28zM686.854 542v-37.44h20.16c7.2 0 10.8 3.6 10.8 10.8V542h-5.76v-27.36c0-3.36-1.68-5.04-5.04-5.04h-14.4V542h-5.76zm41.611-10.8v-15.84c0-7.2 3.6-10.8 10.8-10.8h9.36c7.2 0 10.8 3.6 10.8 10.8v10.152h-25.2v6.408c0 3.36 1.68 5.04 5.04 5.04h18.72v2.88l-2.88 2.16h-15.84c-7.2 0-10.8-3.6-10.8-10.8zm5.76-10.368h19.44v-6.192c0-3.36-1.68-5.04-5.04-5.04h-9.36c-3.36 0-5.04 1.68-5.04 5.04v6.192zm34.72 19.008v-2.88h16.632c3.312 0 4.968-1.68 4.968-5.04 0-3.408-1.32-5.328-3.96-5.76l-8.568-1.44c-6.048-1.008-9.072-4.296-9.072-9.864 0-6.864 3.6-10.296 10.8-10.296h12.024l2.88 2.16v2.88h-14.976c-3.36 0-5.04 1.68-5.04 5.04 0 3.024 1.416 4.776 4.248 5.256l8.568 1.44c5.952.96 8.928 4.392 8.928 10.296 0 6.912-3.648 10.368-10.944 10.368h-13.608l-2.88-2.16zm55.025-8.856V492.32h6.048v39.312c0 3.264 1.632 4.896 4.896 4.896h15.552c3.264 0 4.896-1.632 4.896-4.896V492.32h6.048v38.664c0 7.344-3.672 11.016-11.016 11.016h-15.408c-7.344 0-11.016-3.672-11.016-11.016zM873.252 542v-37.44h20.16c7.2 0 10.8 3.6 10.8 10.8V542h-5.76v-27.36c0-3.36-1.68-5.04-5.04-5.04h-14.4V542h-5.76zm41.9-10.224V488.72h5.76v43.632c0 3.312 1.68 5.064 5.04 5.256v4.968c-7.2 0-10.8-3.6-10.8-10.8zm18.703-34.2v-6.768h6.336v6.768h-6.336zm.288 44.424v-37.44h5.76V542h-5.76zm17.297 0v-37.44h42.48c7.2 0 10.8 3.6 10.8 10.8V542h-5.76v-27.36c0-3.36-1.68-5.04-5.04-5.04h-12.96V542h-5.76v-32.4h-18V542h-5.76zm64.26-44.424v-6.768h6.33v6.768h-6.33zm.29 44.424v-37.44h5.76V542h-5.76zm17.01-10.8v-38.88h5.76v12.24h13.68v5.04h-13.68v22.32c0 3.36 1.68 5.04 5.04 5.04h9.36v2.88l-2.88 2.16h-6.48c-7.2 0-10.8-3.6-10.8-10.8zm27.9 0v-15.84c0-7.2 3.6-10.8 10.8-10.8h9.36c7.2 0 10.8 3.6 10.8 10.8v10.152h-25.2v6.408c0 3.36 1.68 5.04 5.04 5.04h18.72v2.88l-2.88 2.16h-15.84c-7.2 0-10.8-3.6-10.8-10.8zm5.76-10.368h19.44v-6.192c0-3.36-1.68-5.04-5.04-5.04h-9.36c-3.36 0-5.04 1.68-5.04 5.04v6.192zm35.59 10.368v-15.84c0-7.2 3.6-10.8 10.8-10.8h14.4v-15.84h5.76V542h-20.16c-7.2 0-10.8-3.6-10.8-10.8zm5.76.72c0 3.36 1.68 5.04 5.04 5.04h14.4V509.6h-14.4c-3.36 0-5.04 1.68-5.04 5.04v17.28z"
        fill="#81D9E3" />
    <defs>
        <clipPath id="prefix__clip0_207_103">
            <path fill="#fff" transform="translate(302 402)" d="M0 0h220v220H0z" />
        </clipPath>
    </defs>
</svg>