<svg xmlns="http://www.w3.org/2000/svg" version="1.0" width="147pt" height="147pt" viewBox="0 0 147 147">
	<g transform="translate(0.000000,147.000000) scale(0.100000,-0.100000)" fill="#438ff9" stroke="none">
		<path
			d="M618 1450 c-234 -42 -434 -194 -534 -405 -51 -107 -68 -184 -68 -310 0 -134 17 -206 81 -335 80 -164 234 -295 418 -357 72 -25 94 -27 225 -27 133 0 152 2 225 28 305 106 495 370 495 691 0 205 -66 361 -215 510 -140 141 -282 203 -480 210 -55 2 -121 0 -147 -5z m339 -108 c105 -39 175 -86 257 -172 92 -98 144 -209 170 -367 5 -33 5 -33 -34 -33 -37 0 -39 2 -45 38 -3 20 -15 66 -26 102 -55 177 -215 328 -395 374 -78 20 -213 21 -288 1 -250 -65 -426 -295 -426 -553 1 -343 308 -611 644 -562 100 15 179 46 260 104 98 70 176 180 210 294 l15 52 -134 0 -133 0 58 -102 59 -101 -20 -29 c-12 -16 -25 -28 -30 -26 -6 2 -43 59 -82 128 l-73 125 -205 3 -204 2 -75 -130 c-41 -71 -77 -130 -80 -130 -4 0 -17 11 -30 25 -17 19 -21 29 -14 44 22 47 399 691 404 691 5 -1 191 -319 198 -341 2 -5 -16 -9 -40 -9 l-44 0 -47 83 c-75 133 -61 135 -148 -19 l-77 -134 403 0 404 0 -6 -38 c-39 -278 -221 -486 -488 -557 -80 -22 -232 -22 -315 0 -215 56 -389 222 -462 440 -19 58 -23 90 -22 190 0 104 4 130 28 200 62 179 180 312 344 387 102 47 164 58 292 54 98 -3 127 -8 197 -34z" />
	</g>
</svg>