<svg width="40" height="40" viewBox="0 0 40 40" fill="none" xmlns="http://www.w3.org/2000/svg">
    <g clip-path="url(#clip0_962_839)">
        <path
            d="M32.6844 5.55139C31.4962 4.36226 30.0832 3.41979 28.527 2.77853C26.9709 2.13726 25.3027 1.80994 23.6188 1.8155C21.9349 1.80981 20.2665 2.13707 18.7104 2.77834C17.1543 3.41962 15.7413 4.36216 14.5532 5.55139L1.44269 18.6158C1.1346 18.9241 0.962009 19.3417 0.962894 19.7768C0.963779 20.2119 1.13806 20.6289 1.44741 20.9359C1.75675 21.2429 2.17582 21.4149 2.61241 21.4141C3.04901 21.4132 3.46737 21.2395 3.77546 20.9312L16.8848 7.86677C18.6808 6.12697 21.092 5.16174 23.5966 5.17984C26.1012 5.19795 28.4981 6.19794 30.2686 7.96351C32.0392 9.72909 33.0411 12.1183 33.0578 14.6144C33.0744 17.1105 32.1044 19.5128 30.3575 21.3016L17.2482 34.3661C16.9392 34.6734 16.7653 35.0905 16.7649 35.5256C16.7644 35.9607 16.9374 36.3782 17.2458 36.6861C17.5542 36.9941 17.9728 37.1674 18.4094 37.1678C18.846 37.1683 19.2649 36.9958 19.5739 36.6885L32.6844 23.6205C35.0851 21.2225 36.4333 17.9734 36.4333 14.586C36.4333 11.1985 35.0851 7.94943 32.6844 5.55139Z"
            fill="#4169E1"></path>
        <path
            d="M30.8477 14.5814C30.8478 13.1562 30.4236 11.763 29.629 10.5781C28.8344 9.3931 27.705 8.46962 26.3836 7.92443C25.0623 7.37925 23.6084 7.23686 22.2058 7.51528C20.8033 7.7937 19.5151 8.48041 18.5042 9.48855L1.0857 26.8474C0.792938 27.158 0.633026 27.57 0.639859 27.996C0.646691 28.4221 0.819731 28.8287 1.1223 29.1298C1.42487 29.4309 1.8332 29.6027 2.26073 29.6089C2.68826 29.615 3.10139 29.4551 3.41257 29.1628L20.6399 12.0144L20.6671 11.9827C20.7202 11.9227 20.7721 11.8651 20.8299 11.8039C20.8877 11.7428 20.9632 11.6863 21.034 11.6205L21.073 11.5852C21.8129 10.9602 22.7582 10.6293 23.7278 10.6559C24.6973 10.6824 25.623 11.0646 26.3273 11.7291C27.0317 12.3936 27.4653 13.2938 27.545 14.2571C27.6246 15.2205 27.3449 16.1792 26.7592 16.9497L26.7474 16.9662C26.6425 17.1048 26.5286 17.2364 26.4064 17.3601C26.2786 17.4865 26.1426 17.6044 25.9993 17.7129L8.98787 34.7226C8.6793 35.0301 8.50596 35.4471 8.50596 35.882C8.50596 36.3169 8.6793 36.734 8.98787 37.0415C9.29643 37.349 9.71493 37.5217 10.1513 37.5217C10.5877 37.5217 11.0062 37.349 11.3147 37.0415L28.7321 19.6826C29.4059 19.0141 29.9399 18.219 30.303 17.3434C30.6662 16.4677 30.8514 15.5289 30.8477 14.5814Z"
            fill="#4169E1"></path>
        <path
            d="M21.9847 18.1574C21.1168 17.7706 20.4224 17.0786 20.0343 16.2136L19.9163 15.9561L0.674748 35.1329C0.306608 35.489 0.0721262 35.96 0.0104335 36.4676C-0.0208502 36.6917 -0.000793865 36.9199 0.0690973 37.1352C0.138988 37.3505 0.256899 37.5472 0.413978 37.7105C0.554816 37.8459 0.721192 37.9521 0.903476 38.0229C1.08576 38.0937 1.28034 38.1279 1.47594 38.1233C2.05612 38.1088 2.60722 37.8672 3.00988 37.4506L22.2432 18.275L21.9847 18.1574Z"
            fill="#4169E1"></path>
    </g>
    <defs>
        <clipPath id="clip0_962_839">
            <rect width="143" height="40" fill="white"></rect>
        </clipPath>
    </defs>
</svg>